<svg width="29" height="40" viewBox="0 0 29 40" fill="none" xmlns="http://www.w3.org/2000/svg">
<path d="M19.9042 32.5202C18.9914 32.5202 17.9711 32.3527 16.965 31.8496C16.6662 31.7003 16.5452 31.337 16.6945 31.0381C16.8438 30.7393 17.2072 30.6181 17.506 30.7677C19.9203 31.9748 22.5738 30.7728 22.6004 30.7604C22.9033 30.6202 23.2627 30.7512 23.4034 31.0534C23.5443 31.3556 23.4145 31.7147 23.1126 31.8563C23.0274 31.8963 21.6659 32.5202 19.9042 32.5202Z" fill="#FBC674"/>
<path d="M10.1454 37.8766C10.1454 38.9383 10.7512 39.2516 11.233 39.2516H17.2097C17.6914 39.2516 18.2973 38.9383 18.2973 37.8766L17.2355 31.3088C27.2072 21.2466 28.4427 9.87354 28.4427 9.87354H0C0 9.87354 1.23547 21.2466 11.2071 31.3089L10.1454 37.8766Z" fill="#FFB8C7"/>
<path d="M0.189117 9.10234C0.189117 12.7144 9.21138 18.5037 14.2213 18.5037C19.2308 18.5037 28.2532 12.7144 28.2532 9.10328C27.0997 6.84438 20.5672 0 14.1737 0C7.78123 0 1.33466 6.84266 0.189117 9.10234Z" fill="#FCE39F"/>
<path d="M23.4005 37.5339C23.3675 37.5339 23.334 37.5312 23.3004 37.5257C19.9578 36.9686 17.7168 33.4571 16.9645 32.0972C15.9758 32.4792 13.7992 33.0112 10.9801 31.8692C10.6704 31.7439 10.5211 31.3912 10.6465 31.0816C10.772 30.772 11.1247 30.6225 11.4342 30.7481C14.6997 32.0707 16.9053 30.8014 16.9272 30.7883C17.0737 30.7015 17.2498 30.6806 17.4127 30.7303C17.5754 30.7802 17.7097 30.8963 17.7824 31.0502C17.8045 31.0967 20.0536 35.7582 23.4993 36.3325C23.8288 36.3874 24.0514 36.6989 23.9965 37.0285C23.9471 37.3243 23.6909 37.5339 23.4005 37.5339Z" fill="#FCE39F"/>
<path d="M28.2532 9.10323C26.9533 12.1685 19.2308 17.8005 14.2213 17.8005C9.21138 17.8005 1.48787 12.1675 0.18912 9.10229C0.124433 9.22987 0.0756046 9.34378 0.0456828 9.44011C-0.727989 11.9317 8.51029 19.2521 14.2213 19.2521C19.9323 19.2521 29.1706 11.9317 28.3969 9.44019C28.3671 9.34409 28.3181 9.2305 28.2532 9.10323Z" fill="#F5D88B"/>
<path d="M18.2972 37.8765C18.0984 38.2708 17.6914 38.5483 17.2097 38.5483H11.2329C10.7511 38.5483 10.3441 38.2708 10.1453 37.8765L10.0304 38.5874C9.91059 39.3281 10.4825 40 11.2329 40H17.2097C17.96 40 18.5319 39.3282 18.4122 38.5874L18.2972 37.8765Z" fill="#FFACCA"/>
<path d="M6.38734 14.5302C8.57492 14.5302 10.7433 12.5021 10.7433 10.1502C10.6985 9.90858 10.6313 9.68554 10.5416 9.48116L9.8257 9.30202L9.81711 8.50804C9.00719 7.81405 7.77172 7.5271 6.38727 7.5271C4.99734 7.5271 3.75773 7.81655 2.94797 8.51655L2.92875 9.28194L2.22531 9.50022C2.13976 9.69944 2.07476 9.91593 2.0314 10.1501C2.0314 12.7144 4.19976 14.5302 6.38734 14.5302Z" fill="#F3746B"/>
<path d="M6.38733 13.827C4.19975 13.827 2.38459 12.2372 2.03139 10.1501C1.99053 10.3707 1.96811 10.6062 1.96811 10.8594C1.96811 13.3001 3.9467 15.2787 6.38733 15.2787C7.70584 15.2787 8.88866 14.7005 9.69842 13.7848L9.46264 13.1435L10.4101 12.6885C10.664 12.131 10.8066 11.512 10.8066 10.8594C10.8066 10.6063 10.7842 10.3708 10.7433 10.1502C10.3901 12.2372 8.57491 13.827 6.38733 13.827Z" fill="#E7635F"/>
<path d="M9.54114 12.5023C9.5413 12.5022 9.54145 12.5021 9.54161 12.5021C8.83677 12.3135 8.15052 12.0421 7.50255 11.7263C8.91599 10.8318 10.0451 9.9065 10.5416 9.48135C10.3718 9.09377 10.125 8.77182 9.81708 8.5083C9.33442 8.92408 7.94927 10.0722 6.27731 11.0574C4.61802 10.0549 3.36364 8.91338 2.94786 8.51682C2.63958 8.78307 2.39356 9.10869 2.2252 9.50049C3.03325 10.2617 5.41895 12.3455 8.31591 13.3846L9.46247 13.1436L9.54114 12.5023Z" fill="#C75058"/>
<path d="M10.4101 12.6885C10.1182 12.642 9.82814 12.579 9.54118 12.5022C9.18798 12.8624 8.77361 13.1622 8.31486 13.3851C8.76501 13.5466 9.22751 13.6828 9.69837 13.7849C9.98681 13.4588 10.2274 13.0897 10.4101 12.6885Z" fill="#B74A56"/>
<path d="M22.0515 14.5302C24.239 14.5302 26.4074 12.5021 26.4074 10.1502C26.3626 9.90858 26.2954 9.68554 26.2058 9.48116L25.4898 9.30202L25.4812 8.50804C24.6712 7.81405 23.4358 7.5271 22.0514 7.5271C20.6615 7.5271 19.4219 7.81655 18.6121 8.51655L18.5929 9.28194L17.8894 9.50022C17.8038 9.69944 17.7388 9.91593 17.6954 10.1501C17.6955 12.7144 19.864 14.5302 22.0515 14.5302Z" fill="#F3746B"/>
<path d="M22.0514 13.827C19.8639 13.827 18.0487 12.2372 17.6955 10.1501C17.6546 10.3707 17.6322 10.6062 17.6322 10.8594C17.6322 13.3001 19.6108 15.2787 22.0514 15.2787C23.37 15.2787 24.5528 14.7005 25.3625 13.7848L25.1267 13.1435L26.0743 12.6885C26.3282 12.131 26.4707 11.512 26.4707 10.8594C26.4707 10.6063 26.4483 10.3708 26.4074 10.1502C26.0542 12.2372 24.239 13.827 22.0514 13.827Z" fill="#E7635F"/>
<path d="M25.2054 12.5023L25.2058 12.5021C24.501 12.3135 23.8148 12.0421 23.1668 11.7263C24.5802 10.8318 25.7094 9.9065 26.2058 9.48135C26.036 9.09377 25.7892 8.77182 25.4813 8.5083C24.9987 8.92408 23.6135 10.0722 21.9415 11.0574C20.2822 10.0549 19.0279 8.91338 18.6122 8.51682C18.3039 8.78307 18.0579 9.10869 17.8895 9.50049C18.6976 10.2617 21.0833 12.3455 23.9803 13.3846L25.1269 13.1436L25.2054 12.5023Z" fill="#C75058"/>
<path d="M26.0743 12.6885C25.7824 12.642 25.4923 12.579 25.2053 12.5022C24.8521 12.8624 24.4378 13.1622 23.979 13.3851C24.4292 13.5466 24.8917 13.6828 25.3625 13.7849C25.651 13.4588 25.8915 13.0897 26.0743 12.6885Z" fill="#B74A56"/>
<path d="M14.2174 18.406C16.405 18.406 18.5734 16.3778 18.5734 14.026C18.5286 13.7843 18.4613 13.5613 18.3717 13.3569L17.6558 13.1778L17.6472 12.3838C16.8373 11.6898 15.6018 11.4028 14.2173 11.4028C12.8274 11.4028 11.5878 11.6923 10.7781 12.3923L10.7588 13.1577L10.0554 13.376C9.96985 13.5752 9.90485 13.7917 9.86149 14.0259C9.86149 16.5902 12.0299 18.406 14.2174 18.406Z" fill="#F3746B"/>
<path d="M14.2175 17.7028C12.0299 17.7028 10.2148 16.1129 9.86158 14.0259C9.82072 14.2464 9.7983 14.482 9.7983 14.7351C9.7983 17.1758 11.7769 19.1544 14.2175 19.1544C15.536 19.1544 16.7189 18.5763 17.5286 17.6606L17.2928 17.0192L18.2403 16.5642C18.4943 16.0067 18.6368 15.3878 18.6368 14.7352C18.6368 14.4821 18.6144 14.2465 18.5735 14.026C18.2202 16.1129 16.405 17.7028 14.2175 17.7028Z" fill="#E7635F"/>
<path d="M17.3714 16.3779L17.3718 16.3776C16.667 16.189 15.9807 15.9176 15.3328 15.6019C16.7462 14.7074 17.8753 13.7821 18.3718 13.3569C18.202 12.9693 17.9552 12.6474 17.6473 12.3838C17.1646 12.7996 15.7795 13.9477 14.1076 14.9329C12.4483 13.9304 11.1939 12.7889 10.7782 12.3923C10.4699 12.6586 10.2238 12.9842 10.0555 13.376C10.8636 14.1372 13.2493 16.221 16.1462 17.2601L17.2928 17.0192L17.3714 16.3779Z" fill="#C75058"/>
<path d="M18.2403 16.5643C17.9484 16.5178 17.6583 16.4547 17.3714 16.3779C17.0182 16.7382 16.6038 17.0379 16.145 17.2608C16.5952 17.4224 17.0577 17.5586 17.5286 17.6607C17.817 17.3345 18.0575 16.9654 18.2403 16.5643Z" fill="#B74A56"/>
<path d="M14.2174 10.6542C16.405 10.6542 18.5734 8.62612 18.5734 6.27425C18.5286 6.03261 18.4613 5.80956 18.3717 5.60519L17.6558 5.42605L17.6472 4.63206C16.8373 3.93808 15.6018 3.65112 14.2173 3.65112C12.8274 3.65112 11.5878 3.94058 10.7781 4.64058L10.7588 5.40597L10.0554 5.62425C9.96985 5.82347 9.90485 6.03995 9.86149 6.27417C9.86149 8.83847 12.0299 10.6542 14.2174 10.6542Z" fill="#F3746B"/>
<path d="M14.2175 9.95105C12.0299 9.95105 10.2148 8.3612 9.86158 6.27417C9.82072 6.49472 9.7983 6.73026 9.7983 6.98339C9.7983 9.4241 11.7769 11.4027 14.2175 11.4027C15.536 11.4027 16.7189 10.8246 17.5286 9.90886L17.2928 9.26753L18.2403 8.81253C18.4943 8.25503 18.6368 7.63605 18.6368 6.98347C18.6368 6.73034 18.6144 6.4948 18.5735 6.27425C18.2202 8.3612 16.405 9.95105 14.2175 9.95105Z" fill="#E7635F"/>
<path d="M17.3714 8.62614C17.3715 8.62606 17.3717 8.62599 17.3718 8.62583C16.667 8.43731 15.9807 8.16583 15.3328 7.85013C16.7462 6.9556 17.8753 6.03028 18.3718 5.60513C18.202 5.21755 17.9552 4.8956 17.6473 4.63208C17.1646 5.04786 15.7795 6.19599 14.1076 7.18114C12.4483 6.17864 11.1939 5.03716 10.7782 4.6406C10.4699 4.90685 10.2238 5.23247 10.0555 5.62427C10.8636 6.38552 13.2493 8.46927 16.1462 9.50833L17.2928 9.26739L17.3714 8.62614Z" fill="#C75058"/>
<path d="M18.2403 8.81255C17.9484 8.76606 17.6583 8.70302 17.3714 8.62622C17.0182 8.98638 16.6038 9.28622 16.145 9.50911C16.5952 9.6706 17.0577 9.80685 17.5286 9.90895C17.817 9.58278 18.0575 9.21372 18.2403 8.81255Z" fill="#B74A56"/>
</svg>
