<svg width="48" height="48" viewBox="0 0 48 48" fill="none" xmlns="http://www.w3.org/2000/svg">
<rect width="48" height="48" fill="white"/>
<g clip-path="url(#clip0)">
<path d="M27.5326 23.5884C28.0515 24.1336 28.6167 24.6209 29.1632 25.04L31.8937 25.7431L34.6242 25.04C35.1707 24.6209 35.7359 24.1336 36.2548 23.5884L31.8937 22.8853L27.5326 23.5884Z" fill="#FFACCA"/>
<path d="M36.2548 23.5886C37.5317 22.247 38.5271 20.5525 38.2662 18.6443C37.6996 14.5011 32.6842 14.9104 31.8936 17.4342C31.103 14.9104 26.0876 14.5011 25.5211 18.6443C25.2602 20.5525 26.2556 22.247 27.5325 23.5886H36.2548Z" fill="#FFB8C7"/>
<path d="M19.0492 43.2516H42.7901C43.4583 43.2516 44 42.7902 44 41.3386V25.4309C44 25.2151 43.8252 25.0403 43.6094 25.0403H32.6784L30.9196 25.7434L29.1609 25.0403H18.2299C18.0142 25.0403 17.8393 25.2151 17.8393 25.4309V41.3386C17.8393 42.7902 18.3809 43.2516 19.0492 43.2516Z" fill="#FCE39F"/>
<path d="M42.79 42.5483H19.0492C18.381 42.5483 17.8393 42.0066 17.8393 41.3384V42.79C17.8393 43.4582 18.381 43.9999 19.0492 43.9999H29.1609L30.9197 43.2514L32.6784 43.9999H42.7901C43.4583 43.9999 44 43.4582 44 42.79V41.3384C43.9999 42.0066 43.4582 42.5483 42.79 42.5483Z" fill="#F5D88B"/>
<path d="M32.6784 25.0403H29.1609V42.5485L30.9196 43.2516L32.6784 42.5485V25.0403Z" fill="#F3746B"/>
<path d="M29.1609 42.5483H32.6783V44H29.1609V42.5483Z" fill="#E7635F"/>
<path d="M10.7635 28.9461L12.5496 26.2757V22.4651C11.1082 22.0464 8.87821 21.6445 7.76711 22.7089C6.22235 24.1889 9.1125 28.4907 9.1125 28.4907L9.81508 29.3218L10.7635 28.9461Z" fill="#F3746B"/>
<path d="M12.1311 29.323L13.895 26.7912V22.9297C13.895 22.9297 13.3411 22.6948 12.5496 22.4648L10.7635 28.9457L11.309 29.6067L12.1311 29.323Z" fill="#E7635F"/>
<path d="M9.81512 32.3872L9.19605 31.6917L8.16621 31.9324C8.16621 31.9324 3.47926 34.1431 4.04777 36.2059C4.45668 37.6894 6.57707 38.4873 8.02933 38.8667L9.81504 35.6677V32.3872H9.81512Z" fill="#F3746B"/>
<path d="M9.42327 39.1573L11.1846 36.2266L11.1848 32.7649L10.636 32.0444L9.81506 32.3872L8.02936 38.8666C8.82701 39.0751 9.42327 39.1573 9.42327 39.1573Z" fill="#E7635F"/>
<path d="M10.7623 28.9458L10.7635 30.8556L9.81494 32.3874L8.1651 31.9323L9.11252 28.4907L10.7623 28.9458Z" fill="#C75058"/>
<path d="M11.1847 32.7651L12.2783 31.2319L12.1311 29.3232L10.7635 28.946L9.81512 32.3874L11.1847 32.7651Z" fill="#B74A56"/>
<path d="M17.8982 19.901L15.7427 19.3065C15.3068 19.1863 14.856 19.4424 14.7358 19.8785L8.58238 42.2088C8.46222 42.6449 8.71816 43.0958 9.1541 43.2161L11.309 43.8104L12.4475 42.3545L17.9412 22.4201L17.8982 19.901Z" fill="#FCE39F"/>
<path d="M18.4782 20.061L17.8982 19.9011L11.309 43.8104L11.8896 43.9705C12.3256 44.0908 12.7764 43.8347 12.8965 43.3987L19.05 21.0684C19.1701 20.6322 18.9142 20.1813 18.4782 20.061Z" fill="#F5D88B"/>
<path d="M14.1291 33.5777L15.2884 32.0446L15.0782 30.1338L12.1336 29.3218L11.1846 32.7657L14.1291 33.5777Z" fill="#F3746B"/>
<path d="M14.1298 33.5815L15.08 30.1379L16.4496 30.5158L15.4994 33.9595L14.1298 33.5815Z" fill="#E7635F"/>
<path d="M26.2441 5.20297C26.2441 7.37547 28.6395 8.62469 29.2541 8.95969C29.3736 9.02484 29.5178 9.02484 29.6373 8.95969C30.2519 8.62461 32.6473 7.23883 32.6473 5.20297C32.1008 3.50281 29.8263 3.76852 29.4456 4.98359C29.0651 3.76852 26.7906 3.50281 26.2441 5.20297Z" fill="#FFB8C7"/>
<path d="M39.2331 12.3519C39.3542 12.4181 39.4999 12.4181 39.6209 12.3519C40.2215 12.0236 42.5195 10.9368 42.5195 8.72129C41.978 7.09918 39.7938 7.35903 39.427 8.53035C39.06 7.35903 36.876 7.09926 36.3345 8.72129C36.3345 10.9368 38.6324 12.0236 39.2331 12.3519Z" fill="#FFB8C7"/>
<path d="M20.6683 15.8121C20.7893 15.8783 20.9351 15.8783 21.0561 15.8121C21.6567 15.4837 23.9547 14.3027 23.9547 12.1815C23.4132 10.5594 21.2291 10.8192 20.8622 11.9905C20.4953 10.8192 18.3112 10.5594 17.7697 12.1815C17.7696 14.2462 20.0676 15.4837 20.6683 15.8121Z" fill="#FFB8C7"/>
<path d="M23.9547 12.1814C23.4749 13.682 21.6567 14.7805 21.0561 15.1089C20.935 15.1751 20.7893 15.1751 20.6683 15.1089C20.0677 14.7805 18.2495 13.682 17.7697 12.1814C17.7273 12.3083 17.6938 12.4455 17.6732 12.596C17.3958 14.6246 19.9552 16.1719 20.6763 16.5649C20.7924 16.6281 20.932 16.6281 21.0481 16.5649C21.7691 16.1719 24.3286 14.6245 24.0512 12.596C24.0306 12.4455 23.997 12.3084 23.9547 12.1814Z" fill="#FFACCA"/>
<path d="M32.6474 5.20312C32.162 6.7732 30.252 7.92164 29.6374 8.25672C29.5178 8.32188 29.3736 8.32188 29.2542 8.25672C28.6395 7.92164 26.7295 6.77313 26.2442 5.20312C26.204 5.32805 26.1723 5.46258 26.1523 5.60922C25.865 7.71016 28.5241 9.31141 29.2602 9.71164C29.3763 9.77477 29.5155 9.77477 29.6315 9.71164C30.3676 9.31133 33.0267 7.71016 32.7394 5.60922C32.7192 5.46258 32.6874 5.32805 32.6474 5.20312Z" fill="#FFACCA"/>
<path d="M42.5195 8.72144C42.0397 10.2221 40.2215 11.3206 39.6209 11.6489C39.4999 11.7151 39.3541 11.7151 39.2331 11.6489C38.6325 11.3206 36.8144 10.2221 36.3345 8.72144C36.2922 8.84839 36.2586 8.9855 36.238 9.13604C35.9606 11.1646 38.5201 12.7119 39.2412 13.105C39.3572 13.1682 39.4969 13.1682 39.6129 13.105C40.334 12.7119 42.8934 11.1646 42.616 9.13604C42.5954 8.98558 42.5619 8.84847 42.5195 8.72144Z" fill="#FFACCA"/>
</g>
<defs>
<clipPath id="clip0">
<rect width="40" height="40" fill="white" transform="translate(4 4)"/>
</clipPath>
</defs>
</svg>
