<svg width="48" height="48" viewBox="0 0 48 48" fill="none" xmlns="http://www.w3.org/2000/svg">
<rect width="48" height="48" fill="white"/>
<path d="M29.7144 11.6189C29.7144 7.41109 27.156 4 24.0002 4C23.501 4 23.0168 4.08531 22.5553 4.24563C20.099 5.09891 19.2867 8.94188 19.2867 11.6189C19.2867 15.8267 20.8443 18.369 24.0002 18.369C25.5506 18.369 26.9568 18.4145 27.9863 17.0779C29.0523 15.6938 29.7144 13.7595 29.7144 11.6189Z" fill="#EAD1FF"/>
<path d="M26.5398 17.333C23.3839 17.333 20.8255 13.9219 20.8255 9.71412C20.8255 7.57123 21.4873 5.6299 22.5552 4.24561C20.0982 5.09826 18.2859 8.07584 18.2859 11.6189C18.2859 15.8267 20.8442 19.2378 24.0001 19.2378C25.5488 19.2378 26.957 18.4118 27.9863 17.0778C27.5252 17.2378 27.0384 17.333 26.5398 17.333Z" fill="#D6BDEF"/>
<path d="M21.5849 13.58C20.1458 9.62592 16.5751 7.29553 13.6096 8.37491C13.1405 8.54561 12.7147 8.79139 12.3359 9.09991C10.3196 10.7419 10.8705 14.6309 11.7861 17.1465C13.2253 21.1005 15.5585 22.9567 18.5241 21.8773C19.981 21.347 21.318 20.9089 21.8283 19.3008C22.3566 17.6356 22.3171 15.5915 21.5849 13.58Z" fill="#FFF0AF"/>
<path d="M20.5562 20.0355C17.5907 21.1149 14.02 18.7845 12.5809 14.8304C11.848 12.8167 11.8058 10.7662 12.3359 9.1001C10.3187 10.7417 9.63406 14.1596 10.8459 17.4889C12.285 21.443 15.8557 23.7734 18.8212 22.694C20.2766 22.1643 21.3174 20.9065 21.8283 19.301C21.4497 19.6089 21.0248 19.8649 20.5562 20.0355Z" fill="#FFE07D"/>
<path d="M37.3984 17.5177C38.8375 13.5636 37.6002 9.4832 34.6346 8.40382C34.1656 8.23312 33.6814 8.14765 33.1929 8.14046C30.5929 8.10218 28.5151 11.4355 27.5996 13.9511C26.1604 17.9052 26.7546 20.8268 29.7202 21.9062C31.1771 22.4365 32.483 22.9602 33.9075 22.0562C35.3825 21.1205 36.6663 19.5291 37.3984 17.5177Z" fill="#FF7D91"/>
<path d="M32.4609 21.8017C29.4953 20.7223 28.258 16.6419 29.6971 12.6878C30.43 10.6742 31.7158 9.07628 33.1929 8.14066C30.5923 8.10152 27.871 10.2797 26.6592 13.6091C25.2201 17.5632 26.4574 21.6435 29.423 22.7229C30.8783 23.2526 32.4841 22.9581 33.9075 22.0566C33.4194 22.0492 32.9294 21.9722 32.4609 21.8017Z" fill="#E15F78"/>
<path d="M24.0002 43.9995C23.6492 43.9995 23.3652 43.7155 23.3652 43.3646V33.206C23.3652 32.855 23.6492 32.571 24.0002 32.571C24.3511 32.571 24.6351 32.855 24.6351 33.206V43.3646C24.6351 43.7155 24.3511 43.9995 24.0002 43.9995Z" fill="#F5EBCD"/>
<path d="M26.3228 43.9994C26.2508 43.9994 26.1771 43.987 26.1058 43.9609C25.7759 43.8413 25.606 43.4767 25.7263 43.1474L28.7012 34.973C28.8209 34.6437 29.1873 34.4744 29.5147 34.5935C29.8446 34.7132 30.0145 35.0777 29.8942 35.407L26.9193 43.5815C26.8256 43.8394 26.5819 43.9994 26.3228 43.9994Z" fill="#F5EBCD"/>
<path d="M21.6745 44C21.4153 44 21.1716 43.84 21.078 43.5821L18.103 35.4083C17.9827 35.0791 18.1527 34.7145 18.4825 34.5948C18.8098 34.4751 19.1763 34.6444 19.296 34.9743L22.2709 43.1481C22.3913 43.4773 22.2213 43.8419 21.8915 43.9616C21.8202 43.9876 21.7463 44 21.6745 44Z" fill="#F5EBCD"/>
<path d="M19.5936 34.3233L17.7348 32.5405L17.4567 35.101C17.4059 35.5684 17.8632 35.927 18.3051 35.7662L19.3713 35.3781C19.8131 35.2173 19.9329 34.6487 19.5936 34.3233Z" fill="#64ACDC"/>
<path d="M28.4032 34.3234L30.2626 32.5396L30.5405 35.1013C30.5912 35.5687 30.1339 35.9271 29.6921 35.7664L28.6256 35.3782C28.1837 35.2174 28.0639 34.6489 28.4032 34.3234Z" fill="#FF8B5A"/>
<path d="M22.8724 32.922L24.0003 30.6663L25.1281 32.922C25.3392 33.3441 25.0321 33.8408 24.5602 33.8408H23.4403C22.9682 33.8408 22.6613 33.3441 22.8724 32.922Z" fill="#78C2A4"/>
<path d="M20.7366 24.0719C19.2975 20.1179 15.7268 17.7875 12.7613 18.8669C12.2922 19.0376 11.8664 19.2833 11.4876 19.5919C9.47126 21.2338 10.0222 25.1229 10.9378 27.6384C12.377 31.5925 14.7102 33.4487 17.6758 32.3693C19.1327 31.839 20.4697 31.4008 20.98 29.7927C21.5082 28.1276 21.4688 26.0833 20.7366 24.0719Z" fill="#9BD7EE"/>
<path d="M19.7079 30.5272C16.7423 31.6066 13.1716 29.2762 11.7325 25.3221C10.9996 23.3084 10.9574 21.2579 11.4876 19.5918C9.47031 21.2334 8.7857 24.6512 9.9975 27.9806C11.4366 31.9347 15.0073 34.2651 17.9729 33.1857C19.4282 32.656 20.4691 31.3982 20.9799 29.7927C20.6013 30.1007 20.1765 30.3566 19.7079 30.5272Z" fill="#7DC3EE"/>
<path d="M38.0029 27.9805C39.442 24.0265 38.2047 19.9461 35.2391 18.8667C34.7701 18.696 34.2859 18.6105 33.7974 18.6034C31.1974 18.5651 29.1196 21.8984 28.204 24.414C26.7649 28.368 27.3591 31.2897 30.3247 32.3691C31.7816 32.8994 33.0875 33.4231 34.512 32.5191C35.987 31.5833 37.2707 29.9919 38.0029 27.9805Z" fill="#FFC269"/>
<path d="M33.0654 32.2646C30.0999 31.1852 28.8625 27.1048 30.3017 23.1507C31.0345 21.1371 32.3203 19.5392 33.7974 18.6035C31.1969 18.5644 28.4756 20.7426 27.2638 24.072C25.8246 28.026 27.062 32.1064 30.0275 33.1858C31.4828 33.7155 33.0887 33.421 34.512 32.5195C34.024 32.5121 33.5339 32.435 33.0654 32.2646Z" fill="#FFA95F"/>
<path d="M29.7144 23.6821C29.7144 19.4743 27.156 16.0632 24.0002 16.0632C23.501 16.0632 23.0168 16.1485 22.5553 16.3089C20.099 17.1621 19.2867 21.0051 19.2867 23.6821C19.2867 27.8899 20.8443 30.4322 24.0002 30.4322C25.5506 30.4322 26.9568 30.4778 27.9863 29.1411C29.0523 27.7571 29.7144 25.8227 29.7144 23.6821Z" fill="#AFEFA5"/>
<path d="M26.5398 29.3965C23.3839 29.3965 20.8255 25.9853 20.8255 21.7776C20.8255 19.6347 21.4873 17.6934 22.5552 16.3091C20.0982 17.1617 18.2859 20.1393 18.2859 23.6824C18.2859 27.8902 20.8442 31.3013 24.0001 31.3013C25.5488 31.3013 26.957 30.4753 27.9863 29.1413C27.5252 29.3013 27.0384 29.3965 26.5398 29.3965Z" fill="#8CE1A4"/>
</svg>
