<svg width="48" height="48" viewBox="0 0 48 48" fill="none" xmlns="http://www.w3.org/2000/svg">
<rect width="48" height="48" fill="white"/>
<path d="M34.2883 34.485C27.3138 41.4594 16.9876 42.6319 10.2545 37.5491C10.6676 38.096 11.1166 38.6222 11.6124 39.1181C18.2103 45.716 29.6731 44.9519 37.2145 37.4112C44.7552 29.8698 45.5193 18.407 38.9207 11.8091C38.4255 11.3132 37.8993 10.8643 37.3524 10.4512C42.4352 17.1843 41.2628 27.5105 34.2883 34.485Z" fill="#F8CF63"/>
<path d="M35.9952 8.8828C42.5938 15.4814 41.8296 26.9435 34.2883 34.4849C26.7469 42.0262 15.2848 42.7904 8.6862 36.1918C2.08758 29.5931 2.85172 18.1311 10.3931 10.5897C17.9345 3.04831 29.3965 2.28418 35.9952 8.8828Z" fill="#FCE39F"/>
<path d="M19.9248 37.9227C16.309 37.9227 13.011 36.6151 10.6366 34.2413C5.12414 28.7289 5.88966 18.9937 12.3435 12.5406C15.7676 9.11579 20.2917 7.15234 24.7559 7.15234C28.3717 7.15234 31.6697 8.45993 34.0441 10.8337C39.5566 16.3461 38.791 26.0813 32.3372 32.5344C28.9138 35.9579 24.3897 37.9227 19.9248 37.9227Z" fill="#F8CF63"/>
<path d="M34.7559 33.9772L37.691 36.9124C38.009 36.5745 38.3159 36.2303 38.6076 35.8786L35.6772 32.9482C35.3855 33.2993 35.0731 33.6393 34.7559 33.9772Z" fill="#ECBB3A"/>
<path d="M32.2035 36.3013L35.14 39.2379C35.5021 38.9572 35.8566 38.6607 36.2048 38.3524L33.2731 35.4207C32.9235 35.7289 32.5662 36.02 32.2035 36.3013Z" fill="#ECBB3A"/>
<path d="M36.9283 31.2725L39.8628 34.2069C40.129 33.8138 40.3814 33.4152 40.6179 33.0118L37.6897 30.0835C37.4524 30.4869 37.1938 30.8814 36.9283 31.2725Z" fill="#ECBB3A"/>
<path d="M38.6827 28.1503L41.6207 31.0875C41.8283 30.631 42.0158 30.1696 42.1876 29.7048L39.2538 26.771C39.082 27.2351 38.8896 27.6944 38.6827 28.1503Z" fill="#ECBB3A"/>
<path d="M29.2552 38.2296L32.1903 41.1648C32.6062 40.94 33.0186 40.7041 33.4241 40.4475L30.4869 37.511C30.0814 37.7668 29.671 38.0048 29.2552 38.2296Z" fill="#ECBB3A"/>
<path d="M25.8503 39.7014L28.7848 42.6359C29.2628 42.4787 29.7393 42.3063 30.211 42.1111L27.2772 39.178C26.8055 39.3725 26.3297 39.5449 25.8503 39.7014Z" fill="#ECBB3A"/>
<path d="M20.9345 40.6379L23.8717 43.5751C24.4586 43.542 25.0483 43.4807 25.6379 43.391L22.6993 40.4524C22.1097 40.5414 21.5214 40.6055 20.9345 40.6379Z" fill="#ECBB3A"/>
<path d="M15.509 40.0884L18.4538 43.0332C19.24 43.2442 20.0441 43.3967 20.8607 43.4904L17.9172 40.5463C17.1 40.4511 16.2959 40.3008 15.509 40.0884Z" fill="#ECBB3A"/>
<path d="M40.1158 23.7317L43.0483 26.6641C43.16 26.1 43.2462 25.5352 43.3055 24.971L40.3696 22.0352C40.3103 22.6007 40.2269 23.1662 40.1158 23.7317Z" fill="#ECBB3A"/>
<path d="M43.3814 22.1208C43.3421 21.3767 43.26 20.6394 43.1262 19.9153L40.1738 16.9629C40.311 17.6974 40.4166 18.4401 40.4559 19.1953L43.3814 22.1208Z" fill="#ECBB3A"/>
<path d="M30.3628 19.776C30.1979 15.7615 27.2407 14.2112 22.709 14.2063C22.5083 14.2063 22.311 14.2126 22.1172 14.2257C20.7055 14.3188 19.391 14.0946 18.4407 13.4519C18.0572 13.1919 17.751 12.9194 17.5572 12.6346C17.4697 12.505 17.2262 12.5946 17.2131 12.7601C17.191 13.0457 17.1759 13.3801 17.1814 13.7484C17.2007 15.1436 17.0621 14.936 16.2124 16.2526C15.7428 16.9808 15.3676 17.7974 15.0883 18.6753C14.4703 18.9277 13.9676 19.4691 13.8235 20.1353L13.6331 21.0188C13.4607 21.8174 13.8414 22.5691 14.5235 22.9036C14.6276 24.8912 15.3621 26.6691 17.1262 27.9139L16.9048 29.1153C16.8476 29.4257 16.6235 29.6684 16.329 29.7408L12.2117 30.7443C11.1414 31.0588 10.3228 32.0001 10.0524 33.2201L9.98828 33.5105C10.1986 33.7574 10.4041 34.0084 10.6372 34.2408C13.011 36.6153 16.3097 37.9229 19.9255 37.9229C23.0062 37.9229 26.1159 36.9863 28.8731 35.2808L24.1766 31.6567C23.869 31.4188 23.7069 31.0553 23.7552 30.7132L23.9435 29.3629C26.5793 28.8988 28.3186 27.2539 29.3324 24.9905C30.5145 24.8546 31.4683 24.0794 31.5683 23.0312L31.6779 21.8767C31.7614 21.0043 31.2083 20.2126 30.3628 19.776Z" fill="#FCE39F"/>
</svg>
