<svg width="48" height="48" viewBox="0 0 48 48" fill="none" xmlns="http://www.w3.org/2000/svg">
<rect width="48" height="48" fill="white"/>
<g clip-path="url(#clip0)">
<path d="M24.1436 13.6732C25.6897 13.6732 26.7273 12.3577 26.7273 10.8316C26.7273 6.98125 24.0049 4 24.0049 4C24.0049 4 21.2825 6.98125 21.2825 10.8315C21.2825 12.3577 22.32 13.6731 23.8661 13.6731H24.1436V13.6732Z" fill="#FFD77A"/>
<path d="M24.0049 16.7164C23.6525 16.7164 23.3668 16.4307 23.3668 16.0782V11.5082C23.3668 11.1558 23.6525 10.8701 24.0049 10.8701C24.3573 10.8701 24.643 11.1558 24.643 11.5082V16.0782C24.643 16.4307 24.3573 16.7164 24.0049 16.7164Z" fill="#43434D"/>
<path d="M25.1902 16.0781H22.8198C22.219 16.0781 21.7319 16.5652 21.7319 17.166V23.9753H26.278V17.166C26.278 16.5652 25.7909 16.0781 25.1902 16.0781Z" fill="#DDE1ED"/>
<path opacity="0.1" d="M24.5214 16.0781H22.8197C22.2189 16.0781 21.7318 16.5652 21.7318 17.166V23.9753H23.4335V17.166C23.4335 16.5652 23.9206 16.0781 24.5214 16.0781Z" fill="black"/>
<path d="M13.5643 27.3738C13.5643 28.2585 11.0177 29.451 11.0335 30.7221C11.0664 33.3738 11.1424 36.3682 11.2978 37.6274C11.7477 41.2737 14.8685 44.0001 18.5425 44.0001H29.4675C33.1414 44.0001 36.2624 41.2737 36.7122 37.6274C36.8642 36.3949 36.9402 33.4998 36.9742 30.8909C36.9916 29.5568 34.4456 28.2976 34.4456 27.3738H13.5643Z" fill="#FFB969"/>
<path opacity="0.1" d="M36.9742 30.8909C36.9916 29.5568 34.4456 28.2976 34.4456 27.3738H13.5644C13.5644 28.2585 11.0178 29.451 11.0336 30.7221C11.0517 32.1845 11.083 33.7503 11.1335 35.0727C11.5297 35.1882 11.9417 35.2579 12.3626 35.2769C12.4436 35.2805 12.525 35.2824 12.607 35.2824C13.6522 35.2824 14.6288 34.9842 15.4565 34.4681C16.2842 34.9841 17.2608 35.2824 18.306 35.2824C19.3512 35.2824 20.3278 34.9842 21.1555 34.4681C21.9833 34.9841 22.9598 35.2824 24.0051 35.2824C25.0502 35.2824 26.0269 34.9842 26.8545 34.4681C27.6823 34.9841 28.6588 35.2824 29.7041 35.2824C30.7493 35.2824 31.7258 34.9842 32.5536 34.4681C33.3813 34.9841 34.3579 35.2824 35.4031 35.2824C35.4851 35.2824 35.5666 35.2805 35.6484 35.2768C36.0705 35.2578 36.4817 35.1887 36.8765 35.0745C36.9249 33.8025 36.9557 32.3049 36.9742 30.8909Z" fill="black"/>
<path d="M38.002 29.0958L37.9109 28.8108C37.0312 26.776 34.0007 22.5479 24.0049 22.5479C14.0092 22.5479 10.9786 26.776 10.0989 28.8108C9.32962 30.5904 10.5396 32.6396 12.4764 32.7268C12.5196 32.7287 12.5631 32.7296 12.6069 32.7296C14.1806 32.7296 15.4564 31.4539 15.4564 29.8801C15.4564 31.4539 16.7322 32.7296 18.3059 32.7296C19.8797 32.7296 21.1555 31.4539 21.1555 29.8801C21.1555 31.4539 22.4313 32.7296 24.005 32.7296C25.5788 32.7296 26.8545 31.4539 26.8545 29.8801C26.8545 31.4539 28.1303 32.7296 29.7041 32.7296C31.2778 32.7296 32.5536 31.4539 32.5536 29.8801C32.5536 31.4539 33.8294 32.7296 35.4031 32.7296C35.4469 32.7296 35.4903 32.7286 35.5335 32.7268C37.3421 32.6454 38.5529 30.8205 38.002 29.0958Z" fill="#FFD9E8"/>
<path d="M17.5376 25.1017C18.4622 25.1017 19.2117 24.3522 19.2117 23.4276C19.2117 22.503 18.4622 21.7534 17.5376 21.7534C16.613 21.7534 15.8635 22.503 15.8635 23.4276C15.8635 24.3522 16.613 25.1017 17.5376 25.1017Z" fill="#FFB969"/>
<path d="M24.0004 28.4625C24.925 28.4625 25.6746 27.713 25.6746 26.7884C25.6746 25.8638 24.925 25.1143 24.0004 25.1143C23.0758 25.1143 22.3263 25.8638 22.3263 26.7884C22.3263 27.713 23.0758 28.4625 24.0004 28.4625Z" fill="#AF9CE6"/>
<path d="M10.5209 29.3134C11.4455 29.3134 12.1951 28.5638 12.1951 27.6392C12.1951 26.7146 11.4455 25.9651 10.5209 25.9651C9.59634 25.9651 8.8468 26.7146 8.8468 27.6392C8.8468 28.5638 9.59634 29.3134 10.5209 29.3134Z" fill="#FFA0C1"/>
<path d="M30.4624 25.1017C31.387 25.1017 32.1366 24.3522 32.1366 23.4276C32.1366 22.503 31.387 21.7534 30.4624 21.7534C29.5378 21.7534 28.7883 22.503 28.7883 23.4276C28.7883 24.3522 29.5378 25.1017 30.4624 25.1017Z" fill="#61CCFF"/>
<path d="M37.4791 29.3134C38.4037 29.3134 39.1532 28.5638 39.1532 27.6392C39.1532 26.7146 38.4037 25.9651 37.4791 25.9651C36.5545 25.9651 35.8049 26.7146 35.8049 27.6392C35.8049 28.5638 36.5545 29.3134 37.4791 29.3134Z" fill="#8CCC78"/>
</g>
<defs>
<clipPath id="clip0">
<rect width="40" height="40" fill="white" transform="translate(4 4)"/>
</clipPath>
</defs>
</svg>
