<svg width="48" height="48" viewBox="0 0 48 48" fill="none" xmlns="http://www.w3.org/2000/svg">
<rect width="48" height="48" fill="white"/>
<path d="M18.1451 19.4201H7.71153C7.69252 19.1716 7.75396 18.9175 7.89629 18.6969L12.0274 12.3039C12.1402 12.1284 12.2958 11.9896 12.4748 11.8977L18.1451 19.4201Z" fill="#A0CAFE"/>
<path d="M40.3541 19.4201H29.9206L35.5909 11.8977C35.7699 11.9896 35.9251 12.1284 36.0382 12.3039L40.1694 18.6969C40.3117 18.9175 40.3731 19.1716 40.3541 19.4201Z" fill="#A0CAFE"/>
<path d="M29.9206 19.4199L24.0328 11.7659L18.1451 19.4199H29.9206Z" fill="#81B8FD"/>
<path d="M29.9206 19.4199L24.2353 38.8654C24.1014 38.8888 23.9648 38.8888 23.8304 38.8654L18.1451 19.4199H29.9206Z" fill="#A0CAFE"/>
<path d="M23.8303 38.8654C23.5665 38.8195 23.3154 38.6842 23.1297 38.4605L7.97187 20.0781C7.81628 19.8863 7.72787 19.6555 7.71152 19.4199H18.145L23.8303 38.8654Z" fill="#C0DBFF"/>
<path d="M40.3541 19.4199C40.3377 19.6555 40.2493 19.8863 40.0937 20.0781L24.9359 38.4605C24.7502 38.6842 24.4991 38.8195 24.2353 38.8654L29.9206 19.4199H40.3541Z" fill="#81B8FD"/>
<path d="M35.5908 11.8976L29.9206 19.4199L24.0328 11.7659H35.0502C35.2421 11.7659 35.426 11.8118 35.5908 11.8976Z" fill="#C0DBFF"/>
<path d="M24.0328 11.7659L18.145 19.4199L12.4748 11.8976C12.6396 11.8118 12.8235 11.7659 13.0154 11.7659H24.0328Z" fill="#C0DBFF"/>
<path d="M36.634 5.93843C38.0922 6.71772 38.8627 7.86035 39.2654 8.77136C39.4298 9.14266 39.9593 9.14266 40.1233 8.77136C40.5264 7.86035 41.2969 6.71772 42.7551 5.93843C43.084 5.7625 43.084 5.28733 42.7551 5.1114C41.2969 4.33212 40.5264 3.18949 40.1233 2.27847C39.9593 1.90718 39.4298 1.90718 39.2654 2.27847C38.8627 3.18949 38.0922 4.33167 36.634 5.1114C36.3047 5.28733 36.3047 5.7625 36.634 5.93843Z" fill="#FCE39F"/>
<path d="M43.6334 13.8208C44.4803 14.3234 44.9825 14.9926 45.2791 15.5827C45.4537 15.9306 45.947 15.9306 46.1216 15.5827C46.4182 14.9926 46.9203 14.3234 47.7672 13.8208C48.0775 13.6369 48.0775 13.1918 47.7672 13.0079C46.9203 12.5053 46.4182 11.8361 46.1216 11.246C45.947 10.8981 45.4537 10.8981 45.2791 11.246C44.9825 11.8361 44.4803 12.5053 43.6334 13.0079C43.3231 13.1918 43.3231 13.6369 43.6334 13.8208Z" fill="#FCE39F"/>
<path d="M0.246649 29.7255C1.70488 30.5048 2.47533 31.6475 2.87846 32.5585C3.04289 32.9298 3.57199 32.9298 3.73642 32.5585C4.13911 31.6475 4.90956 30.5048 6.36779 29.7255C6.6971 29.5496 6.6971 29.0744 6.36779 28.8985C4.90956 28.1192 4.13911 26.9766 3.73642 26.0656C3.57199 25.6943 3.04289 25.6943 2.87846 26.0656C2.47533 26.9766 1.70488 28.1192 0.246649 28.8985C-0.0822164 29.0744 -0.0822164 29.5496 0.246649 29.7255Z" fill="#FCE39F"/>
<path d="M9.36607 38.3149C10.213 38.8171 10.7151 39.4863 11.0117 40.0768C11.1863 40.4247 11.6792 40.4247 11.8542 40.0768C12.1508 39.4863 12.653 38.8171 13.4999 38.3149C13.8102 38.1311 13.8102 37.6859 13.4999 37.5016C12.653 36.9995 12.1508 36.3303 11.8542 35.7402C11.6792 35.3923 11.1863 35.3923 11.0117 35.7402C10.7151 36.3303 10.213 36.9995 9.36607 37.5016C9.05533 37.6859 9.05533 38.1311 9.36607 38.3149Z" fill="#FCE39F"/>
</svg>
