<svg width="48" height="48" viewBox="0 0 48 48" fill="none" xmlns="http://www.w3.org/2000/svg">
<rect width="48" height="48" fill="white"/>
<g clipPath="url(#clip0)">
<path d="M36.6666 7.99954H28.2091C26.6165 7.99504 25.0882 8.62786 23.965 9.75689L9.13665 24.5866C7.62112 26.1036 7.62112 28.5617 9.13665 30.0787L17.9195 38.8629C19.4366 40.3784 21.8946 40.3784 23.4116 38.8629L38.2427 24.0333C39.364 22.9055 39.9956 21.3809 40 19.7905V11.333C40 9.49201 38.5076 7.99954 36.6666 7.99954ZM32.6665 18.6665C30.8256 18.6665 29.3331 17.174 29.3331 15.3331C29.3331 13.4921 30.8256 11.9996 32.6665 11.9996C34.5075 11.9996 35.9999 13.492 35.9999 15.333C35.9999 17.174 34.5075 18.6665 32.6665 18.6665Z" fill="#F5D88B"/>
<path d="M21.9996 32.0005C21.6314 32.0005 21.3329 31.702 21.3329 31.3338V20.6669C21.3329 20.2988 21.6314 20.0002 21.9996 20.0002C22.3678 20.0002 22.6663 20.2988 22.6663 20.6669V31.3339C22.6663 31.7021 22.3678 32.0005 21.9996 32.0005Z" fill="#FAFAFA"/>
<path d="M17.9995 26.6671C16.8949 26.6671 15.9995 25.7716 15.9995 24.667C15.9995 23.5624 16.8949 22.667 17.9995 22.667C19.1041 22.667 19.9996 23.5624 19.9996 24.667C19.9996 25.7716 19.1041 26.6671 17.9995 26.6671ZM17.9995 24.0003C17.6313 24.0003 17.3328 24.2988 17.3328 24.667C17.3328 25.0352 17.6313 25.3337 17.9995 25.3337C18.3677 25.3337 18.6662 25.0352 18.6662 24.667C18.6662 24.2988 18.3677 24.0003 17.9995 24.0003Z" fill="#FAFAFA"/>
<path d="M25.9997 29.3338C24.8951 29.3338 23.9996 28.4384 23.9996 27.3338C23.9996 26.2292 24.8951 25.3337 25.9997 25.3337C27.1043 25.3337 27.9997 26.2292 27.9997 27.3338C27.9997 28.4384 27.1043 29.3338 25.9997 29.3338ZM25.9997 26.6671C25.6315 26.6671 25.333 26.9656 25.333 27.3338C25.333 27.702 25.6315 28.0005 25.9997 28.0005C26.3679 28.0005 26.6664 27.702 26.6664 27.3338C26.6664 26.9656 26.3679 26.6671 25.9997 26.6671Z" fill="#FAFAFA"/>
</g>
<defs>
<clipPath id="clip0">
<rect width="32" height="32" fill="white" transform="translate(8 8)"/>
</clipPath>
</defs>
</svg>
