<?xml version="1.0" encoding="UTF-8"?>
<svg width="192px" height="48px" viewBox="0 0 192 48" version="1.1" xmlns="http://www.w3.org/2000/svg" xmlns:xlink="http://www.w3.org/1999/xlink">
    <!-- Generator: Sketch 63.1 (92452) - https://sketch.com -->
    <title>american-express</title>
    <desc>Created with Sketch.</desc>
    <g id="american-express" stroke="none" stroke-width="1" fill="none" fill-rule="evenodd">
        <path d="M126.352408,4 L65.6475921,4 C64.7365439,4 64,4.72920252 64,5.62866432 L64,43.3702156 C64,44.2696773 64.7365439,45 65.6475921,45 L126.352408,45 C127.263456,45 128,44.2707975 128,43.3713357 L128,5.62866432 C128,4.72920252 127.263456,4 126.352408,4 Z M79.7439093,22.733 L79.5535411,22.3062317 L79.5535411,22.3297544 C79.5535411,22.8774964 79.1036827,23.3221867 78.5495751,23.3221867 L75.5932011,23.3221867 C75.1852691,23.3221867 74.8192635,23.0791192 74.6640227,22.7072371 L74.3614731,21.981395 L72.6776204,21.981395 L72.3705382,22.7117176 C72.2164306,23.0813595 71.8492918,23.3233068 71.4458924,23.3233068 L69.866289,23.3233068 C69.5286119,23.3233068 69.2135977,23.1552878 69.027762,22.8774964 C68.8430595,22.5974647 68.8101983,22.2457449 68.9439093,21.9399503 L71.5456091,15.9282299 C71.7031161,15.5641887 72.0668555,15.3267219 72.4691218,15.3267219 L74.6266289,15.3267219 C75.0288952,15.3267219 75.3903683,15.5630686 75.5501416,15.9271098 L76.0951841,17.183892 L76.0951841,16.3202743 C76.0951841,15.7725323 76.5439093,15.327842 77.0991501,15.327842 L79.4730878,15.327842 C79.8628895,15.327842 80.21983,15.5541076 80.3852691,15.9047073 L81.3359773,17.9455782 L82.1994334,15.9338306 C82.3558074,15.566429 82.7206799,15.327842 83.121813,15.327842 L85.5444759,15.327842 C85.7484419,15.327842 85.9263456,15.4028905 86.086119,15.5059421 C86.2447592,15.4028905 86.4226629,15.327842 86.627762,15.327842 L91.482153,15.327842 C91.670255,15.327842 91.8368272,15.3928093 91.9852691,15.4812993 C92.1359773,15.3928093 92.3014164,15.327842 92.4895184,15.327842 L95.8322946,15.327842 C96.6968839,15.327842 97.411898,15.3580854 98.0951841,15.7478895 C98.1643059,15.7893342 98.2141643,15.8419802 98.2764873,15.8867852 C98.4396601,15.5597082 98.7750708,15.327842 99.1705382,15.327842 L100.653824,15.327842 C101.155807,15.327842 101.554674,15.6974838 101.628329,16.1712974 C102.278754,15.6145944 103.164873,15.327842 104.356941,15.327842 L105.763173,15.327842 C105.986402,15.327842 106.196034,15.4006502 106.362606,15.5249843 C106.531445,15.3995301 106.741076,15.327842 106.963173,15.327842 L109.139943,15.327842 C109.541076,15.327842 109.90255,15.5653089 110.062323,15.9293501 L110.596034,17.1637297 L110.596034,16.3202743 C110.596034,15.7725323 111.045892,15.327842 111.601133,15.327842 L113.814164,15.327842 C114.166572,15.327842 114.491785,15.5093025 114.673088,15.8072562 L115.364306,16.9397044 L115.364306,16.3191542 C115.364306,15.7714122 115.815297,15.3267219 116.370538,15.3267219 L117.857224,15.3267219 C118.412465,15.3267219 118.86119,15.7714122 118.86119,16.3191542 L118.86119,22.3308745 C118.86119,22.8786165 118.410198,23.3233068 117.857224,23.3233068 L115.799433,23.3233068 C115.444759,23.3233068 115.119547,23.1418463 114.93711,22.8438926 L114.045326,21.3821271 L114.045326,22.3308745 C114.045326,22.8786165 113.594334,23.3233068 113.04136,23.3233068 L110.08272,23.3233068 C109.678187,23.3233068 109.314448,23.0824796 109.155807,22.7128377 L108.848725,21.9825151 L107.173938,21.9825151 L106.877054,22.7027566 C106.726346,23.0779991 106.356941,23.324427 105.950142,23.324427 L104.248159,23.324427 C103.601133,23.324427 102.443059,23.2090539 101.616997,22.5246564 C101.522946,22.9771877 101.137677,23.324427 100.651558,23.324427 L99.1671388,23.324427 C99.0028329,23.324427 98.8521246,23.2751414 98.7127479,23.2045734 C98.5756374,23.2751414 98.4271955,23.324427 98.2617564,23.324427 L96.7954674,23.324427 C96.2436261,23.324427 95.7949008,22.8842171 95.7903683,22.3398355 L95.7847025,21.5815097 L95.7869688,21.4493348 C95.7869688,21.3686856 95.7892351,21.2477119 95.7824363,21.1457804 C95.7155807,21.1412999 95.6260623,21.1379395 95.5002833,21.1379395 L94.9461756,21.1379395 L94.9461756,22.3319946 C94.9461756,22.8797366 94.4963173,23.324427 93.9422096,23.324427 L92.4872521,23.324427 C92.2991501,23.324427 92.1348442,23.2594596 91.9830028,23.1709696 C91.8345609,23.2594596 91.6679887,23.324427 91.4798867,23.324427 L86.6254958,23.324427 C86.4203966,23.324427 86.2424929,23.2482583 86.0838527,23.1463268 C85.9240793,23.2482583 85.7461756,23.324427 85.5422096,23.324427 L84.0521246,23.324427 C83.4968839,23.324427 83.0481586,22.8808568 83.0481586,22.3331148 L83.0481586,22.308472 L82.8555241,22.7341202 C82.6946176,23.0936808 82.3365439,23.3255471 81.9376771,23.3255471 L80.6606232,23.3255471 C80.2640227,23.3255471 79.9036827,23.0925607 79.7439093,22.733 Z M119.853824,33.6699178 L117.023229,33.6699178 C116.608499,33.6699178 116.253824,33.4201295 116.099717,33.0661694 C115.547875,33.4526132 114.81813,33.6699178 113.915014,33.6699178 L111.084419,33.6699178 C110.924646,33.6699178 110.78187,33.6262328 110.648159,33.5623856 C110.515581,33.6262328 110.371671,33.6699178 110.213031,33.6699178 L105.363173,33.6699178 C105.201133,33.6699178 105.052691,33.6262328 104.91898,33.5579051 C104.784136,33.6239926 104.63796,33.6699178 104.477054,33.6699178 L103.018697,33.6699178 C102.462323,33.6699178 102.013598,33.2252274 102.013598,32.6774855 L102.013598,31.8037866 C102.015864,31.7186569 102.015864,31.5887222 102.009065,31.4823102 C101.94221,31.4778297 101.848159,31.4733492 101.714448,31.4733492 L101.166006,31.4733492 L101.166006,32.6774855 C101.166006,33.2263476 100.716147,33.6699178 100.16204,33.6699178 L98.7014164,33.6699178 C98.1450425,33.6699178 97.6963173,33.2252274 97.6963173,32.6774855 L97.6963173,31.1496325 C97.1807365,31.4531869 96.4691218,31.6525695 95.4878187,31.6525695 L94.6798867,31.6525695 L94.6798867,32.6774855 C94.6798867,33.2263476 94.2300283,33.6699178 93.6747875,33.6699178 L90.8498584,33.6699178 C90.5631728,33.6699178 90.2889518,33.5489441 90.0985836,33.3372401 L89.0458924,32.1655875 L87.9365439,33.3529219 C87.7461756,33.5556648 87.4798867,33.672158 87.2,33.672158 L81.4424929,33.672158 C80.8872521,33.672158 80.4385269,33.2263476 80.4385269,32.6786056 L80.4385269,26.6668852 C80.4385269,26.116903 80.8883853,25.6733328 81.4424929,25.6733328 L87.2872521,25.6733328 C87.5739377,25.6733328 87.8447592,25.7920662 88.0339943,26.0026501 L89.090085,27.1642215 L90.1903683,25.9903287 C90.3807365,25.7875857 90.6470255,25.6733328 90.9269122,25.6733328 L95.5705382,25.6733328 C96.588102,25.6733328 97.3042493,25.896238 97.8130312,26.2255553 C97.9773371,25.9007185 98.3082153,25.6733328 98.7014164,25.6733328 L102.05779,25.6733328 C102.830595,25.6733328 103.57847,25.7024561 104.279887,26.073218 C104.355807,26.116903 104.404533,26.1740295 104.474788,26.2210748 C104.640227,25.8995984 104.967705,25.6733328 105.359773,25.6733328 L110.209632,25.6733328 C110.585836,25.6733328 110.903116,25.887277 111.075354,26.1908314 C111.553541,25.8704751 112.188102,25.6733328 112.988102,25.6733328 L115.900283,25.6733328 C116.33881,25.6733328 116.69915,25.9522444 116.838527,26.3364478 C117.33711,25.9365626 118.01813,25.6733328 118.925779,25.6733328 L121.840227,25.6733328 C122.394334,25.6733328 122.843059,26.1180231 122.843059,26.6668852 L122.843059,27.94607 C122.843059,28.2966697 122.661756,28.6047045 122.384136,28.7816846 C122.392068,28.7906456 122.403399,28.8007267 122.413598,28.8108079 C122.912181,29.3171052 123.13881,29.9421359 123.13881,30.782231 C123.13881,32.5901156 121.911615,33.672158 119.853824,33.6699178 Z" id="Shape" fill="#ED4597" fill-rule="nonzero"></path>
        <path d="M97.2162082,20.1623053 C97.6113576,20.012915 98.2857143,19.5115521 98.2857143,18.5439103 C98.2857143,17.8659952 97.9970423,17.4698845 97.5190772,17.1982658 C97.0269151,16.9266471 96.4554865,16.9074074 95.6805679,16.9074074 L92.1904762,16.9074074 L92.1904762,22.9814815 L93.7095534,22.9814815 L93.7095534,20.7734475 L95.336291,20.7734475 C95.8828749,20.7734475 96.2212363,20.819849 96.4424726,21.032617 C96.7181307,21.3246072 96.6814552,21.8497367 96.6814552,22.2152903 L96.6885537,22.9814815 L98.2194617,22.9814815 L98.2194617,21.7874908 C98.2194617,21.245385 98.1827862,20.9760298 97.9674652,20.6738539 C97.8325939,20.49617 97.5486542,20.283402 97.2162082,20.1623053 Z M96.302869,19.3972459 C96.0922804,19.5183425 95.8461993,19.5217378 95.5516119,19.5217378 L93.7071872,19.5217378 L93.7083703,18.1738298 L95.5776398,18.1738298 C95.8402839,18.1738298 96.1171251,18.186279 96.2969536,18.283609 C96.4933452,18.3718851 96.6152026,18.5597547 96.6152026,18.820056 C96.6152026,19.0848843 96.4980775,19.2987841 96.302869,19.3972459 Z" id="Shape" fill="#ED4597" fill-rule="nonzero"></path>
        <rect id="Rectangle" fill="#ED4597" fill-rule="nonzero" x="99.047619" y="16.9074074" width="1.52380952" height="6.07407407"></rect>
        <path d="M116.584513,16.9074074 L116.584513,21.1378693 L113.986804,16.9074074 L111.737989,16.9074074 L111.737989,22.6521438 L109.237003,16.9074074 L107.025035,16.9074074 L104.938576,21.6833703 L104.276483,21.6833703 C103.890741,21.6833703 103.47391,21.6109386 103.247071,21.369877 C102.969568,21.0643059 102.840604,20.5946318 102.840604,19.9450103 C102.840604,19.3067063 103.012172,18.824583 103.264343,18.5688087 C103.556816,18.288136 103.859652,18.2089139 104.401993,18.2089139 L105.801025,18.2089139 L105.801025,16.9074074 L104.372055,16.9074074 C103.354158,16.9074074 102.604553,17.1303611 102.128997,17.6147479 C101.49569,18.2655011 101.333333,19.0894113 101.333333,19.9902801 C101.333333,21.0937312 101.60508,21.7931495 102.125543,22.3092251 C102.639097,22.824169 103.547604,22.9803497 104.267271,22.9814815 L105.996775,22.9814815 L106.551782,21.626783 L109.61929,21.626783 L110.195023,22.9814815 L113.201503,22.9814815 L113.201503,18.4228136 L116.004174,22.9814815 L118.095238,22.9814815 L118.095238,16.9074074 L116.584513,16.9074074 L116.584513,16.9074074 Z M107.080305,20.3592289 L108.094747,17.9384269 L109.118402,20.3592289 L107.080305,20.3592289 Z" id="Shape" fill="#ED4597" fill-rule="nonzero"></path>
        <path d="M104.774857,19.1852119 C104.544762,19.1840429 104.521143,19.2214499 104.492952,19.2623639 C104.48381,19.2822364 104.415238,19.5078476 104.415238,19.9427043 C104.415238,20.3728852 104.46019,20.5797929 104.492952,20.6733105 C104.527238,20.6873381 104.590476,20.7037037 104.684952,20.7037037 L105.108571,19.1852119 L104.774857,19.1852119 Z" id="Path" fill="#ED4597" fill-rule="nonzero"></path>
        <polygon id="Path" fill="#ED4597" fill-rule="nonzero" points="110.47619 28.0337804 110.47619 26.7777778 105.904762 26.7777778 105.904762 32.8518519 110.47619 32.8518519 110.47619 31.5924546 107.267646 31.5845339 107.267646 30.3783187 110.397152 30.3783187 110.397152 29.1381575 107.267646 29.1381575 107.267646 28.0337804"></polygon>
        <path d="M95.809641,26.7777895 L91.1141536,26.7777895 L89.2442083,28.7674009 L87.4338447,26.7777895 L81.5238095,26.7777895 L81.5238095,32.8518519 L87.3456181,32.8518519 L89.2270213,30.8407492 L91.037385,32.8518519 L93.8938638,32.8518519 L93.8938638,30.8147192 L95.7271434,30.8147192 C97.0115849,30.8147192 98.2857143,30.4661432 98.2857143,28.7787183 C98.2857143,27.0969521 96.9760652,26.7755378 95.809641,26.7777895 Z M86.6019941,31.5876979 L82.9904332,31.5876979 L82.9904332,30.3789992 L86.2158596,30.3789992 L86.2158596,29.1386117 L82.9904332,29.1386117 L82.9904332,28.0340331 L86.6741795,28.0340331 L88.2817365,29.8029433 L86.6019941,31.5876979 Z M92.4295317,32.2995626 L90.1723061,29.8233146 L92.4295317,27.428552 L92.4295317,32.2995626 Z M95.7913082,29.5788725 L93.8938638,29.5788725 L93.8938638,28.0317696 L95.809641,28.0317696 C96.3412921,28.0317696 96.707948,28.2456686 96.707948,28.7775865 C96.707948,29.3038458 96.3573333,29.5811222 95.7913082,29.5788725 Z" id="Shape" fill="#ED4597" fill-rule="nonzero"></path>
        <path d="M104.067574,30.0292804 C104.464166,29.8776266 105.140496,29.3841859 105.142857,28.4120172 C105.142857,27.7193894 104.841872,27.3391232 104.366198,27.0629775 C103.865737,26.8083349 103.30862,26.7777778 102.542584,26.7777778 L99.047619,26.7777778 L99.047619,32.8518519 L100.567888,32.8518519 L100.567888,30.6336321 L102.184943,30.6336321 C102.737339,30.6336321 103.073734,30.6856924 103.295636,30.9029874 C103.576556,31.1859236 103.539965,31.7268976 103.539965,32.0924511 L103.539965,32.8518519 L105.059054,32.8518519 L105.059054,31.6476754 C105.054332,31.1123602 105.023644,30.8362145 104.807643,30.5396973 C104.680167,30.3642769 104.402789,30.1469819 104.067574,30.0292804 Z M103.155177,29.2744067 C102.95216,29.3898447 102.700749,29.4000304 102.405666,29.4000304 L100.565527,29.4000304 L100.565527,28.0351462 L102.430453,28.0351462 C102.697208,28.0351462 102.968684,28.0408049 103.152816,28.1449254 C103.348751,28.2433872 103.465604,28.4323886 103.465604,28.6915582 C103.465604,28.9507277 103.348751,29.162364 103.155177,29.2744067 Z" id="Shape" fill="#ED4597" fill-rule="nonzero"></path>
        <path d="M116.13146,29.6472854 C115.794341,29.3167543 115.248095,29.1809196 114.452723,29.1628084 L113.66535,29.1401692 C113.415083,29.1401692 113.250523,29.1243219 113.093963,29.0711199 C112.909976,29.0020707 112.773986,28.8481247 112.773986,28.6183377 C112.773986,28.4259052 112.83341,28.2798829 112.995684,28.1802708 C113.141959,28.0817907 113.314518,28.0704711 113.583071,28.0704711 L116.270879,28.0704711 L116.270879,26.7777778 L113.333946,26.7777778 C111.79577,26.7777778 111.238095,27.7037175 111.238095,28.5866429 C111.238095,30.5075717 112.955687,30.421543 114.324732,30.4656893 C114.581856,30.4656893 114.734988,30.5075717 114.84698,30.600392 C114.94983,30.6864207 115.025253,30.8245193 115.025253,31.0022363 C115.025253,31.1675018 114.954401,31.3056004 114.853837,31.3984208 C114.730417,31.5138803 114.532717,31.5489709 114.256165,31.5489709 L111.41294,31.5489709 L111.41294,32.8518519 L114.267593,32.8518519 C115.745202,32.8518519 116.571429,32.2417278 116.571429,30.934319 C116.571429,30.3106114 116.417154,29.9393299 116.13146,29.6472854 Z" id="Path" fill="#ED4597" fill-rule="nonzero"></path>
        <path d="M83.6228472,16.9074074 L81.8408293,21.02809 L79.8992277,16.9074074 L77.4777186,16.9074074 L77.4777186,22.6589342 L74.9532896,16.9074074 L72.7514971,16.9074074 L70.0952381,22.9814815 L71.7061083,22.9814815 L72.2819973,21.626783 L75.3695948,21.626783 L75.9397018,22.9814815 L78.9579152,22.9814815 L78.9579152,18.2202313 L81.112295,22.9803497 L82.4178747,22.9814815 L84.5687854,18.2247583 L84.5745674,22.9814815 L86.0952381,22.9814815 L86.0952381,16.9074074 L83.6228472,16.9074074 L83.6228472,16.9074074 Z M72.8104737,20.3614924 L73.8188576,17.9406904 L74.8330236,20.3614924 L72.8104737,20.3614924 Z" id="Shape" fill="#ED4597" fill-rule="nonzero"></path>
        <polygon id="Path" fill="#ED4597" fill-rule="nonzero" points="91.4285714 18.1724623 91.4285714 16.9074074 86.8571429 16.9074074 86.8571429 22.9814815 91.4285714 22.9814815 91.4285714 21.7254788 88.2251567 21.7254788 88.2251567 20.5113429 91.3528078 20.5113429 91.3528078 19.2677872 88.2251567 19.2677872 88.2251567 18.1724623"></polygon>
        <path d="M122.226698,29.6472854 C121.891865,29.3167543 121.344475,29.1809196 120.549104,29.1628084 L119.760589,29.1401692 C119.512606,29.1401692 119.346904,29.1243219 119.189201,29.0711199 C119.007499,29.0020707 118.870366,28.8481247 118.870366,28.6183377 C118.870366,28.4259052 118.929791,28.2798829 119.090922,28.1802708 C119.23834,28.0817907 119.412042,28.0704711 119.679451,28.0704711 L122.368402,28.0704711 L122.368402,26.7777778 L119.429184,26.7777778 C117.893293,26.7777778 117.333333,27.7037175 117.333333,28.5866429 C117.333333,30.5075717 119.052068,30.421543 120.422256,30.4656893 C120.678237,30.4656893 120.830226,30.5075717 120.944504,30.600392 C121.045068,30.6864207 121.121634,30.8245193 121.121634,31.0022363 C121.121634,31.1675018 121.049639,31.3056004 120.951361,31.3984208 C120.826798,31.5138803 120.629098,31.5489709 120.352546,31.5489709 L117.510464,31.5489709 L117.510464,32.8518519 L120.365117,32.8518519 C121.842726,32.8518519 122.666667,32.2417278 122.666667,30.934319 C122.666667,30.3106114 122.514678,29.9393299 122.226698,29.6472854 Z" id="Path" fill="#ED4597" fill-rule="nonzero"></path>
    </g>
</svg>