<?xml version="1.0" encoding="UTF-8"?>
<svg width="192px" height="48px" viewBox="0 0 192 48" version="1.1" xmlns="http://www.w3.org/2000/svg" xmlns:xlink="http://www.w3.org/1999/xlink">
    <!-- Generator: Sketch 63.1 (92452) - https://sketch.com -->
    <title>mastercard</title>
    <desc>Created with Sketch.</desc>
    <g id="mastercard" stroke="none" stroke-width="1" fill="none" fill-rule="evenodd">
        <path d="M75.1129032,25.7934783 C74.3967742,26.2717391 74.1580645,27.1086957 74.9935484,27.3478261 C75.7096774,27.5869565 76.6645161,27.1086957 76.9032258,26.3913043 L77.0225806,25.5543478 C76.6645161,25.5543478 75.8290323,25.3152174 75.1129032,25.7934783 Z M75.1129032,25.7934783 C74.3967742,26.2717391 74.1580645,27.1086957 74.9935484,27.3478261 C75.7096774,27.5869565 76.6645161,27.1086957 76.9032258,26.3913043 L77.0225806,25.5543478 C76.6645161,25.5543478 75.8290323,25.3152174 75.1129032,25.7934783 Z M75.1129032,25.7934783 C74.3967742,26.2717391 74.1580645,27.1086957 74.9935484,27.3478261 C75.7096774,27.5869565 76.6645161,27.1086957 76.9032258,26.3913043 L77.0225806,25.5543478 C76.6645161,25.5543478 75.8290323,25.3152174 75.1129032,25.7934783 Z M94.3290323,22.5652174 C93.3741935,22.5652174 92.7774194,23.0434783 92.5387097,24 L95.283871,24 C95.4032258,23.1630435 95.1645161,22.5652174 94.3290323,22.5652174 Z M94.3290323,22.5652174 C93.3741935,22.5652174 92.7774194,23.0434783 92.5387097,24 L95.283871,24 C95.4032258,23.1630435 95.1645161,22.5652174 94.3290323,22.5652174 Z M75.1129032,25.7934783 C74.3967742,26.2717391 74.1580645,27.1086957 74.9935484,27.3478261 C75.7096774,27.5869565 76.6645161,27.1086957 76.9032258,26.3913043 L77.0225806,25.5543478 C76.6645161,25.5543478 75.8290323,25.3152174 75.1129032,25.7934783 Z M75.1129032,25.7934783 C74.3967742,26.2717391 74.1580645,27.1086957 74.9935484,27.3478261 C75.7096774,27.5869565 76.6645161,27.1086957 76.9032258,26.3913043 L77.0225806,25.5543478 C76.6645161,25.5543478 75.8290323,25.3152174 75.1129032,25.7934783 Z M94.3290323,22.5652174 C93.3741935,22.5652174 92.7774194,23.0434783 92.5387097,24 L95.283871,24 C95.4032258,23.1630435 95.1645161,22.5652174 94.3290323,22.5652174 Z M94.3290323,22.5652174 C93.3741935,22.5652174 92.7774194,23.0434783 92.5387097,24 L95.283871,24 C95.4032258,23.1630435 95.1645161,22.5652174 94.3290323,22.5652174 Z M75.1129032,25.7934783 C74.3967742,26.2717391 74.1580645,27.1086957 74.9935484,27.3478261 C75.7096774,27.5869565 76.6645161,27.1086957 76.9032258,26.3913043 L77.0225806,25.5543478 C76.6645161,25.5543478 75.8290323,25.3152174 75.1129032,25.7934783 Z M75.1129032,25.7934783 C74.3967742,26.2717391 74.1580645,27.1086957 74.9935484,27.3478261 C75.7096774,27.5869565 76.6645161,27.1086957 76.9032258,26.3913043 L77.0225806,25.5543478 C76.6645161,25.5543478 75.8290323,25.3152174 75.1129032,25.7934783 Z M94.3290323,22.5652174 C93.3741935,22.5652174 92.7774194,23.0434783 92.5387097,24 L95.283871,24 C95.4032258,23.1630435 95.1645161,22.5652174 94.3290323,22.5652174 Z M112.470968,25.7934783 C111.754839,26.2717391 111.516129,27.1086957 112.351613,27.3478261 C113.067742,27.5869565 114.141935,27.1086957 114.26129,26.3913043 L114.380645,25.5543478 C114.022581,25.5543478 113.187097,25.3152174 112.470968,25.7934783 Z M112.470968,25.7934783 C111.754839,26.2717391 111.516129,27.1086957 112.351613,27.3478261 C113.067742,27.5869565 114.141935,27.1086957 114.26129,26.3913043 L114.380645,25.5543478 C114.022581,25.5543478 113.187097,25.3152174 112.470968,25.7934783 Z M94.3290323,22.5652174 C93.3741935,22.5652174 92.7774194,23.0434783 92.5387097,24 L95.283871,24 C95.4032258,23.1630435 95.1645161,22.5652174 94.3290323,22.5652174 Z M75.1129032,25.7934783 C74.3967742,26.2717391 74.1580645,27.1086957 74.9935484,27.3478261 C75.7096774,27.5869565 76.6645161,27.1086957 76.9032258,26.3913043 L77.0225806,25.5543478 C76.6645161,25.5543478 75.8290323,25.3152174 75.1129032,25.7934783 Z M129.493952,12.0733696 C129.464113,12.0285326 129.434274,11.9836957 129.404435,11.9388587 C125.972984,6.70788043 120.363306,3.01630435 113.858468,2.17934783 C113.783871,2.17934783 113.724194,2.16440217 113.649597,2.14945652 C113.634677,2.14945652 113.634677,2.14945652 113.619758,2.14945652 C113.560081,2.14945652 113.515323,2.13451087 113.455645,2.13451087 C113.455645,2.13451087 113.440726,2.13451087 113.440726,2.13451087 C113.306452,2.11956522 113.157258,2.10461957 113.022984,2.08967391 C112.948387,2.08967391 112.87379,2.07472826 112.799194,2.07472826 C112.799194,2.07472826 112.784274,2.07472826 112.784274,2.07472826 C112.664919,2.05978261 112.560484,2.05978261 112.441129,2.04483696 C112.321774,2.0298913 112.1875,2.0298913 112.068145,2.0298913 C112.008468,2.0298913 111.96371,2.0298913 111.904032,2.01494565 C111.799597,2.01494565 111.695161,2.01494565 111.590726,2 C111.545968,2 111.50121,2 111.456452,2 C111.322177,2 111.187903,2 111.053629,2 C105.802016,2 101.027823,3.79347826 97.2084677,6.90217391 C97.2979839,6.99184783 97.3875,7.08152174 97.4770161,7.15625 C100.222177,9.86141304 102.370565,13.2391304 103.414919,17.0652174 L101.624597,17.0652174 C100.505645,13.8070652 98.7600806,10.8777174 96.3729839,8.45652174 C96.3431452,8.42663043 96.3133065,8.39673913 96.2834677,8.36684783 C96.2685484,8.35190217 96.253629,8.33695652 96.2387097,8.32201087 C96.2237903,8.30706522 96.208871,8.29211957 96.1790323,8.26222826 C96.0745968,8.1576087 95.9850806,8.06793478 95.8806452,7.96331522 C93.2548387,10.4741848 91.3451613,13.5828804 90.1516129,17.0502717 L88.3612903,17.0502717 C89.5548387,13.1046196 91.7032258,9.63722826 94.5677419,6.88722826 C93.1354839,5.72146739 91.583871,4.73505435 89.9278226,3.97282609 C89.9278226,3.97282609 89.9278226,3.97282609 89.9129032,3.97282609 C88.0181452,3.09103261 86.0040323,2.49320652 83.8556452,2.19429348 C83.766129,2.17934783 83.6766129,2.16440217 83.5870968,2.16440217 C82.8262097,2.07472826 82.0504032,2.01494565 81.2596774,2 C81.1552419,2 81.0508065,2 80.946371,2 L80.8270161,2 C68.7870968,2 59,11.923913 59,24 C59,36.076087 68.7870968,46 80.9612903,46 C86.2129032,46 90.9870968,44.0869565 94.6870968,41.0978261 C91.8225806,38.3478261 89.6741935,34.8804348 88.4806452,30.9347826 L90.2709677,30.9347826 C91.4645161,34.4021739 93.3741935,37.5108696 96,40.0217391 C98.6258065,37.5108696 100.654839,34.4021739 101.729032,30.9347826 L103.519355,30.9347826 C102.325806,34.8804348 100.177419,38.3478261 97.3129032,41.0978261 C101.132258,44.2065217 105.906452,46 111.158065,46 C123.212903,46 133,36.076087 133,24 C133,19.6209239 131.716935,15.5108696 129.493952,12.0733696 Z M68.9064516,29.1413043 L70.2193548,22.2065217 L67.116129,29.1413043 L65.0870968,29.1413043 L64.4903226,22.0869565 L63.0580645,29.1413043 L60.9096774,29.1413043 L62.8193548,19.3369565 L66.2806452,19.3369565 L66.7580645,25.3152174 L69.383871,19.3369565 L73.083871,19.3369565 L71.1741935,29.1413043 L68.9064516,29.1413043 Z M78.5741935,29.2608696 L76.5451613,29.2608696 L76.3064516,28.7826087 C75.9483871,29.0217391 75.5903226,29.2608696 74.516129,29.2608696 C73.4419355,29.2608696 72.0096774,28.423913 72.2483871,26.75 C72.8451613,23.2826087 76.783871,23.8804348 77.3806452,23.8804348 C77.7387097,22.6847826 76.783871,22.8043478 76.0677419,22.8043478 C75.3516129,22.8043478 73.9193548,23.0434783 73.3225806,23.0434783 L73.6806452,21.25 C75.1129032,21.0108696 75.8290323,21.0108696 76.3064516,21.1304348 C80.0064516,21.1304348 79.6483871,23.7608696 79.4096774,24.8369565 L78.5741935,29.2608696 Z M85.7354839,26.75 C85.3774194,29.1413043 82.7516129,29.0217391 82.1548387,29.0217391 C81.3193548,29.0217391 80.6032258,29.0217391 79.5290323,28.7826087 L79.8870968,27.1086957 C80.9612903,27.4673913 82.3935484,27.3478261 82.7516129,27.3478261 C83.4677419,27.3478261 83.5870968,26.3913043 82.9903226,26.1521739 C82.5129032,25.9130435 82.0354839,25.5543478 81.2,25.1956522 C80.7225806,24.9565217 80.1258065,24.3586957 80.483871,22.8043478 C80.8419355,20.8913043 83.4677419,20.8913043 83.8258065,20.8913043 C84.0645161,20.8913043 84.9,20.8913043 85.9741935,21.25 L85.4967742,22.923913 C84.9,22.8043478 83.8258065,22.8043478 83.4677419,22.6847826 C82.6322581,22.923913 82.9903226,23.6413043 83.4677419,23.8804348 C83.9451613,24 84.5419355,24.4782609 85.0193548,24.7173913 C85.3774194,25.076087 85.9741935,25.5543478 85.7354839,26.75 Z M89.4354839,28.7826087 C88.9580645,29.1413043 88.3612903,29.1413043 87.7645161,29.1413043 C87.2870968,29.1413043 85.616129,28.7826087 85.9741935,26.6304348 L87.6451613,18.9782609 L89.7935484,18.9782609 L89.316129,21.1304348 L90.5096774,21.1304348 L90.1516129,22.8043478 L89.0774194,22.8043478 L88.4806452,26.0326087 C88.3612903,26.6304348 88.4806452,27.2282609 89.6741935,26.9891304 L89.4354839,28.7826087 Z M96.716129,28.7826087 C96.1193548,29.0217391 94.8064516,29.1413043 93.8516129,29.1413043 C90.0322581,29.1413043 90.0322581,25.5543478 90.1516129,25.076087 C90.1516129,24.5978261 90.6290323,21.0108696 94.2096774,21.0108696 C98.0290323,21.0108696 97.4322581,24.2391304 97.1935484,25.5543478 L92.5387097,25.5543478 C92.3,27.3478261 93.7322581,27.3478261 94.5677419,27.3478261 C95.5225806,27.3478261 96.716129,27.2282609 97.0741935,27.1086957 L96.716129,28.7826087 Z M100.177419,25.5543478 L99.4612903,29.2608696 L97.1935484,29.2608696 L97.1935484,29.1413043 L98.7451613,21.1304348 L100.654839,21.1304348 L100.893548,21.9673913 C101.251613,21.6086957 101.848387,21.1304348 103.041935,21.1304348 L102.445161,23.2826087 C101.967742,23.2826087 100.893548,23.1630435 100.177419,25.5543478 Z M108.532258,26.6304348 L109.129032,28.6630435 C108.412903,29.0217391 107.696774,29.1413043 106.503226,29.1413043 C104.235484,29.1413043 101.729032,27.1086957 102.803226,22.923913 C103.63871,19.9347826 106.264516,18.7391304 107.816129,18.8586957 C109.606452,18.9782609 110.322581,19.576087 110.8,20.173913 L109.367742,21.6086957 C108.770968,21.25 108.412903,21.25 107.696774,21.25 C106.980645,21.25 105.309677,21.9673913 105.070968,23.8804348 C104.712903,26.2717391 106.264516,27.3478261 108.532258,26.6304348 Z M116.648387,24.8369565 L115.812903,29.2608696 L113.783871,29.2608696 L113.545161,28.7826087 C113.187097,29.0217391 112.829032,29.2608696 111.754839,29.2608696 C110.680645,29.2608696 109.248387,28.423913 109.487097,26.75 C110.083871,23.2826087 114.022581,23.8804348 114.619355,23.8804348 C114.858065,22.6847826 114.022581,22.8043478 113.306452,22.8043478 C112.590323,22.8043478 111.158065,23.0434783 110.56129,23.0434783 L110.919355,21.25 C112.351613,21.0108696 113.187097,21.0108696 113.545161,21.1304348 C117.245161,21.1304348 116.887097,23.7608696 116.648387,24.8369565 Z M119.870968,25.4347826 L119.154839,29.1413043 L116.887097,29.1413043 L118.43871,21.0108696 L120.348387,21.0108696 L120.587097,21.8478261 C120.945161,21.4891304 121.541935,21.0108696 122.735484,21.0108696 L122.13871,23.1630435 C121.541935,23.1630435 120.587097,23.0434783 119.870968,25.4347826 Z M129.06129,29.1413043 L126.674194,29.1413043 L126.435484,28.5434783 C125.958065,28.7826087 125.241935,29.1413043 124.525806,29.1413043 C122.974194,29.1413043 121.541935,26.9891304 122.258065,24.4782609 C123.332258,20.7717391 125.241935,21.0108696 126.435484,21.0108696 C127.390323,21.0108696 127.629032,21.6086957 128.106452,21.9673913 L128.703226,18.8586957 L130.970968,18.8586957 L129.06129,29.1413043 Z M124.525806,24.8369565 C124.167742,26.0326087 124.883871,26.8695652 125.6,26.8695652 C126.435484,26.8695652 126.912903,26.2717391 127.390323,25.3152174 C127.629032,24.5978261 127.509677,23.6413043 127.270968,23.2826087 C126.554839,22.326087 125.003226,23.0434783 124.525806,24.8369565 Z M112.470968,25.7934783 C111.754839,26.2717391 111.516129,27.1086957 112.351613,27.3478261 C113.067742,27.5869565 114.141935,27.1086957 114.26129,26.3913043 L114.380645,25.5543478 C114.022581,25.5543478 113.187097,25.3152174 112.470968,25.7934783 Z M94.3290323,22.5652174 C93.3741935,22.5652174 92.7774194,23.0434783 92.5387097,24 L95.283871,24 C95.4032258,23.1630435 95.1645161,22.5652174 94.3290323,22.5652174 Z M75.1129032,25.7934783 C74.3967742,26.2717391 74.1580645,27.1086957 74.9935484,27.3478261 C75.7096774,27.5869565 76.6645161,27.1086957 76.9032258,26.3913043 L77.0225806,25.5543478 C76.6645161,25.5543478 75.8290323,25.3152174 75.1129032,25.7934783 Z M75.1129032,25.7934783 C74.3967742,26.2717391 74.1580645,27.1086957 74.9935484,27.3478261 C75.7096774,27.5869565 76.6645161,27.1086957 76.9032258,26.3913043 L77.0225806,25.5543478 C76.6645161,25.5543478 75.8290323,25.3152174 75.1129032,25.7934783 Z M94.3290323,22.5652174 C93.3741935,22.5652174 92.7774194,23.0434783 92.5387097,24 L95.283871,24 C95.4032258,23.1630435 95.1645161,22.5652174 94.3290323,22.5652174 Z M112.470968,25.7934783 C111.754839,26.2717391 111.516129,27.1086957 112.351613,27.3478261 C113.067742,27.5869565 114.141935,27.1086957 114.26129,26.3913043 L114.380645,25.5543478 C114.022581,25.5543478 113.187097,25.3152174 112.470968,25.7934783 Z M112.470968,25.7934783 C111.754839,26.2717391 111.516129,27.1086957 112.351613,27.3478261 C113.067742,27.5869565 114.141935,27.1086957 114.26129,26.3913043 L114.380645,25.5543478 C114.022581,25.5543478 113.187097,25.3152174 112.470968,25.7934783 Z M94.3290323,22.5652174 C93.3741935,22.5652174 92.7774194,23.0434783 92.5387097,24 L95.283871,24 C95.4032258,23.1630435 95.1645161,22.5652174 94.3290323,22.5652174 Z M75.1129032,25.7934783 C74.3967742,26.2717391 74.1580645,27.1086957 74.9935484,27.3478261 C75.7096774,27.5869565 76.6645161,27.1086957 76.9032258,26.3913043 L77.0225806,25.5543478 C76.6645161,25.5543478 75.8290323,25.3152174 75.1129032,25.7934783 Z M75.1129032,25.7934783 C74.3967742,26.2717391 74.1580645,27.1086957 74.9935484,27.3478261 C75.7096774,27.5869565 76.6645161,27.1086957 76.9032258,26.3913043 L77.0225806,25.5543478 C76.6645161,25.5543478 75.8290323,25.3152174 75.1129032,25.7934783 Z M94.3290323,22.5652174 C93.3741935,22.5652174 92.7774194,23.0434783 92.5387097,24 L95.283871,24 C95.4032258,23.1630435 95.1645161,22.5652174 94.3290323,22.5652174 Z M94.3290323,22.5652174 C93.3741935,22.5652174 92.7774194,23.0434783 92.5387097,24 L95.283871,24 C95.4032258,23.1630435 95.1645161,22.5652174 94.3290323,22.5652174 Z M75.1129032,25.7934783 C74.3967742,26.2717391 74.1580645,27.1086957 74.9935484,27.3478261 C75.7096774,27.5869565 76.6645161,27.1086957 76.9032258,26.3913043 L77.0225806,25.5543478 C76.6645161,25.5543478 75.8290323,25.3152174 75.1129032,25.7934783 Z M75.1129032,25.7934783 C74.3967742,26.2717391 74.1580645,27.1086957 74.9935484,27.3478261 C75.7096774,27.5869565 76.6645161,27.1086957 76.9032258,26.3913043 L77.0225806,25.5543478 C76.6645161,25.5543478 75.8290323,25.3152174 75.1129032,25.7934783 Z M75.1129032,25.7934783 C74.3967742,26.2717391 74.1580645,27.1086957 74.9935484,27.3478261 C75.7096774,27.5869565 76.6645161,27.1086957 76.9032258,26.3913043 L77.0225806,25.5543478 C76.6645161,25.5543478 75.8290323,25.3152174 75.1129032,25.7934783 Z M75.1129032,25.7934783 C74.3967742,26.2717391 74.1580645,27.1086957 74.9935484,27.3478261 C75.7096774,27.5869565 76.6645161,27.1086957 76.9032258,26.3913043 L77.0225806,25.5543478 C76.6645161,25.5543478 75.8290323,25.3152174 75.1129032,25.7934783 Z M75.1129032,25.7934783 C74.3967742,26.2717391 74.1580645,27.1086957 74.9935484,27.3478261 C75.7096774,27.5869565 76.6645161,27.1086957 76.9032258,26.3913043 L77.0225806,25.5543478 C76.6645161,25.5543478 75.8290323,25.3152174 75.1129032,25.7934783 Z" id="Shape" fill="#ED4597" fill-rule="nonzero"></path>
    </g>
</svg>