<?xml version="1.0" encoding="UTF-8"?>
<svg width="192px" height="48px" viewBox="0 0 192 48" version="1.1" xmlns="http://www.w3.org/2000/svg" xmlns:xlink="http://www.w3.org/1999/xlink">
    <!-- Generator: Sketch 63.1 (92452) - https://sketch.com -->
    <title>paypal</title>
    <desc>Created with Sketch.</desc>
    <g id="paypal" stroke="none" stroke-width="1" fill="none" fill-rule="evenodd">
        <path d="M67.8298202,15.2524322 C67.5589841,14.6558525 67.1305707,14.1638095 66.5987472,13.7943267 C66.0439436,13.4212391 65.3890127,13.1598976 64.6405203,13.004895 C63.8788965,12.8534972 62.9990896,12.7850077 61.9797612,12.7741935 L57.2737793,12.7777983 C56.784633,12.7850077 56.3053352,13.2031541 56.1904351,13.7222325 L53.0241152,28.8656221 C52.9092151,29.377491 53.2161626,29.8064516 53.705309,29.8064516 L55.9589933,29.8064516 C56.4481397,29.8064516 56.9323618,29.3901075 57.0406962,28.8656221 L57.81381,25.1888172 C57.9172202,24.6769483 58.3998008,24.2497901 58.8938714,24.2497901 L59.5389537,24.2497901 C62.2949159,24.2461854 64.4287758,23.6279775 65.961872,22.3897593 C67.5031755,21.1497389 68.2631579,19.5113978 68.2631579,17.4819457 C68.2615165,16.5933845 68.1285606,15.8472094 67.8298202,15.2524322 Z M62.9695439,20.1998976 C62.2883501,20.7478136 61.3412446,21.0217716 60.1200202,21.0217716 L59.5684995,21.0217716 C59.0777117,21.0217716 58.7773299,20.5964158 58.8840229,20.0773374 L59.5619337,16.8619355 C59.6571367,16.3464619 60.1512074,15.9193036 60.6354294,15.9229083 L61.3740732,15.9175013 C62.2358244,15.9175013 62.8940381,16.0815156 63.3339415,16.3987302 C63.7689206,16.71234 63.9872309,17.2115924 63.9839481,17.8730568 C63.9970795,18.8787711 63.6474548,19.6519816 62.9695439,20.1998976 Z" id="Shape" fill="#ED4597" fill-rule="nonzero"></path>
        <polygon id="Path" fill="#ED4597" fill-rule="nonzero" points="136.739026 14.6726315 136.542132 14.7187725 136.278842 14.747167 135.956026 14.7081246 135.791184 14.5838987 135.715632 14.3886866 135.711053 14.0958684 135.711053 13.0115537 136.761921 13.0115537 136.761921 12.6761438 135.711053 12.6761438 135.711053 12 135.191342 12 135.191342 12.6761438 134.838763 12.6761438 134.838763 13.0115537 135.191342 13.0115537 135.191342 14.2733339 135.434026 14.8980128 136.148342 15.0967742 136.448263 15.077253 136.7665 15.0293373 136.7665 14.6726315"></polygon>
        <polygon id="Path" fill="#ED4597" fill-rule="nonzero" points="139.83588 12.2280352 139.3232 12 138.944943 12.0827683 138.560433 12.3631672 138.336918 12.0945924 137.974291 12.0016891 137.625731 12.0844575 137.295928 12.3141818 137.295928 12.0641877 136.947368 12.0641877 136.947368 14.3192023 137.294365 14.3192023 137.294365 12.6351202 137.586655 12.4391789 137.877382 12.361478 138.114965 12.407085 138.232193 12.5371496 138.283774 12.7533607 138.300967 13.0320704 138.300967 14.3208915 138.649527 14.3208915 138.649527 12.8783578 138.643275 12.7584282 138.637023 12.6486334 138.934002 12.4442463 139.227855 12.3648563 139.457623 12.4104633 139.582666 12.5405279 139.626432 12.7584282 139.649877 13.0337595 139.649877 14.3225806 140 14.3225806 140 12.858088"></polygon>
        <path d="M79.8802363,16.68059 C78.9794128,16.1408418 77.5568769,15.8709677 75.6126285,15.8709677 C74.6509386,15.8709677 73.6927267,15.9504512 72.7240806,16.1094181 C72.0093346,16.2258706 71.9397729,16.2480521 71.4997954,16.349717 C70.5920157,16.5604405 70.4494143,17.5234843 70.4494143,17.5234843 L70.1572554,18.8007651 C69.9920464,19.6159326 70.433763,19.5845089 70.6181014,19.5161162 C71.0146028,19.3904214 71.2354611,19.2610297 72.0458544,19.0687907 C72.8197279,18.882097 73.6353383,18.7416146 74.2822618,18.7508568 C75.2369955,18.7508568 75.967393,18.8580671 76.4543246,19.0761845 C76.9343,19.2979988 77.1742877,19.67878 77.1742877,20.2296189 L77.1325507,20.5882187 L76.7882205,20.8137299 C75.4335072,20.9043041 74.4544269,21.0373927 73.2666615,21.2203895 C72.1049818,21.3922955 71.0859035,21.6935933 70.2389903,22.1057982 C69.3294716,22.5309423 68.6547235,23.1021142 68.1834433,23.828556 C67.7278144,24.5586948 67.5,25.4441036 67.5,26.4829339 C67.5,27.4607653 67.8304179,28.2685391 68.4721242,28.893316 C69.1173086,29.5070023 69.9694389,29.8064516 70.9885172,29.8064516 C71.6337016,29.8027547 72.1328065,29.7491496 72.487571,29.6585754 L73.6440335,29.2352798 L74.6231139,28.6585626 L75.5239374,28.0263918 L75.5361107,28.0448763 L75.4456805,28.4515359 L75.4404634,28.468172 L75.4404634,28.4718689 C75.3430771,28.9672541 75.6248018,29.3739137 76.0786916,29.4219735 L76.0873868,29.4330642 L76.1291238,29.4330642 L77.9603345,29.4330642 L78.3046647,29.4330642 L78.3359675,29.4182766 C78.8124648,29.3591261 79.2593985,28.9524665 79.363741,28.468172 L81.1045215,20.458827 L81.1949516,19.8063232 L81.2367662,19.1944854 C81.2436448,18.0595356 80.7827988,17.2184897 79.8802363,16.68059 Z M76.0299985,25.6862509 L75.6578436,26.2075145 L74.7187612,26.7232327 C74.2770446,26.9136234 73.8579356,27.0097429 73.4701294,27.0097429 C72.8823334,27.0097429 72.4214874,26.9191687 72.110199,26.7343235 L71.649353,25.7823704 C71.649353,25.2666521 71.7606516,24.8581441 71.9989003,24.5439072 L73.0110224,23.81192 C73.4440438,23.6566499 73.9727124,23.5254098 74.584855,23.4348356 C75.130914,23.362746 76.2091197,23.2315058 76.3499821,23.2278089 L76.515191,23.5365005 C76.4821492,23.7121035 76.1760779,25.0725646 76.0299985,25.6862509 Z" id="Shape" fill="#ED4597" fill-rule="nonzero"></path>
        <path d="M123.374095,16.6824384 C122.468504,16.1426903 121.048412,15.8709677 119.110342,15.8709677 C118.14913,15.8709677 117.189655,15.9504512 116.224966,16.1149635 C115.508836,16.2258706 115.437571,16.2499005 114.996073,16.349717 C114.090482,16.5585921 113.949689,17.5253328 113.949689,17.5253328 L113.657675,18.8007651 C113.494287,19.6159326 113.925355,19.5789636 114.126984,19.5161162 C114.525027,19.3904214 114.738823,19.2665751 115.541861,19.0669422 C116.311875,18.882097 117.134033,18.7453115 117.782374,18.7490084 C118.733158,18.7490084 119.463193,18.8580671 119.948145,19.0761845 C120.431358,19.2979988 120.667751,19.6824769 120.667751,20.2277704 L120.631249,20.5845218 L120.290566,20.8155783 C118.922619,20.9024556 117.942286,21.0355442 116.767277,21.218541 C115.60965,21.3904471 114.587601,21.6898964 113.73937,22.1039498 C112.833779,22.5309423 112.150674,23.1021142 111.684842,23.8304045 C111.224225,24.5605432 111,25.4441036 111,26.4736916 C111,27.4589169 111.326778,28.2666906 111.976857,28.8877707 C112.625197,29.4996085 113.468214,29.8064516 114.486787,29.8064516 C115.128175,29.7990578 115.627032,29.7546949 115.983359,29.656727 L117.135771,29.2389767 L118.123057,28.6622595 L119.016481,28.0226949 L119.032124,28.0430279 L118.95043,28.4533843 L118.941739,28.4607781 L118.945215,28.468172 C118.837448,28.9635572 119.120772,29.3739137 119.579651,29.4182766 L119.583127,29.4275188 L119.624843,29.4275188 C119.925548,29.4275188 120.964979,29.4275188 121.46036,29.4275188 L121.797567,29.4275188 L121.834069,29.4145797 C122.305115,29.3535807 122.750089,28.9469212 122.849165,28.4570812 L124.594297,20.458827 L124.68642,19.8026263 L124.736832,19.1889401 C124.738565,18.0576871 124.283163,17.2203381 123.374095,16.6824384 Z M119.534458,25.6880993 L119.146844,26.2149083 L118.216919,26.7269296 C117.775421,26.9154718 117.354782,27.0134398 116.974121,27.0134398 C116.367496,27.0134398 115.919046,26.9210172 115.616603,26.7361719 L115.150771,25.7879157 C115.150771,25.270349 115.263753,24.8655379 115.491454,24.5457556 C115.722632,24.2444579 116.075482,23.9967652 116.513503,23.8156169 C116.941095,23.6603468 117.469502,23.5346521 118.084817,23.440381 C118.627129,23.3682913 119.701323,23.2333543 119.840378,23.2315058 L120.008981,23.5401974 C119.984646,23.7158004 119.676989,25.0707161 119.534458,25.6880993 Z" id="Shape" fill="#ED4597" fill-rule="nonzero"></path>
        <path d="M111.329855,15.2539721 C111.047552,14.6538513 110.624097,14.169069 110.089033,13.7906144 C109.540839,13.4157642 108.890885,13.1526481 108.130964,13.0012663 C107.384173,12.855291 106.492948,12.7759957 105.480266,12.7741935 L100.768097,12.7777979 C100.277349,12.7868087 99.8062963,13.2049109 99.6930467,13.7185278 L96.5236988,28.8675238 C96.4088079,29.3811408 96.7239372,29.8064516 97.2031965,29.8064516 L99.4599823,29.8028473 C99.9392415,29.8064516 100.42999,29.3847451 100.543239,28.8657217 L101.306443,25.1875036 C101.418052,24.6756889 101.902235,24.2449715 102.389701,24.2485758 L103.034731,24.2485758 C105.793754,24.2485758 107.932367,23.6250269 109.471905,22.3905441 C110.993389,21.141644 111.763158,19.5070807 111.763158,17.4760411 C111.754951,16.5911783 111.615441,15.8432799 111.329855,15.2539721 Z M106.469969,20.2081227 C105.790472,20.7451678 104.841801,21.0191469 103.62724,21.0191469 L103.065916,21.0191469 C102.581733,21.0245033 102.268244,20.5919838 102.37657,20.0765647 L103.05935,16.8669095 C103.15947,16.3532925 103.648577,15.9225752 104.136042,15.9279817 L104.86642,15.9225752 C105.733026,15.9279817 106.382981,16.08477 106.826131,16.401951 C107.267641,16.719132 107.476085,17.2165294 107.481009,17.8761217 C107.485933,18.8817295 107.146184,19.6566603 106.469969,20.2081227 Z" id="Shape" fill="#ED4597" fill-rule="nonzero"></path>
        <path d="M131.582246,13.7120363 C131.697843,13.190458 131.367567,12.7670164 130.826281,12.7741935 L128.569393,12.7741935 C128.107006,12.7741935 127.690491,13.1141295 127.486821,13.532119 L127.36205,13.7247577 L127.248288,14.2190758 L124.09415,28.4198167 L123.991397,28.8559797 L123.995067,28.8668838 C123.89048,29.3339417 124.180389,29.6865068 124.628097,29.7537486 L124.666629,29.8064516 L127.009755,29.8064516 C127.468472,29.8064516 127.899666,29.4611559 128.095997,29.0358969 L128.217098,28.8541624 L131.589586,13.7138536 L131.582246,13.7120363 Z" id="Path" fill="#ED4597" fill-rule="nonzero"></path>
        <path d="M96.1364184,17.4195549 C95.5687008,17.4265963 93.2611471,17.4195549 93.2611471,17.4195549 C92.7440874,17.4195549 92.0802945,17.8402775 91.7518917,18.3419759 C91.7518917,18.3419759 88.3176369,24.2813811 87.9839937,24.8781381 L87.5857179,24.8728571 L86.516662,18.3824638 C86.397878,17.8719637 85.8685905,17.4353981 85.2100381,17.4353981 L83.0614454,17.4389187 C82.5443856,17.4389187 82.2264638,17.8543602 82.3435009,18.3613397 C82.3435009,18.3613397 83.975034,27.7175752 84.30169,29.9197672 C84.4536636,31.1344055 84.2824749,31.350928 84.2824749,31.350928 L82.1583377,35.0793394 C81.8439095,35.5863188 82.0133513,36 82.5286642,36 L85.0126471,35.9964793 C85.5297068,35.9964793 86.2092211,35.5863188 86.516662,35.077579 L96.0717859,18.790864 C96.0717859,18.7926243 96.990615,17.4001911 96.1364184,17.4195549 Z" id="Path" fill="#ED4597" fill-rule="nonzero"></path>
    </g>
</svg>