<?xml version="1.0" encoding="UTF-8"?>
<svg width="192px" height="48px" viewBox="0 0 192 48" version="1.1" xmlns="http://www.w3.org/2000/svg" xmlns:xlink="http://www.w3.org/1999/xlink">
    <!-- Generator: Sketch 63.1 (92452) - https://sketch.com -->
    <title>visa</title>
    <desc>Created with Sketch.</desc>
    <g id="visa" stroke="none" stroke-width="1" fill="none" fill-rule="evenodd">
        <polygon id="Path" fill="#ED4597" fill-rule="nonzero" points="89.1519332 14 85.3478261 35 91.4318937 35 95.2391304 14"></polygon>
        <path d="M80.1691545,14.0044223 L74.678071,28.3459217 L74.0926246,26.1804717 C73.009693,23.5713183 69.9353784,19.8241612 66.326087,17.4626562 L71.3470829,35 L77.2794141,34.9896813 L86.1086957,14 L80.1691545,14.0044223 Z" id="Path" fill="#ED4597" fill-rule="nonzero"></path>
        <path d="M72.0678334,15.6310816 C71.7459947,14.4081222 70.8132321,14.0436269 69.6554672,14 L61.0712033,14 L61,14.3996783 C67.680289,16.0012063 72.1005869,19.8600724 73.9347826,24.5 L72.0678334,15.6310816 Z" id="Path" fill="#ED4597" fill-rule="nonzero"></path>
        <path d="M106.544894,18.2499151 C108.369886,18.2213922 109.692717,18.6178608 110.719992,19.0285908 L111.223587,19.2639049 L111.978261,14.8542615 C110.87351,14.4421053 109.141777,14 106.981056,14 C101.468779,14 97.5834982,16.7595925 97.5533687,20.7142954 C97.5175001,23.6364686 100.320985,25.2679796 102.438664,26.2420374 C104.612297,27.2403396 105.341146,27.8749745 105.331103,28.7663158 C105.313886,30.1282852 103.597935,30.7529372 101.995329,30.7529372 C99.761436,30.7529372 98.5749047,30.4463158 96.7427396,29.6876061 L96.0239341,29.3624448 L95.2391304,33.916129 C96.5447453,34.4851613 98.9536765,34.9743294 101.454431,35 C107.31822,35 111.128894,32.2732088 111.169067,28.0475382 C111.193457,25.7357555 109.70563,23.9716129 106.481766,22.5240747 C104.530517,21.579966 103.336812,20.9524618 103.34829,19.9997963 C103.34829,19.1540917 104.361218,18.2499151 106.544894,18.2499151 Z" id="Path" fill="#ED4597" fill-rule="nonzero"></path>
        <path d="M126.541828,14 L122.284882,14 C120.962735,14 119.979273,14.3741058 119.398265,15.7438631 L111.217391,35 L117.003379,35 C117.003379,35 117.947163,32.4107168 118.161144,31.8436667 C118.794584,31.8436667 124.416189,31.8525039 125.216846,31.8525039 C125.381229,32.5859868 125.888548,35 125.888548,35 L131,35 L126.541828,14 Z M119.74687,27.5429233 C120.200339,26.3366531 121.941946,21.670641 121.941946,21.670641 C121.912187,21.7280825 122.391164,20.4555337 122.676,19.6646093 L123.047278,21.4762239 C123.047278,21.4762239 124.103012,26.492776 124.324078,27.5429233 L119.74687,27.5429233 Z" id="Shape" fill="#ED4597" fill-rule="nonzero"></path>
    </g>
</svg>