<?xml version="1.0" encoding="UTF-8"?>
<svg width="48px" height="48px" viewBox="0 0 48 48" version="1.1" xmlns="http://www.w3.org/2000/svg" xmlns:xlink="http://www.w3.org/1999/xlink">
    <!-- Generator: Sketch 63.1 (92452) - https://sketch.com -->
    <title>calendar</title>
    <desc>Created with Sketch.</desc>
    <defs>
        <polygon id="path-1" points="0.1195 0.5615 0.6195 0.5615 0.6195 0.82255 0.1195 0.82255"></polygon>
    </defs>
    <g id="calendar" stroke="none" stroke-width="1" fill="none" fill-rule="evenodd">
        <g id="Group-152" transform="translate(0.000000, 2.500000)">
            <path d="M8.64299169,27.7946 C8.62600306,27.7885886 8.61063239,27.781375 8.59485723,27.7789705 C8.58878986,27.7781689 8.58110452,27.7897909 8.57382368,27.7958022 C8.58595842,27.8046189 8.59768867,27.8198477 8.60982341,27.8206492 C8.61993569,27.8210499 8.63166594,27.8042181 8.64299169,27.7946 L8.64299169,27.7946 Z M33.6539029,4.65128712 C33.6417682,4.66050453 33.6280154,4.66771816 33.6191166,4.67893935 C33.6150717,4.68334768 33.6207346,4.70338553 33.6227571,4.70338553 C33.6369143,4.7045878 33.650667,4.70218325 33.6648242,4.70058023 C33.6615882,4.68495071 33.6579478,4.66892043 33.6539029,4.65128712 L33.6539029,4.65128712 Z M36.5642179,2.39823157 C36.5448023,2.4110558 36.5237687,2.41746791 36.5229598,2.42668532 C36.5209373,2.44111257 36.5286226,2.46275344 36.5395439,2.47116934 C36.5472292,2.47758145 36.5678583,2.46716177 36.5828245,2.46435647 C36.5771616,2.44311635 36.5710942,2.42187623 36.5642179,2.39823157 L36.5642179,2.39823157 Z M21.4152093,39.1728912 C21.3994342,39.191326 21.384468,39.2089593 21.3690973,39.2269934 C21.3767826,39.2318024 21.3864904,39.2422221 21.3917488,39.2402183 C21.4127824,39.2318024 21.4326024,39.2201805 21.4532315,39.2093601 C21.4431192,39.1993411 21.4321979,39.1893222 21.4152093,39.1728912 L21.4152093,39.1728912 Z M15.0206062,10.358066 C15.0096849,10.3372267 15.004831,10.3155858 14.9959322,10.3139828 C14.981775,10.3115782 14.961146,10.3187918 14.9510337,10.3288108 C14.9449663,10.3356236 14.9530561,10.3556615 14.9550786,10.369688 C14.9757077,10.3660812 14.9967412,10.3620736 15.0206062,10.358066 L15.0206062,10.358066 Z M10.5101236,13.4422915 C10.4094052,13.3709567 10.3564169,13.3946014 10.3171812,13.4539134 C10.305451,13.4715467 10.303024,13.5084164 10.3139453,13.5240459 C10.32608,13.5408777 10.3677426,13.5581102 10.3806864,13.5500951 C10.423158,13.5244467 10.4583487,13.4871763 10.5101236,13.4422915 L10.5101236,13.4422915 Z M9.0337303,13.7292335 C8.94352874,13.7348441 8.85251819,13.7368478 8.80195678,13.8410446 C8.94716916,13.8222091 8.94716916,13.8222091 9.0337303,13.7292335 L9.0337303,13.7292335 Z M46.3201438,18.6954135 C46.3678738,18.737493 46.3945702,18.7755649 46.4301654,18.7875876 C46.4544349,18.7956028 46.5037828,18.7763664 46.518749,18.7535233 C46.5337152,18.7314816 46.5268388,18.6869976 46.5151086,18.6585439 C46.5078278,18.6417121 46.4685921,18.6244795 46.4499855,18.6296894 C46.4107498,18.6401091 46.3759636,18.6657575 46.3201438,18.6954135 L46.3201438,18.6954135 Z M36.7260144,14.6277305 C36.6410712,14.6605926 36.5868694,14.671413 36.5460158,14.701069 C36.5274092,14.714294 36.5261957,14.7647894 36.5326675,14.7944454 C36.5359035,14.8092734 36.5771616,14.8245022 36.6002176,14.8237007 C36.7013404,14.8212961 36.699318,14.7375379 36.7260144,14.6277305 L36.7260144,14.6277305 Z M11.0400072,12.9906384 C10.9182553,12.9625854 10.8325032,13.0499504 10.7313803,13.0755989 C10.679201,13.0888239 10.6043701,13.1112662 10.6254036,13.1733836 C10.6541225,13.255138 10.7095378,13.1721813 10.7532229,13.1717805 C10.886705,13.1701775 10.9704347,13.1028503 11.0400072,12.9906384 L11.0400072,12.9906384 Z M33.9916531,4.52104112 C33.9863947,4.47896164 33.8994291,4.43047005 33.8601935,4.45531698 C33.8152949,4.48377072 33.7748458,4.52224339 33.741273,4.56312059 C33.7060823,4.60600159 33.7400595,4.672928 33.7987108,4.68855752 C33.8998336,4.71500748 34.0041924,4.62443641 33.9916531,4.52104112 L33.9916531,4.52104112 Z M33.1511202,4.32266643 C33.0160201,4.28820133 32.9209646,4.32867778 32.8408754,4.40562311 C32.8206508,4.42485945 32.8242912,4.47295028 32.8242912,4.50781614 C32.8242912,4.55109789 32.8517966,4.57474255 32.8950772,4.56432287 C33.020065,4.53426609 33.0969184,4.45451546 33.1511202,4.32266643 L33.1511202,4.32266643 Z M21.1789864,6.93359793 C21.0026282,6.90835024 20.8833032,6.91195705 20.7858208,6.99090617 C20.7081585,7.05342425 20.6462713,7.13517867 20.6834845,7.26702771 C20.7352594,7.26101635 20.7995735,7.2726383 20.8335508,7.2465891 C20.9403365,7.16323166 21.036201,7.06544696 21.1789864,6.93359793 L21.1789864,6.93359793 Z M9.39655901,33.9213722 C9.23193104,33.9846918 9.11948246,34.0103402 9.03089886,34.1037166 C8.96213534,34.1766543 8.88285504,34.2487906 8.77161993,34.2507944 C8.5681608,34.2544012 8.42739783,34.3730252 8.29148875,34.5008667 C8.27692706,34.5148932 8.27894952,34.5469538 8.27126418,34.5782128 C8.30726391,34.5818196 8.33881423,34.5954453 8.35903879,34.5858272 C8.50061075,34.5189008 8.64137373,34.4487683 8.78051874,34.3762313 C8.86182149,34.3337511 8.93503442,34.2668246 9.02119107,34.2423785 C9.14658338,34.2063103 9.23597596,34.1221514 9.33790777,34.0544235 C9.35651437,34.0424008 9.36015479,34.0079357 9.39655901,33.9213722 L9.39655901,33.9213722 Z M7.9492891,36.7242662 C8.02937838,36.7947995 8.10946766,36.8653327 8.17944465,36.9266485 C8.33881423,36.8809622 8.4007014,36.7783684 8.42133046,36.6401073 C8.43589214,36.5439256 8.4100047,36.4733924 8.32303907,36.4397288 C8.24739919,36.4104735 8.17014135,36.3695963 8.0653781,36.4100728 C8.02937838,36.507056 7.98973823,36.6152603 7.9492891,36.7242662 L7.9492891,36.7242662 Z M9.02483149,14.0534458 C9.06973003,14.0818996 9.09642645,14.1099526 9.12797678,14.1175669 C9.28168347,14.1540358 9.41759255,14.0995329 9.54783876,14.0257936 C9.60406305,13.9941338 9.65583794,13.9348218 9.7132757,13.9304134 C9.83300513,13.9215968 9.91633034,13.847056 10.0150262,13.8009689 C10.0299924,13.7941561 10.0380822,13.7741182 10.0461721,13.7645001 L10.0461721,13.58977 C9.99116123,13.58977 9.94221778,13.5765451 9.90500458,13.5917738 C9.75210687,13.6542919 9.60325407,13.7252259 9.45318779,13.7933546 C9.35206496,13.8390409 9.24932417,13.8811203 9.15224625,13.9340203 C9.10734772,13.9588672 9.07498841,14.005355 9.02483149,14.0534458 L9.02483149,14.0534458 Z M20.6353501,37.923331 C20.7672142,38.1120875 20.7655963,38.1064769 20.9443814,38.0543785 C21.0701782,38.0175089 21.1866717,37.9666128 21.2970978,37.8972818 C21.4301755,37.8139244 21.5668936,37.7357768 21.7019937,37.6548239 C21.778038,37.6095383 21.8112063,37.5370013 21.7832964,37.476487 C21.7578135,37.4203811 21.6651849,37.3943318 21.5867136,37.4235871 C21.5612307,37.433606 21.5393881,37.4520408 21.5151187,37.4656666 C21.4265351,37.5153604 21.3335021,37.559043 21.2485589,37.6147482 C21.1235711,37.6969033 20.9985833,37.7726464 20.8400227,37.73217 C20.7668097,37.8011001 20.7004732,37.8628167 20.6353501,37.923331 L20.6353501,37.923331 Z M8.65067703,15.9213739 C8.78213671,16.0327844 8.78213671,16.0307806 8.83876549,16.0335859 C9.14051601,16.0468109 9.39008715,15.9045422 9.63965828,15.7682848 C9.69224215,15.7394303 9.73026434,15.6781145 9.7646461,15.6252146 C9.79093803,15.5855396 9.78810659,15.537048 9.7460395,15.5021822 C9.7181296,15.479339 9.68779275,15.4597019 9.64613014,15.4292444 C9.48595159,15.4897587 9.3176832,15.5386511 9.16357201,15.6151956 C8.99409015,15.6993546 8.83755202,15.8083605 8.65067703,15.9213739 L8.65067703,15.9213739 Z M7.07680134,15.0565405 C7.10592472,15.1619395 7.17023883,15.1903933 7.23414846,15.1795728 C7.45459622,15.1415009 7.67585297,15.0833912 7.82915518,14.9118672 C7.92906453,14.8004568 8.0467715,14.7307251 8.18146711,14.7166986 C8.36591515,14.6970615 8.47755475,14.5820442 8.5960707,14.470233 C8.62114916,14.4465884 8.63611534,14.4081157 8.64582313,14.3736506 C8.65229499,14.350006 8.65067703,14.3079265 8.63571085,14.2979076 C8.60982341,14.2798735 8.56330691,14.2638432 8.53903743,14.2754652 C8.29796061,14.3908832 8.06011972,14.5127133 7.82066086,14.6321389 C7.78021173,14.6521767 7.73935811,14.6722145 7.69688652,14.6866418 C7.46551749,14.7659917 7.27014819,14.9018483 7.07680134,15.0565405 L7.07680134,15.0565405 Z M19.9647035,8.41359333 L19.9679394,8.42882209 L19.9602541,8.4204062 C20.0613769,8.34065556 20.1629042,8.2621072 20.2632181,8.18155506 C20.2988133,8.15310131 20.3271277,8.10821654 20.3667678,8.09218626 C20.5985414,7.9996114 20.7591244,7.81846926 20.9387185,7.66057103 C21.0014147,7.60606808 21.0620884,7.53834016 21.1365148,7.51108869 C21.3881084,7.41931535 21.5620397,7.2205399 21.7731841,7.07426362 C21.9010034,6.98569633 22.0077891,6.86546925 22.1182152,6.75405882 C22.1384398,6.73362021 22.1416757,6.68392635 22.1343949,6.65146504 C22.1218556,6.59656134 22.0660358,6.5829356 22.0231598,6.59616058 C21.8823968,6.63944233 21.7501281,6.69755209 21.6384885,6.80174889 C21.5377702,6.89592677 21.4261306,6.98008573 21.3096371,7.05422577 C21.1939526,7.12716353 21.1264025,7.25821105 20.9807856,7.29668372 C20.9245614,7.31151173 20.8675281,7.36721694 20.8351688,7.41931535 C20.7664052,7.53032502 20.6628555,7.58041964 20.5487889,7.62530442 C20.4804299,7.65215513 20.4084304,7.68181115 20.3530151,7.72829895 C20.2118477,7.84612149 20.0791745,7.97476447 19.9416475,8.09699534 C19.9003894,8.13346422 19.8554908,8.16712781 19.8077608,8.19478004 C19.5836727,8.32302226 19.3571575,8.44685615 19.1334738,8.57469762 C18.9724863,8.66647096 18.8110943,8.75784354 18.6553651,8.85763202 C18.5307818,8.93738266 18.3912323,9.01032042 18.3014352,9.12092934 C18.1978854,9.2487708 18.0599539,9.32090705 17.9377975,9.41708872 C17.7347429,9.57658998 17.5231939,9.72647308 17.3120495,9.87635618 C17.170073,9.97694617 17.0256696,10.0755324 16.8760078,10.1636989 C16.8019859,10.2073814 16.7332224,10.2446518 16.7008631,10.330013 C16.679425,10.3865198 16.6187514,10.3933326 16.5694034,10.4185803 C16.3246862,10.5424142 16.0508456,10.6201611 15.866802,10.8437834 C15.8441505,10.8714357 15.8113867,10.892275 15.7814543,10.9127136 C15.5828491,11.0481695 15.3834349,11.18082 15.1868521,11.3182797 C15.1358862,11.353947 15.0938191,11.4028394 15.0489206,11.4445181 C15.0784484,11.5018264 15.1140437,11.5226657 15.1674365,11.5094407 C15.3579519,11.4617507 15.5286473,11.3783932 15.6928707,11.2681851 C15.9659024,11.0842376 16.2328666,10.8918743 16.5362351,10.7504071 C16.7599188,10.6458095 16.9706588,10.4963272 17.1304329,10.3035631 C17.263915,10.1428595 17.428543,10.0659142 17.6247212,10.0238347 C17.7031926,10.0070029 17.7937986,9.97774769 17.8455735,9.92324474 C17.9062472,9.85912363 17.9754152,9.82666232 18.0494371,9.78939192 C18.2067842,9.71084356 18.3770751,9.64431791 18.5097482,9.5345105 C18.6476798,9.41989402 18.7726676,9.29044952 18.914644,9.17543228 C19.0861483,9.03596886 19.2742368,8.92055086 19.4465501,8.78269047 C19.6115826,8.65003993 19.7915812,8.5358242 19.9647035,8.41359333 L19.9647035,8.41359333 Z M20.7360684,38.7492911 C20.7372819,38.7545009 20.7384953,38.75931 20.7401133,38.7645198 L20.73081,38.7468865 C20.8048319,38.7128222 20.8768314,38.6691397 20.9548982,38.6474988 C21.0171899,38.630667 21.0738186,38.6146367 21.1308519,38.5789694 C21.429771,38.3938197 21.7525551,38.2567608 22.081002,38.1321254 C22.1226646,38.1160951 22.1659452,38.0972595 22.2011359,38.0708096 C22.289315,38.0042839 22.3742582,37.9333499 22.4587969,37.8620152 C22.5409086,37.7922835 22.5413131,37.7734479 22.4725496,37.6187557 C22.4215837,37.6227633 22.3657639,37.6231641 22.3119665,37.633183 C22.2775848,37.6391943 22.2258099,37.6512171 22.2161021,37.674461 C22.1586643,37.8091153 22.0235642,37.8423781 21.9151606,37.9000871 C21.5976349,38.0676035 21.2724239,38.2198912 20.9508533,38.3793924 C20.8845167,38.4122545 20.8206071,38.4499256 20.7583154,38.4900013 C20.7198887,38.515249 20.684698,38.5461073 20.6543612,38.5801717 C20.6183614,38.6218504 20.6300917,38.6651321 20.6689228,38.7003987 C20.6891474,38.7188336 20.7138214,38.73286 20.7360684,38.7492911 L20.7360684,38.7492911 Z M6.36408765,35.5833112 C6.40210984,35.5592658 6.44539041,35.5412317 6.47653624,35.5107742 C6.62134413,35.3685055 6.75927566,35.2190231 6.90570152,35.0787582 C7.11199208,34.8815858 7.28592335,34.648746 7.55410109,34.5172977 C7.65158349,34.4696077 7.72075151,34.3742275 7.77657131,34.2752405 C7.80731265,34.2215391 7.85180669,34.1734483 7.89872768,34.1321703 C8.10784969,33.9494251 8.32101661,33.7726913 8.52852065,33.5887439 C8.56613835,33.5554811 8.58272249,33.4985736 8.62195815,33.4296434 C8.56290242,33.4296434 8.52002634,33.4168192 8.49656584,33.4324487 C8.4520718,33.4617039 8.40393733,33.5005774 8.38492624,33.5466644 C8.35378041,33.6212052 8.30362349,33.6664907 8.23647793,33.7037611 C8.17175932,33.7394285 8.10663622,33.7762981 8.04596252,33.8191791 C7.92623309,33.9049411 7.8093351,33.9951114 7.69122364,34.083278 C7.66088679,34.2427792 7.51850585,34.2816527 7.40282134,34.3493806 C7.37086652,34.3682162 7.34012518,34.3902578 7.31302427,34.414704 C7.01693663,34.6824096 6.74916338,34.976966 6.48543505,35.2751291 C6.43689609,35.3300328 6.39361552,35.3933524 6.36368316,35.4594773 C6.347908,35.4947439 6.3665146,35.5448385 6.36934604,35.5881203 C6.36246969,35.5897233 6.35478435,35.5905248 6.34912147,35.5941316 C6.34588554,35.5961354 6.34588554,35.6029483 6.34426758,35.6077574 C6.35114393,35.5997422 6.35802028,35.5913264 6.36408765,35.5833112 L6.36408765,35.5833112 Z M35.3915976,3.65019627 C35.3284969,3.64939476 35.2637783,3.64178038 35.2018911,3.65139854 C35.1751947,3.65540611 35.1404085,3.69067272 35.1327231,3.71832495 C35.1193749,3.76761806 35.1683184,3.77322865 35.2014866,3.77362941 C35.2884523,3.77523244 35.3616652,3.74437415 35.4089907,3.66742882 C35.4195075,3.65300157 35.4300242,3.63897508 35.440541,3.62454783 C35.4243614,3.63296372 35.4081817,3.64178038 35.3915976,3.65019627 L35.3915976,3.65019627 Z M43.2896949,17.4622844 C43.28565,17.4759101 43.2812006,17.4891351 43.2767512,17.5027609 C43.2791781,17.4871313 43.2816051,17.4719026 43.2844365,17.456273 L43.3281216,17.4490594 C43.3220542,17.4402428 43.3167958,17.4314261 43.3107284,17.4222087 C43.3038521,17.4354337 43.2969757,17.4490594 43.2896949,17.4622844 L43.2896949,17.4622844 Z M6.36368316,14.9651679 C6.39482899,14.9098634 6.42597482,14.854559 6.46844641,14.7792167 C6.38876162,14.7844265 6.32323403,14.7888348 6.23343696,14.7948462 C6.27388609,14.7146948 6.3013915,14.6589896 6.32485199,14.6129025 C6.42921075,14.5407663 6.58453542,14.6096965 6.64763606,14.4726376 C6.63105192,14.3792612 6.53114256,14.4289551 6.49554733,14.3808642 C6.46359251,14.3371817 6.44417693,14.2854841 6.40979517,14.21976 C6.47249132,14.1913062 6.53518748,14.1392078 6.59869261,14.1384063 C6.7018379,14.137204 6.77828675,14.0835026 6.85352214,14.0382171 C7.01046477,13.9444399 7.15567715,13.8314265 7.31909164,13.71681 C7.29401317,13.6603033 7.2697437,13.6053996 7.24466523,13.5500951 C7.31181079,13.5180345 7.38664168,13.4831687 7.46066359,13.4471006 C7.48574206,13.4346771 7.51243848,13.4062234 7.53387652,13.4098302 C7.73571769,13.4434938 7.80690816,13.3000228 7.88497498,13.1633646 C7.90762649,13.1240905 7.93715436,13.0884231 7.94686215,13.0743966 C8.19724227,12.9433491 8.44479095,13.0190921 8.68060939,12.9822225 C8.72065403,12.9758104 8.76717053,13.0026611 8.80964211,13.0178899 C8.99732608,13.0844155 9.17206633,13.0575648 9.3362898,12.9497612 C9.50819861,12.8375493 9.68617478,12.750585 9.89893721,12.734154 C10.0166442,12.7249365 10.1351601,12.6800518 10.213227,12.5798625 C10.2658108,12.5902822 10.3099004,12.5994996 10.3556079,12.6091178 C10.4656295,12.4299794 10.6152913,12.305344 10.8256268,12.2572532 C10.933626,12.2324063 11.0391982,12.1943344 11.1476019,12.1722927 C11.3789709,12.1250034 11.5816211,12.0091846 11.7871027,11.9053886 C12.0831903,11.7559063 12.376851,11.6016148 12.6802195,11.466159 C12.8723528,11.380397 13.0446661,11.2513533 13.2270917,11.1443512 C13.4422811,11.0181127 13.6667738,10.9131144 13.9147269,10.8666266 L13.9074461,10.8586115 C13.9074461,10.9732279 13.8055143,11.0141051 13.7339193,11.0569861 C13.5130671,11.1904382 13.2808891,11.3058562 13.0531605,11.4292893 C12.9483972,11.4861968 12.8497013,11.551921 12.7518144,11.6224542 C12.5968943,11.7342654 12.4148732,11.8128137 12.237706,11.8901598 C11.9460677,12.0176005 11.6855753,12.1935328 11.422656,12.3670606 C11.4000045,12.3814878 11.3850383,12.4067355 11.3676452,12.4251704 C11.3668362,12.48849 11.4072853,12.5117339 11.4554198,12.5069248 C11.5638234,12.4965051 11.679508,12.5233558 11.7765859,12.4500173 C11.7838667,12.4444067 11.79317,12.4379946 11.8016643,12.4383953 C12.0314154,12.445609 12.1895715,12.288913 12.3780645,12.1991434 C12.6632308,12.0640883 12.9415209,11.9218196 13.1947324,11.7330631 C13.2311366,11.7062124 13.2764397,11.6889798 13.3201247,11.6741518 C13.6073135,11.5743634 13.8253344,11.3715803 14.053063,11.1856291 C14.145287,11.1102868 14.2261853,11.020918 14.3212407,10.9507856 C14.4498689,10.8570084 14.515801,10.7335753 14.5384525,10.5816884 L14.5331942,10.5881005 C14.5768792,10.5905051 14.6209688,10.598921 14.6642493,10.5937111 C14.7229006,10.5868982 14.7584958,10.5484256 14.7576868,10.488312 C14.7572823,10.4117675 14.6998446,10.4161758 14.6464517,10.4173781 L14.6444293,10.4193818 C14.6763841,10.3869205 14.703485,10.3464441 14.7415072,10.3227994 C14.959528,10.1861413 15.1573242,10.0162204 15.4068954,9.93206139 C15.5909389,9.86994407 15.7312974,9.7188587 15.9270712,9.67758073 C15.9501272,9.67277165 15.9691383,9.64231412 15.9865314,9.62107401 C16.09898,9.48401513 16.2433834,9.41388266 16.4298539,9.41668796 C16.5095387,9.19066105 16.7417167,9.22512614 16.8974459,9.13375356 C16.9536702,9.17903909 16.916457,9.20268375 16.892592,9.2283322 C16.8861201,9.23514507 16.8756033,9.23875188 16.8711539,9.24636626 C16.7372673,9.49162951 16.5067073,9.61947098 16.2688664,9.74009882 C16.2207319,9.76414423 16.1867546,9.81343734 16.1434741,9.84670017 C16.0787555,9.89679478 16.0229357,9.95169849 15.9379925,9.98215601 C15.8570942,10.0106098 15.7927801,10.0895589 15.726039,10.1512754 C15.6661743,10.2069807 15.6030737,10.2642889 15.6111635,10.3740963 C15.6366465,10.384516 15.6686013,10.4077599 15.7005561,10.4077599 C15.8663975,10.4077599 16.0108009,10.3404327 16.1281034,10.2330299 C16.3339895,10.0442733 16.5839651,9.91923717 16.8015814,9.74851471 C16.9471983,9.63469974 17.1130397,9.55374684 17.2788812,9.47439696 C17.2829261,9.490828 17.2829261,9.51647644 17.2930384,9.52128553 C17.3128584,9.53090369 17.3383414,9.52889991 17.3613974,9.53050294 C17.3622064,9.53050294 17.3674648,9.51166736 17.3646333,9.50886206 C17.3524986,9.49844238 17.3387459,9.48762194 17.3241842,9.48401513 C17.3076001,9.4796068 17.2889935,9.4824121 17.2707913,9.4824121 C17.3035551,9.45115306 17.331465,9.40105844 17.3690827,9.39224179 C17.5361376,9.35336837 17.6433278,9.23915264 17.728271,9.10850587 C17.798248,9.00110301 17.8868316,8.92255465 17.9895724,8.8504184 C18.0712796,8.79351091 18.1448971,8.72498147 18.21811,8.65725355 C18.2350986,8.64162403 18.2346941,8.60755969 18.2480424,8.56107188 C18.2039528,8.56107188 18.1667396,8.55105296 18.1388297,8.56267491 C17.9855275,8.625193 17.8326298,8.68891335 17.6841815,8.7610496 C17.6275527,8.78830107 17.5826541,8.83839569 17.5329017,8.87887214 C17.40306,8.9834697 17.261488,9.06642639 17.1005005,9.11451723 C17.0883658,9.11812404 17.0701637,9.10369679 17.0507481,9.09648316 C17.0839164,8.96703867 17.2428814,8.9630311 17.2962743,8.856029 L17.2881845,8.86003657 C17.3217573,8.83398736 17.3884983,8.79832 17.3836444,8.78349199 C17.3508806,8.67488686 17.4192397,8.60956347 17.495284,8.59152941 C17.683777,8.54664463 17.8176636,8.42321149 17.9653029,8.3170109 C18.0170778,8.27974051 18.078156,8.25529433 18.1331668,8.22163075 C18.1635037,8.20279517 18.196672,8.18235657 18.2160875,8.15430358 C18.3362215,7.98117658 18.498827,7.87337297 18.6986457,7.80404201 C18.7904652,7.77238221 18.8697455,7.70064672 18.9490258,7.63893015 C19.0003962,7.59885446 19.0319465,7.62610593 19.0687552,7.65295665 L19.0529801,7.66017027 L19.0643058,7.64814756 C19.1189121,7.63051426 19.173923,7.61288095 19.2289338,7.59484689 L19.2228664,7.58883553 C19.1561253,7.66057103 19.0893843,7.73270728 19.0246657,7.80243899 C19.0865528,7.93028045 19.1265975,7.95873419 19.2018329,7.91745623 C19.3061916,7.85974723 19.4093369,7.79682839 19.5068193,7.72789819 C19.5816502,7.67539903 19.6386835,7.59644992 19.7414243,7.58963705 C19.7580084,7.58883553 19.7778285,7.57721358 19.7891542,7.5639886 C19.9044343,7.42933427 20.0399389,7.32072914 20.2017354,7.24538683 C20.2700944,7.09029389 20.4161158,7.09109541 20.5495979,7.08388178 C20.5835752,6.98168876 20.5055084,6.99651677 20.4598008,6.97968498 L20.4658682,6.98569633 C20.5722494,6.91516311 20.6770127,6.84182459 20.7858208,6.77489818 C20.8553933,6.73161643 20.9306287,6.69194149 21.0184033,6.72119675 C21.0681558,6.73802854 21.1065824,6.73041416 21.1385373,6.68593014 C21.1911211,6.61259161 21.2833451,6.57892803 21.3254122,6.49036075 C21.3496817,6.4386631 21.4127824,6.42784266 21.4726471,6.44507521 L21.4677932,6.43826234 C21.4455462,6.46791836 21.4208722,6.49557059 21.4026701,6.52723038 C21.3407829,6.63543476 21.3767826,6.71799069 21.4799279,6.79653905 C21.6186684,6.69033846 21.7610494,6.59415679 21.8872507,6.48114334 C22.0494517,6.33647008 22.2233829,6.26353231 22.4401903,6.3260504 C22.524729,6.35049657 22.5878296,6.31522996 22.6282788,6.24629977 C22.6432449,6.21984981 22.6335371,6.17937336 22.6351551,6.14570977 C22.593088,6.14210296 22.5659871,6.13969842 22.5388862,6.13769463 C22.5388862,6.12286663 22.5324143,6.10122575 22.5396952,6.0952144 C22.5821667,6.06115006 22.6270653,6.02949026 22.6723683,5.99863197 C22.7403228,5.95254492 22.8123223,5.91206847 22.8766364,5.86117234 C22.9757368,5.78182247 23.0728147,5.70968622 23.2010384,5.67041204 C23.3106556,5.63714921 23.4210817,5.59106216 23.523418,5.54257057 C23.6249453,5.49447974 23.6904729,5.37665719 23.782697,5.30171565 C23.8526739,5.24480816 23.9347857,5.19631657 24.0189199,5.1634545 C24.1681772,5.10454323 24.2976144,5.02238805 24.3999507,4.90015719 C24.546781,5.04883801 24.6135221,5.04322742 24.7231392,4.88372615 C24.7372964,4.86328755 24.7563075,4.846055 24.7732962,4.82721942 L24.7680378,4.82160882 C24.7757231,4.8348338 24.7834085,4.84845954 24.7910938,4.86208528 C24.804442,4.84845954 24.8177902,4.8348338 24.8315429,4.82160882 L24.82588,4.82641791 C24.9047558,4.76430058 24.9820137,4.69937796 25.0633164,4.64046669 C25.1725291,4.5603153 25.3068202,4.57915087 25.4314035,4.56312059 C25.457291,4.55951378 25.4957177,4.59718493 25.5171557,4.62483716 C25.5616497,4.68294692 25.5992674,4.74706803 25.6397166,4.8087846 C25.6122111,4.89374507 25.5794474,4.97790403 25.5588183,5.06446753 C25.5454701,5.12177578 25.6049303,5.17146964 25.6627726,5.16024844 C25.6898735,5.1550386 25.7206148,5.15263406 25.7416484,5.1374053 C25.854097,5.05765467 25.9774668,4.98672069 26.0704998,4.88853523 C26.1704092,4.78313616 26.2695095,4.72823246 26.4078456,4.78113237 C26.5631702,4.66531362 26.6922029,4.52625096 26.8819094,4.48377072 C27.0582676,4.32226567 27.2985354,4.24131277 27.4481972,4.04574338 L27.4417253,4.04293808 C27.459523,4.08221226 27.4663993,4.13310839 27.4963317,4.15715381 C27.5371853,4.18961512 27.5950276,4.20083632 27.6411396,4.21927114 C27.7620825,4.16677198 27.876958,4.11667736 28.0092267,4.05896836 C28.0314737,4.09463573 28.0496758,4.13310839 28.0767767,4.16476819 C28.1273381,4.2232787 28.1811355,4.23530141 28.2462586,4.2028401 C28.318258,4.16677198 28.3736733,4.09423497 28.4679198,4.11106676 L28.4626614,4.10144859 C28.3388871,4.27657938 28.1605064,4.37236029 27.9594742,4.42485945 C27.7661274,4.47535482 27.6019039,4.5779486 27.4380849,4.68214541 C27.3855011,4.71580899 27.317951,4.76670512 27.3082432,4.81880353 C27.2819513,4.95946921 27.1844689,5.00715929 27.0732338,5.06446753 C26.8968756,5.15463785 26.7532811,5.2816778 26.7108095,5.49047217 C26.6954389,5.56581447 26.7346745,5.61230228 26.8163818,5.60027957 C26.9239765,5.58424929 27.0319756,5.56661599 27.154132,5.54737965 C27.1913452,5.49728503 27.2370527,5.43957603 27.2783109,5.37906174 C27.4150289,5.17988553 27.6213195,5.11095534 27.8482391,5.09252052 C27.9040589,5.08771144 27.9602832,5.1029402 27.9970919,5.0508418 C28.0278333,5.00756005 28.0516982,4.9586677 28.0751587,4.91017611 C28.085271,4.88813448 28.0864845,4.86168452 28.0917429,4.84004364 C28.1184393,4.83683759 28.1402818,4.82721942 28.1540345,4.83403229 C28.3340332,4.9213973 28.4553806,4.83122699 28.5629753,4.70338553 C28.5920986,4.66851967 28.6135367,4.62644019 28.6402331,4.58876904 C28.6608622,4.55871227 28.6774463,4.514629 28.7069742,4.50340781 C28.9310624,4.41564204 28.9707025,4.15515002 29.158791,4.03372067 C29.1749706,4.02330099 29.1765886,3.95677534 29.1600044,3.93954279 C29.1418023,3.92030645 29.0912409,3.91589813 29.061713,3.92591705 C28.9715115,3.95637458 28.9039614,4.01769039 28.8509731,4.09784178 C28.8222542,4.14112353 28.7809961,4.1767909 28.7377155,4.22448098 C28.6568172,4.15675305 28.5876492,4.09864329 28.5184812,4.04053354 L28.5269755,4.04494186 C28.6968619,3.93673749 28.8853548,3.85618534 29.0236909,3.70149316 C29.0584771,3.66261974 29.1199598,3.648994 29.1672853,3.62054026 C29.2862057,3.54960628 29.4039127,3.47666851 29.5220242,3.40413151 C29.5964506,3.35844522 29.6506524,3.26707263 29.7647189,3.3111559 C29.78373,3.31836952 29.8346959,3.28149988 29.8492576,3.25384765 C29.8969876,3.16528037 29.9346053,3.07150324 29.9766724,2.97812687 C30.0333012,2.95728751 30.112986,2.95247843 30.1461542,2.91120046 C30.2076369,2.8354574 30.2412097,2.73807346 30.2840858,2.65351375 C30.3536583,2.63387666 30.4292982,2.61263654 30.5037246,2.59139642 C30.5106009,2.66673873 30.5344659,2.75089769 30.5207132,2.82824378 C30.4887584,3.00377532 30.5745105,3.12760922 30.6760379,3.25024084 C30.763408,3.35523916 30.8499691,3.46063824 30.9332943,3.56202974 C31.0218779,3.57244942 31.0805292,3.54239265 31.1290681,3.475867 C31.2156293,3.35724295 31.3086623,3.24382873 31.3968414,3.13081527 C31.5218292,3.14644479 31.5044361,3.28029761 31.6031319,3.3372051 L31.8984106,3.3372051 C31.9578708,3.48788971 32.0193535,3.62534934 31.8939612,3.77362941 C31.8700962,3.80208315 31.8785905,3.85778837 31.8717142,3.90347466 C31.9869942,3.96559199 32.1002518,3.93152765 32.2082509,3.94114581 L32.2029926,3.937539 C32.2430372,3.97601167 32.2964301,4.00807222 32.320295,4.05456003 C32.416564,4.24291579 32.5864503,4.25173245 32.7490558,4.20444313 C32.8873919,4.16396668 33.021683,4.15234473 33.160019,4.15835608 C33.2603328,4.16316516 33.3432536,4.13471142 33.4116126,4.06578123 C33.5220387,3.95557306 33.6409592,3.85698686 33.7024418,3.70189392 C33.7570482,3.56443429 33.8848674,3.47626776 33.9908442,3.38810123 C34.2137189,3.38329215 34.2816734,3.57645699 34.4268858,3.68265759 C34.3540773,3.7411681 34.2828869,3.79807559 34.2112919,3.85538383 C34.208056,3.93433295 34.2331344,4.01809115 34.1481913,4.08020848 C34.0960119,4.11787963 34.1077421,4.17919544 34.138888,4.23049233 C34.1752922,4.29100663 34.2262581,4.32426945 34.3014935,4.30904069 C34.3649986,4.29581571 34.4289082,4.28339225 34.4928179,4.27136954 C34.6420752,4.24371731 34.7464339,4.15795532 34.7982088,4.01929342 C34.8249052,3.94835944 34.8617139,3.89746331 34.9159158,3.84215885 C34.9826568,3.77443093 35.0117802,3.67023412 35.0619371,3.57204867 C35.1420264,3.54720174 35.2302055,3.52035102 35.3321373,3.48869122 C35.3487215,3.32197633 35.4445859,3.21377196 35.6177082,3.17369626 C35.6799999,3.15926901 35.7398646,3.1324183 35.8017517,3.11197969 C36.0027839,3.04465253 36.0444465,2.99135185 36.0784238,2.75771055 C35.9890312,2.69599398 35.8996386,2.63387666 35.8070101,2.56975555 C35.8341111,2.45313528 35.8575715,2.34853771 35.8822455,2.24193637 C35.8138865,2.15737665 35.7172131,2.12211004 35.6225621,2.08443889 C35.5283156,2.04636698 35.4348781,2.00188296 35.3369912,1.97503224 C35.231419,1.94617774 35.1209929,1.93455579 34.9923646,1.91171264 C34.9689041,1.89087328 34.9312864,1.85119834 34.8876014,1.81913779 C34.8439163,1.78667648 34.7945684,1.76182954 34.7468384,1.73297504 C34.7391531,1.65282366 34.7322767,1.58068741 34.7249959,1.5081504 L34.7217599,1.51536402 C34.8799161,1.49131861 35.0352407,1.48009741 35.1658914,1.60232828 C35.1840935,1.61916007 35.2213067,1.63318657 35.2435537,1.62717521 C35.3742044,1.59030557 35.4470129,1.66003728 35.5254842,1.74900532 C35.5626974,1.7910848 35.6383373,1.80911886 35.7002244,1.81873703 C35.8191449,1.83757261 35.9400878,1.84438548 36.0606262,1.85400364 C36.0966259,1.85680894 36.1374795,1.86402257 36.1686254,1.8515991 C36.2875458,1.80350827 36.4084887,1.83997715 36.5282181,1.83316428 C36.6135658,1.8283552 36.6653407,1.87724755 36.7211605,1.93335352 C36.7122617,2.00068068 36.6811159,2.07642375 36.699318,2.13814032 C36.7138797,2.18903645 36.7862836,2.22350155 36.8332046,2.26558103 C36.8449348,2.31447337 36.8004408,2.32369078 36.7745533,2.34613317 C36.6734305,2.43229591 36.6576554,2.47237161 36.7332952,2.5757669 C36.7883061,2.65030769 36.8056992,2.72084092 36.7959914,2.8066029 C36.7794072,2.95167692 36.7644411,3.09675093 36.7478569,3.25264538 C36.8016543,3.30955287 36.8918558,3.34922781 36.9132939,3.4526231 C36.9205747,3.49029425 36.9666867,3.53998811 37.0034954,3.54840401 C37.1252473,3.57565548 37.1980558,3.6546046 37.2534711,3.75238929 C37.2817855,3.80128164 37.3173807,3.82011722 37.3659196,3.80769375 C37.4314472,3.79086196 37.4460089,3.73235145 37.4439865,3.67664623 C37.441964,3.62214329 37.4241664,3.5680411 37.4140541,3.51353815 C37.4055598,3.46945489 37.3986834,3.42537163 37.3889757,3.3716702 C37.5766596,3.29793092 37.7251079,3.36084976 37.8614215,3.46344354 C37.9338254,3.51714497 37.9973306,3.58246835 38.0729705,3.64979552 C38.0879366,3.78605288 38.0879366,3.78605288 38.235576,3.9142951 C38.4746303,3.79126272 38.7197521,3.66542504 38.978222,3.53277449 C39.0223116,3.54439644 39.0841987,3.56323202 39.1472994,3.57685775 C39.2977701,3.60931906 39.3317474,3.59208652 39.4106232,3.4498178 C39.4280163,3.418158 39.444196,3.38609745 39.4648251,3.34722402 C39.5999252,3.32999147 39.7536319,3.35043008 39.8118786,3.13081527 C39.8486873,3.21818029 39.8697209,3.24302722 39.8656759,3.26266431 C39.8260358,3.44019963 39.8143055,3.6257501 39.7172276,3.78805666 C39.6941716,3.82733084 39.6820369,3.87341789 39.6605988,3.91389434 C39.5614985,4.10024632 39.5970937,4.29260966 39.6472506,4.47936239 C39.6674752,4.5547047 39.7338118,4.6180243 39.7851822,4.6961719 C39.7419016,4.87851631 39.6460372,5.0480365 39.5525997,5.21394987 C39.4761508,5.35020724 39.3968705,5.4752434 39.3552079,5.63234013 C39.3163767,5.77701338 39.256512,5.92689648 39.1541757,6.05153189 C39.1088727,6.10683635 39.0692326,6.1789726 39.0603337,6.24750204 C39.0393002,6.41421693 39.1323332,6.56450078 39.1537712,6.72800961 C39.1663105,6.82699658 39.2488267,6.90434267 39.3438822,6.95483805 C39.3592528,6.96285318 39.3689606,6.981288 39.3806909,6.99491374 C39.4413646,7.18727707 39.3624888,7.37122451 39.3430732,7.55757649 C39.3337699,7.64894908 39.2698602,7.72108533 39.1752093,7.76276405 C39.0825808,7.80364126 38.9944017,7.85614042 38.9062226,7.90743731 C38.7096398,8.02165304 38.5834385,8.1811543 38.5765621,8.41679938 C38.5757532,8.44405086 38.5660454,8.47090157 38.5624049,8.49815304 C38.5611915,8.50656894 38.5668543,8.51578635 38.5741352,8.54263706 C38.6416852,8.59313244 38.7209655,8.65284522 38.8111671,8.72017239 C38.7326958,8.82476995 38.6619098,8.91894784 38.5975957,9.00511058 C38.5927418,9.13976491 38.7112577,9.14096718 38.7788078,9.19627164 C38.768291,9.22151933 38.7577742,9.24636626 38.7472575,9.27161395 L38.7529203,9.24917156 L38.7545383,9.26520184 C38.7120667,9.32371235 38.6493706,9.31088813 38.5899104,9.31168964 L38.5947642,9.31449494 L38.5288322,9.31449494 L38.5357085,9.30848359 C38.535304,9.33012446 38.535304,9.35176534 38.535304,9.37380697 L38.5316636,9.36939864 C38.5061806,9.47199242 38.3787659,9.46718334 38.3362943,9.55775441 C38.3411482,9.61506265 38.3403392,9.69321026 38.4135521,9.70883978 C38.5215513,9.73128217 38.6352134,9.72607232 38.7270329,9.64952775 C38.7541338,9.6266846 38.7779988,9.5950248 38.791347,9.56256349 C38.862133,9.39464633 38.9818624,9.25878973 39.0761089,9.10650209 C39.1578162,8.97505381 39.2674333,8.88929182 39.3871627,8.80713665 C39.4721059,8.74942765 39.5614985,8.75343522 39.6448237,8.81715557 L39.6573629,8.82396844 L39.6375428,8.81915936 C39.6601944,8.80713665 39.6828459,8.79471318 39.7046884,8.78309123 C39.7200591,8.79952227 39.7431151,8.81394952 39.7410926,8.82356768 C39.7054974,9.00831664 39.8078337,9.15419216 39.8757882,9.31008662 L39.8826646,9.30728132 C39.8612265,9.32892219 39.8389795,9.35056307 39.817137,9.37220394 L39.8207774,9.36779562 C39.7228905,9.41668796 39.7952945,9.49403405 39.7892271,9.55935744 C39.7180366,9.59622707 39.628644,9.60985281 39.6019476,9.70362994 C39.585768,9.71364886 39.5691838,9.72366778 39.5530042,9.73328595 C39.560285,9.73488898 39.5724197,9.73969806 39.5740377,9.73769428 C39.5821275,9.72487005 39.5881949,9.71004205 39.5954757,9.69601555 C39.6262171,9.71164507 39.6573629,9.72687384 39.6970031,9.74651093 C39.6565539,9.79580403 39.6254081,9.83668124 39.5910263,9.87555467 C39.5477458,9.92404626 39.5392515,9.97133558 39.5384425,10.041468 C39.537229,10.1208179 39.5263077,10.224614 39.4324658,10.2875328 C39.3875672,10.3183911 39.3681516,10.3869205 39.3455001,10.4249924 C39.4005109,10.5103537 39.444196,10.5780816 39.4882856,10.6458095 C39.4721059,10.6518209 39.4288253,10.6389966 39.4636116,10.6806754 C39.4700834,10.6674504 39.4769598,10.6542254 39.4834317,10.6410004 C39.5081056,10.6494163 39.5339931,10.6550269 39.5566446,10.6674504 C39.6140823,10.6983087 39.653318,10.6914958 39.6743516,10.6241686 C39.6783965,10.6117452 39.69943,10.6045315 39.7127782,10.5949134 L39.7059019,10.5893028 C39.6897222,10.6410004 39.6800144,10.6963049 39.654936,10.7431935 C39.629453,10.7904828 39.5881949,10.8289554 39.5562401,10.8686304 C39.6464417,11.0309369 39.6529135,11.035746 39.5663524,11.164389 C39.5113416,11.2461434 39.511746,11.3515425 39.4300388,11.4228772 C39.3899942,11.4581438 39.4587577,11.5715581 39.5174089,11.5595354 C39.6165093,11.5394975 39.6998345,11.555127 39.7795193,11.611233 L39.7795193,11.7867645 C39.7499914,11.7867645 39.721677,11.7935774 39.698621,11.7855623 C39.6084195,11.7522994 39.5198359,11.7198381 39.4514768,11.8240349 C39.4652295,11.8532902 39.4797912,11.8837477 39.5004203,11.9266287 C39.4086008,11.9642999 39.3200172,12.0007687 39.235074,12.0356346 C39.2496357,12.1446405 39.3147588,12.1979412 39.375837,12.2548487 L39.3705786,12.2496388 C39.375028,12.3097524 39.374219,12.3706674 39.3847358,12.4295787 C39.3928256,12.4744635 39.3568259,12.4680513 39.3382193,12.4816771 C39.2039282,12.5810648 39.1837036,12.7277418 39.1727823,12.8760219 C39.1675239,12.9457536 39.2799725,13.0134815 39.3374103,12.9685968 C39.4753418,12.8595909 39.6436102,12.8439614 39.8037888,12.796672 C39.9028891,12.7385623 39.8976308,12.5646338 40.0695396,12.5682406 C40.0756069,12.7337532 40.0189782,12.8627969 39.8656759,12.9365362 C39.9223047,13.0816102 40.1395166,12.9762112 40.1674265,13.1473344 C40.0497195,13.1890131 39.9396979,13.1942229 39.8300807,13.1176784 C39.7876091,13.0884231 39.7212725,13.0751981 39.6901267,13.1557503 C39.7301714,13.2018373 39.7681935,13.2511304 39.8114741,13.296416 C39.8365526,13.3228659 39.8693164,13.3629416 39.8976308,13.3617393 C40.1112022,13.3533234 40.2333585,13.5464883 40.4226605,13.5901708 C40.4703905,13.6009912 40.4873791,13.6863525 40.4485479,13.7007797 C40.3575374,13.7344433 40.3251781,13.7961599 40.305358,13.8843264 C40.2924143,13.9420354 40.2467068,13.9925308 40.2082801,14.0582549 C40.4307503,14.1864971 40.6467487,14.282278 40.8930839,14.2914954 C40.9371734,14.2930985 40.9921842,14.2882894 41.0245435,14.2638432 C41.1511493,14.1700661 41.2915078,14.105945 41.4359112,14.0462322 C41.4844502,14.0261944 41.5285397,13.9885232 41.5669664,13.950852 C41.6927632,13.8278197 41.8023803,13.8238121 41.9160424,13.9420354 C41.9726712,14.0013474 42.0305134,14.0598579 42.1029174,14.133998 C42.0944231,14.1876994 42.0839063,14.2582326 42.0709626,14.3476014 C42.1085803,14.3684408 42.1542878,14.3932877 42.2080851,14.4229437 C42.5037683,14.0835026 42.7925751,13.7512751 43.0874492,13.4126355 C43.1691565,13.4951914 43.23792,13.5645223 43.3127509,13.6394639 C43.4102333,13.5629193 43.495581,13.4963937 43.5732433,13.4354786 C43.6056026,13.4422915 43.6286586,13.4398869 43.6391754,13.4503066 C43.7026805,13.5152292 43.7589048,13.5873655 43.8256459,13.6482806 C43.8948139,13.7120009 43.9991726,13.647479 44.0837113,13.71681 C44.1354862,13.7592902 44.2418674,13.7364471 44.3385409,13.7440615 C44.3624058,13.8302242 44.3397543,13.9199938 44.3288331,14.0077595 C44.3187208,14.0895139 44.2875749,14.1696653 44.285148,14.2514198 C44.2815076,14.4049097 44.2568336,14.5447738 44.1233515,14.6437608 C44.0072625,14.9443285 43.7564779,15.1475123 43.5675804,15.3955808 C43.5315807,15.4424694 43.5040753,15.4797398 43.5065022,15.5398533 C43.5129741,15.6925417 43.4810193,15.8332074 43.3629078,15.9438163 C43.3503686,15.9554383 43.3447057,15.9754761 43.3362114,15.9915064 C43.2638074,16.1265615 43.2961667,16.2243462 43.4357162,16.2792499 C43.4781878,16.2956809 43.5259178,16.3000893 43.5716253,16.3101082 L43.5659625,16.3036961 C43.5542322,16.3281422 43.5263223,16.3594013 43.5336031,16.3758323 C43.5837601,16.4940556 43.5687939,16.6074698 43.5145921,16.7088613 C43.6112655,16.8371036 43.6982311,16.9529223 43.7900506,17.0743517 C43.913825,17.0739509 44.0416442,17.0619282 44.1795758,17.1621175 C44.1888791,17.1829568 44.1820027,17.2402651 44.1253739,17.2915619 C44.0703631,17.340855 44.0222286,17.3977625 43.9672178,17.4474564 C43.8936004,17.5143828 43.866095,17.5989425 43.8588142,17.7047424 C43.9057352,17.7376044 43.95751,17.7740733 44.0088804,17.8101414 C43.9696448,17.8838807 43.9441618,17.93117 43.9202968,17.9772571 C43.9401169,18.0578092 44.0881607,18.1856507 44.1617782,18.1820439 C44.1876656,18.1808416 44.2236653,18.1724257 44.236609,18.1539909 C44.332069,18.0189358 44.4611017,18.0525994 44.5868985,18.0842592 C44.6851899,18.1091061 44.7802454,18.1427697 44.8728739,18.1716242 C44.9315251,18.1343538 44.985727,18.1006902 45.0350749,18.0694312 C45.1467145,18.0962819 45.19404,18.1728265 45.2344891,18.2497718 C45.2332756,18.3399421 45.1535908,18.3463542 45.1090968,18.3880329 C44.9946258,18.4958366 44.8906715,18.6120561 44.7191672,18.6332962 C44.678718,18.6381053 44.6415048,18.681387 44.6067186,18.7118446 C44.5306742,18.7783702 44.4517984,18.8436936 44.3834394,18.9182344 C44.3300465,18.9767449 44.2900019,19.0472781 44.2600695,19.0897584 C44.2580471,19.2027718 44.4420906,19.1638984 44.3486531,19.2837247 C44.3834394,19.2953467 44.4008325,19.3069686 44.4166077,19.3049648 C44.5363371,19.2909383 44.6394824,19.2540687 44.7454591,19.1811309 C44.9319296,19.052488 45.1244675,18.9318601 45.3667578,18.8969943 C45.6159244,18.8609261 45.8299003,18.7170544 46.0341684,18.5731827 C46.1114263,18.5186797 46.1890886,18.4894245 46.2833351,18.4685851 C46.3864804,18.4461427 46.5013559,18.4477457 46.5939844,18.3772125 C46.6566806,18.3303239 46.7327249,18.3303239 46.8079603,18.3515641 L46.8022974,18.3463542 C46.7950166,18.3728042 46.7735785,18.4128799 46.7836908,18.4241011 C46.9005888,18.551141 46.9584311,18.7274741 47.1319578,18.8312701 C47.239148,18.8284648 47.3637314,18.8240565 47.4219781,18.6926082 C47.4802249,18.562763 47.4470566,18.4866192 47.2889005,18.3375376 C47.3548326,18.289046 47.4191467,18.2750195 47.4887192,18.3219081 C47.5348312,18.3527663 47.5789207,18.3868307 47.6222013,18.4212958 C47.6662909,18.4557609 47.7079535,18.491829 47.7451667,18.5222865 C47.7451667,18.6148614 47.7479981,18.6886007 47.7447622,18.7619392 C47.7407173,18.8481019 47.7641778,18.9262495 47.8086718,18.9987865 C47.8329413,19.0380607 47.8644916,19.0737281 47.8826937,19.1158076 C47.9555022,19.2825224 48.0190073,19.4424245 47.9947378,19.6403984 C47.961165,19.9161192 47.9162665,20.1830233 47.8293009,20.4491259 C47.7443577,20.7100187 47.7136163,20.9877433 47.6476843,21.2554489 C47.6173474,21.378882 47.565168,21.4983076 47.5158201,21.6165309 C47.4122703,21.8625957 47.3006307,22.1050536 47.1991034,22.3515191 C47.101621,22.5903703 46.9762287,22.8147942 46.8609487,23.0448287 C46.7023881,23.3614266 46.4609068,23.6151058 46.2695824,23.9056546 C46.1377182,24.1048308 46.0062585,24.3048085 45.889765,24.5128013 C45.753047,24.7572631 45.5746663,24.9720688 45.3841509,25.1692412 C45.2009163,25.3596008 45.0706701,25.5760095 44.938806,25.7968266 C44.9250533,25.8196697 44.91575,25.8469212 44.9096826,25.8733712 C44.8619526,26.1001996 44.8623571,26.1001996 44.7393917,26.2665137 C44.751122,26.297372 44.7616388,26.3326386 44.7770094,26.3655007 C44.8162451,26.4496597 44.8041104,26.5254027 44.7462681,26.597539 C44.6706282,26.6909153 44.6038872,26.7878985 44.5606066,26.9033165 C44.5335057,26.9762543 44.5136856,27.0335625 44.5529212,27.1101071 C44.5885165,27.1786365 44.5678874,27.2555819 44.518135,27.3176992 C44.449776,27.4034612 44.3842484,27.494433 44.3045636,27.5697753 C44.1310368,27.7348872 43.9567011,27.9008006 43.726141,27.9901694 C43.7006581,28.000589 43.6788155,28.0266382 43.6533326,28.0298443 C43.4737384,28.0510844 43.3608854,28.1753191 43.2338751,28.2815197 C43.1060558,28.3877203 42.9681243,28.4826997 42.8374736,28.5856942 C42.6497896,28.734375 42.447544,28.8674263 42.2995002,29.0605912 C42.1057488,29.1255138 42.0139293,29.3134688 41.8565822,29.42528 C41.7089428,29.5302783 41.5875955,29.6721463 41.4589672,29.8015908 C41.2567216,30.0047745 41.0629702,30.2163742 40.8562752,30.4139474 C40.67749,30.5850706 40.4776713,30.7357552 40.3377173,30.9417443 C40.281493,31.0251017 40.1666175,31.0367237 40.1338537,31.1561492 C40.1091797,31.2451173 40.0157422,31.3172535 39.9494056,31.3937981 C39.8830691,31.4703427 39.8139011,31.5432804 39.7443286,31.616619 C39.7063064,31.6570954 39.6694977,31.6999764 39.6254081,31.7324377 C39.4296343,31.875508 39.3046465,32.0863061 39.120603,32.2401968 C39.1133221,32.2458074 39.1056368,32.2522195 39.1007829,32.2602346 C38.8322006,32.7046741 38.3872602,32.9731812 38.0183641,33.3170307 C37.7821412,33.5370462 37.5208398,33.7306119 37.2704597,33.9362002 C37.2146399,34.0564272 37.0621467,34.0616371 36.9921697,34.1850702 C36.9335184,34.2884655 36.7972049,34.3477775 36.6977,34.4291312 C36.5981951,34.5108856 36.5079936,34.6038612 36.4028258,34.676799 C36.3069614,34.7429239 36.2410293,34.8282851 36.1868275,34.9248676 C36.0759969,35.1216392 35.9190542,35.2739269 35.7459319,35.4165963 C35.5190123,35.6049521 35.3026095,35.8061321 35.0647686,35.9692402 C35.0813527,36.1319475 35.0243194,36.2621935 34.9159158,36.3495585 C34.6647267,36.5519407 34.4398295,36.7843798 34.1874269,36.9855598 C34.1659889,37.0027923 34.1413149,37.016418 34.1182589,37.0316468 L34.1085511,37.0204256 L34.1227083,37.0276392 C33.8674743,37.2216056 33.6134538,37.4167742 33.3578153,37.6095383 C33.1531426,37.7642305 32.9464476,37.9165181 32.740966,38.0700081 C32.6572363,38.065199 32.6677531,38.165789 32.6074839,38.1874298 L32.6107198,38.1946435 C32.5888773,38.1581746 32.5666302,38.1501594 32.5435742,38.193842 L32.5492371,38.1854261 C32.5500461,38.20867 32.5508551,38.2319139 32.5512596,38.2551578 L32.5423608,38.251551 C32.251936,38.4795817 31.9611068,38.7068108 31.6723,38.9364446 C31.3179656,39.217776 30.9895186,39.5311679 30.5931171,39.7595993 C30.5000841,39.8129 30.434961,39.911887 30.3524448,39.9852255 C30.2832768,40.045339 30.2104684,40.103048 30.134424,40.1539442 C30.0349191,40.2200691 29.9216616,40.2681599 29.8290331,40.3422999 C29.575417,40.5454837 29.3027899,40.7206145 29.0333987,40.9013559 C28.7805916,41.0712768 28.5395148,41.2580296 28.2879212,41.430355 C28.1204618,41.5449715 27.9489574,41.6539774 27.7717903,41.7533651 C27.6844201,41.8022575 27.5792524,41.817887 27.4866239,41.859165 C27.4384894,41.8800043 27.3721528,41.9172747 27.362445,41.9585527 C27.3361531,42.0743715 27.2330078,42.0835889 27.1577724,42.1272714 C27.0056837,42.2138349 26.9806053,42.1978046 26.9162911,41.9946208 C26.9717064,41.9313012 27.0307622,41.862371 27.0914359,41.7950439 C27.1889183,41.6872403 27.2997489,41.616707 27.457905,41.6399509 C27.5080619,41.6471646 27.575612,41.6331381 27.6144431,41.6030813 C27.7968687,41.4612133 27.971609,41.3109295 28.1491806,41.1634509 C28.1556525,41.1578403 28.1601019,41.1486229 28.1706187,41.1333942 C28.1649558,41.0708761 28.157675,41.0007436 28.1507986,40.9254013 C28.1293606,40.924199 28.0970013,40.9117756 28.0759677,40.9221952 C27.7705768,41.0756852 27.4663993,41.2303773 27.1630308,41.3874741 C26.9591672,41.4928731 26.7415509,41.5674139 26.5384962,41.6732138 C26.3823626,41.7545674 26.2278469,41.8391271 26.0688818,41.915271 C26.0053767,41.9461292 25.9329728,41.959755 25.8629958,41.9813958 C25.8569284,41.9477323 25.8549059,41.9296982 25.8504565,41.9124657 C25.8411532,41.8784013 25.8415577,41.8299097 25.8185017,41.8126772 C25.7845244,41.7874295 25.7327496,41.7718 25.690278,41.7746053 C25.6478064,41.7770098 25.6069528,41.8058643 25.5660991,41.8255014 C25.3792242,41.9148702 25.1891132,41.9854034 24.9654295,41.9180763 C24.9472274,41.974583 24.9306433,42.0254791 24.9116322,42.0847911 C24.6252524,42.2118311 24.3311872,42.3448824 24.034695,42.4707201 C23.9772573,42.4951663 23.9072803,42.5039829 23.8453931,42.4983723 C23.7737981,42.4919602 23.7054391,42.4486784 23.6346531,42.4450716 C23.5755974,42.4422663 23.5149237,42.4727239 23.4267446,42.4959678 C23.455059,42.4366557 23.4639578,42.3997861 23.4862048,42.3757407 C23.5440471,42.3140241 23.5577998,42.2470977 23.5230135,42.1733584 C23.4979351,42.1192562 23.4793285,42.0587419 23.5205866,42.0170632 C23.6233274,41.9144694 23.6022938,41.801456 23.5715525,41.6832327 C23.5622492,41.6479661 23.5521369,41.6131002 23.5428336,41.5782344 C23.5484965,41.5774328 23.5541594,41.5762306 23.5602267,41.5754291 C23.5537549,41.5778336 23.547283,41.5798374 23.5408111,41.5826427 C23.4623398,41.484858 23.3324981,41.5205254 23.2338022,41.471633 C23.2026564,41.4564043 23.1444097,41.4836557 23.1031515,41.5016898 C23.0012197,41.545773 22.9045463,41.6006768 22.8018055,41.6423555 C22.7528621,41.6619926 22.6954243,41.6680039 22.6420315,41.6688054 C22.5643691,41.6696069 22.5574928,41.6583858 22.4980325,41.5181208 C22.6084587,41.4115195 22.7087725,41.285281 22.6266608,41.1149593 C22.5538524,40.963874 22.4765945,40.808781 22.2059898,40.8440476 C22.3075171,40.7562819 22.3754717,40.7093933 22.4280556,40.648879 C22.5170436,40.5470867 22.4652688,40.4156385 22.3289552,40.4120316 C22.1914281,40.4084248 22.0470247,40.4056195 21.9216324,40.4761528 C21.8188916,40.5342625 21.7254541,40.6084026 21.6024888,40.6921608 C21.5729609,40.6881532 21.5102648,40.6793365 21.4508045,40.6713214 C21.4406923,40.648879 21.4249171,40.6320472 21.4273441,40.6180207 C21.4524225,40.4769543 21.4807369,40.3362886 21.5106693,40.1848025 C21.3464458,40.1315018 21.2590757,40.0176868 21.2218625,39.8686052 C21.2113457,39.8289303 21.2166041,39.7652099 21.242087,39.7415653 C21.338356,39.652998 21.3225808,39.5435913 21.3250077,39.4393945 C21.2780868,39.3917045 21.2352107,39.3484227 21.1919301,39.305141 C21.1971885,39.3031372 21.2024469,39.3015342 21.2081098,39.2995304 C21.2020424,39.3031372 21.1963795,39.3063432 21.1907166,39.3091485 C20.8408317,39.3989181 20.499441,39.5103285 20.1766569,39.6742381 C20.077961,39.7243327 19.9804786,39.7764311 19.8834007,39.827728 C19.8429516,39.7944652 19.8514459,39.7616031 19.8866366,39.7395615 C19.9485238,39.6994858 20.0148604,39.6666237 20.0783655,39.6281511 C20.1839378,39.5636292 20.2721169,39.4850808 20.2814202,39.3359993 C20.245016,39.2859046 20.2017354,39.2269934 20.1568368,39.164876 C20.173421,39.1163844 20.1766569,39.0506603 20.2114432,39.018199 C20.2923414,38.9416544 20.2955774,38.8651098 20.2591731,38.7705312 C20.2470384,38.7388714 20.2571507,38.6991965 20.2571507,38.6607238 C20.334004,38.6030148 20.4100484,38.5517179 20.4792164,38.4920051 C20.5435305,38.4367007 20.5807437,38.3689727 20.5823617,38.2759971 C20.5839797,38.1902351 20.5427216,38.1385375 20.4759805,38.078424 C20.3683858,38.1180989 20.2478474,38.1581746 20.1968815,38.2735926 C20.1402527,38.4006325 20.0484332,38.4599446 19.9202094,38.4679597 C19.7563904,38.4779786 19.6726607,38.5717558 19.6354475,38.7160283 C19.567493,38.7392722 19.5076283,38.7665236 19.4449321,38.7805501 C19.3696968,38.7977827 19.3146859,38.8382591 19.2560347,38.8867507 C19.1727095,38.9560817 19.076845,39.0129892 18.9793626,39.0622823 C18.6905558,39.2069555 18.4037715,39.3552356 18.1270994,39.5223512 C18.0563135,39.5652322 17.9952353,39.6257465 17.9216179,39.6626162 C17.8500229,39.6986843 17.7958211,39.7728243 17.6991476,39.7620039 C17.6700243,39.7583971 17.6259347,39.7836448 17.6081371,39.8088924 C17.473846,39.999252 17.2542072,40.0709875 17.0701637,40.1912146 C16.7926826,40.3723567 16.5071118,40.5414761 16.2304397,40.7238206 C16.14671,40.7787243 16.0811824,40.8604787 16.006756,40.9298096 C15.9533631,40.9799042 15.9028017,41.0344072 15.844555,41.0776889 C15.7988475,41.1117533 15.752331,41.1297873 15.7701286,41.2051296 C15.775387,41.225969 15.7139043,41.2768651 15.6746686,41.2900901 C15.5343101,41.3377802 15.3935472,41.3898786 15.2483348,41.4127217 C15.097864,41.4367672 14.9639774,41.4800489 14.8345402,41.5614026 C14.7455521,41.6175085 14.6569685,41.7016675 14.5319807,41.6692062 L14.5303627,41.6752175 C14.5360256,41.6307335 14.542093,41.5866503 14.5505873,41.5249337 C14.3240721,41.4531982 14.1100962,41.3698407 13.8702329,41.5141133 C13.8172445,41.4756406 13.7589978,41.4331603 13.7019645,41.3914816 C13.6206618,41.3798597 13.5575611,41.4163286 13.4989099,41.4652209 C13.4515844,41.5044951 13.3913152,41.5157163 13.3439897,41.4792474 C13.2736082,41.425546 13.2044402,41.4335611 13.1348677,41.4644194 C13.0305089,41.5109072 12.9237232,41.527739 12.8149151,41.5157163 C12.7477695,41.4415762 12.7295674,41.3594211 12.7611177,41.2792697 C12.8201735,41.1301881 12.7898366,40.9891217 12.7323988,40.8536658 C12.6931632,40.7606902 12.6988261,40.6841456 12.7319944,40.5899677 C12.7971175,40.4084248 12.7667806,40.3515174 12.6207592,40.2320918 C12.563726,40.1860047 12.5026478,40.1711767 12.4399516,40.1811956 C12.3675477,40.1928176 12.2971662,40.2212713 12.2284027,40.2481221 C12.1855266,40.2645531 12.1483134,40.2950106 12.1062463,40.314247 C11.8837761,40.4156385 11.8404955,40.3555249 11.7535299,40.2260804 C11.7329008,40.1960237 11.7106538,40.1667684 11.6884068,40.1367116 C11.4627006,40.0685829 11.2483202,40.0749951 11.0436476,40.2000312 C11.0056254,40.2228744 10.955873,40.2397062 10.9121879,40.2373016 C10.7592902,40.230088 10.6173138,40.2693622 10.4785733,40.3226629 C10.2892713,40.3951999 10.118576,40.3851809 9.95758845,40.2501258 C9.89529679,40.1976267 9.82167937,40.1615586 9.73107332,40.1535434 C9.63601786,40.1447268 9.6157933,40.0870178 9.66352327,39.9968475 C9.72338798,39.8830325 9.78527516,39.770019 9.85080275,39.6590093 C9.90136416,39.5740489 9.91147644,39.4971035 9.86576893,39.4005211 C9.83219615,39.3295871 9.84433089,39.2390161 9.83300513,39.1572617 C9.81156709,38.9929513 9.72338798,38.9063878 9.55714206,38.9071893 C9.40869375,38.9079908 9.25984094,38.9280287 9.11139263,38.9364446 C9.0478875,38.9396506 8.98195541,38.9436582 8.92006824,38.9312347 C8.78335018,38.9039833 8.65027254,38.8735257 8.50708261,38.9007772 C8.45004934,38.9111969 8.37117353,38.8919606 8.32425254,38.8574955 C8.17580423,38.7488903 7.99540111,38.686773 7.86960431,38.5453058 C7.79355994,38.4607461 7.70376287,38.4018348 7.58120201,38.3970257 C7.53994389,38.3950219 7.49949476,38.35695 7.4602591,38.3369122 C7.37572042,38.1553693 7.43518064,37.9902574 7.52376424,37.8363668 C7.56947176,37.7574176 7.6139658,37.6800716 7.6560329,37.5995194 C7.69688652,37.5205703 7.77252639,37.4564492 7.84048093,37.3943318 C7.92623309,37.3161842 7.97396307,37.2208041 8.00632237,37.0933634 C7.75230183,37.0849475 7.50192171,37.0124105 7.29846258,37.2147927 C7.23657541,37.1999647 7.18439603,37.1871405 7.12574479,37.1735148 C7.12574479,37.1089929 7.12291335,37.0548907 7.12614928,37.0019908 C7.13423911,36.8853705 7.16740739,36.7719563 7.11644149,36.6525307 C7.07032948,36.5447271 7.11037412,36.4445379 7.1763062,36.3427456 C7.3813833,36.0257469 7.62893198,35.7376026 7.81944739,35.4101842 C7.86758185,35.3272275 7.96425528,35.2715223 8.04110862,35.2053974 C8.12038892,35.1364672 8.10825418,35.0571173 8.0051089,35.02145 C7.9444352,35.0006106 7.8793121,34.993397 7.82470577,34.981775 C7.58443794,35.1432801 7.51001153,35.4522637 7.22727211,35.5772999 C7.17307027,35.499553 7.12291335,35.4278175 7.06749804,35.3480669 C7.02502645,35.3721123 6.98902673,35.3845358 6.96475725,35.4085812 C6.8134775,35.5580635 6.66543368,35.7111527 6.51496291,35.8614365 C6.43689609,35.9391834 6.40534577,36.0261476 6.43244668,36.1371573 C6.44741286,36.1980724 6.45145778,36.264598 6.44377244,36.3263146 C6.43689609,36.3772107 6.4457949,36.4152826 6.47572725,36.4533545 C6.53518748,36.5315021 6.48786199,36.5932187 6.43891854,36.6493247 C6.39766043,36.696614 6.33779572,36.7058314 6.28844778,36.6689618 C6.20876299,36.6084475 6.13716803,36.538315 6.05343833,36.4653772 C6.09105602,36.3174979 6.01541614,36.1660118 6.07649433,36.0125219 C6.09388746,35.9692402 6.07851679,35.8951001 6.0497979,35.8550244 C5.94907957,35.717164 5.96809066,35.5797044 6.02471944,35.4362334 C6.02795537,35.4282183 6.02512393,35.4177986 6.02512393,35.3905471 C5.91672026,35.3192124 5.93006848,35.1773444 5.87586664,35.0555143 C5.84188937,35.0454954 5.80750761,35.0338734 5.77312585,35.0242553 C5.52598166,34.9553251 5.52598166,34.9553251 5.33061235,35.1024029 C5.28126441,35.0402856 5.33223032,34.9941985 5.36620759,34.9593326 C5.46935287,34.8543343 5.56966672,34.74613 5.67159853,34.6399294 C5.87020376,34.434341 6.09226949,34.2515959 6.30179599,34.0560265 C6.53842341,33.8348087 6.77262388,33.6111863 7.00480189,33.3851594 C7.02583544,33.3647208 7.04120611,33.3126224 7.02947586,33.2913822 C7.01653214,33.2673368 6.96880216,33.2485012 6.93725184,33.2501043 C6.85473561,33.2545126 6.77302837,33.2701421 6.69132112,33.2821648 C6.63711929,33.2905807 6.58372643,33.3010004 6.52992909,33.3106186 C6.50768207,33.2837679 6.49069343,33.2625277 6.47289581,33.2424899 C6.43770507,33.2024142 6.40939068,33.1435029 6.36449214,33.1274726 C6.29289718,33.1010227 6.21442587,33.1298772 6.15901056,33.1827771 C6.08579763,33.2529096 6.02148351,33.3322594 5.95352897,33.4080025 C5.89811366,33.4701198 5.84917021,33.53905 5.78728304,33.5939537 C5.66998056,33.6977498 5.53083555,33.7811072 5.42809476,33.896926 C5.32616295,34.012344 5.26144434,34.1586203 5.17447871,34.2872633 C5.12917568,34.3553919 5.08346816,34.4291312 4.99043516,34.4479668 C4.881627,34.4275282 4.83632397,34.345373 4.82863864,34.2503936 C4.82297576,34.1758528 4.87151472,34.1201476 4.93785129,34.0712553 C5.02683938,34.0059319 5.1049062,33.9237767 5.17771464,33.8400185 C5.28611831,33.7145816 5.38238724,33.5795265 5.5377119,33.5005774 C5.58422841,33.4773335 5.61335178,33.4216282 5.65218295,33.3827548 C5.69101411,33.3454844 5.72660935,33.291783 5.77353034,33.2773557 C5.92359662,33.2308679 5.98629277,33.102225 6.06476408,32.991616 C6.12786473,32.902648 6.12786473,32.7932414 6.07973026,32.7010673 C6.03361825,32.6125 5.96080982,32.5367569 5.89568671,32.4586093 C5.82570972,32.3740496 5.72296893,32.3608246 5.62305957,32.3596223 C5.55106012,32.2405975 5.52759962,32.1311909 5.58180146,32.00896 C5.64126168,31.8727027 5.69303657,31.7376476 5.85564207,31.6811408 C5.93128195,31.6546909 5.99600056,31.5945773 6.06274163,31.5460857 C6.20633604,31.4418889 6.35437986,31.3509171 6.53599646,31.3260702 C6.5804905,31.3200588 6.62579353,31.303227 6.66583817,31.2827884 C6.95424047,31.1361114 7.23172151,30.9709995 7.50515764,30.7978725 C7.65279697,30.7044962 7.79679587,30.6027039 7.95131155,30.5205487 C8.31252229,30.3281854 8.63247492,30.0757085 8.9734611,29.8552922 C9.15426871,29.7386719 9.31161583,29.5972047 9.43377221,29.4200701 C9.45885067,29.384002 9.46855846,29.337915 9.49242345,29.2774007 C9.27278467,29.2429356 9.07822434,29.2301114 8.91359638,29.3904141 C8.81206906,29.4890003 8.70568785,29.5791707 8.54672276,29.5427018 L8.55117217,29.5483124 C8.61103688,29.4942102 8.66928363,29.438505 8.73157529,29.3872081 C8.8521137,29.2870188 8.97912397,29.1940432 9.09561747,29.0898464 C9.28127898,28.9235323 9.45237881,28.7411879 9.64451218,28.5832896 C9.80469074,28.4518414 9.92158873,28.2899356 10.0356553,28.1240222 C10.119385,28.0025928 10.2047326,27.8839688 10.3175857,27.7853826 C10.3952481,27.7172539 10.3932256,27.7148493 10.4308433,27.5517413 C10.3831133,27.4972383 10.3313384,27.5180777 10.281586,27.5461307 C9.99075674,27.7108418 9.72702841,27.9128233 9.48271566,28.1380487 C9.36824461,28.2438485 9.23193104,28.3292097 9.15831362,28.4770891 C9.13687558,28.5203708 9.0757974,28.548023 9.0288764,28.5752745 C8.8755742,28.6638418 8.73400224,28.764031 8.60213807,28.8838574 C8.41809453,29.0517745 8.21948929,29.2028599 7.98731128,29.3050529 C7.94119927,29.268584 7.97760349,29.2385272 7.99944602,29.2164856 C8.16366949,29.0533775 8.32870195,28.8914717 8.49616135,28.7319705 C8.54267785,28.6870857 8.5960707,28.6498153 8.64825008,28.6109419 C8.83391159,28.47228 9.02240454,28.3376256 9.10249382,28.1039843 C9.1223139,28.0466761 9.17692022,28.0025928 9.20442563,27.9464869 C9.22262774,27.9096172 9.22020079,27.8627287 9.22586367,27.8238552 C9.16923489,27.7597341 9.11584204,27.7958022 9.0757974,27.8290651 C8.96173085,27.9224414 8.84645082,28.0170201 8.74451901,28.1228199 C8.6474411,28.2250129 8.53701497,28.3047636 8.41647656,28.3756975 C8.32910644,28.4269944 8.25265758,28.4975277 8.16690542,28.5528321 C8.13252366,28.5748737 8.08600716,28.5796828 8.01400771,28.6017245 C8.05850175,28.4626618 8.15962458,28.4053536 8.22191624,28.3231984 C8.28784832,28.2366349 8.37157803,28.1636971 8.37238701,28.0510844 C8.33315135,28.0001883 8.29512917,28.0242337 8.26843274,28.0426685 C8.20735455,28.0843472 8.15113026,28.1332396 8.09409699,28.1797274 C7.97153612,28.2787144 7.85463813,28.3829112 7.70780779,28.4502383 C7.63378588,28.4839019 7.57108972,28.5436147 7.50758459,28.5969154 C7.36560814,28.7155394 7.23172151,28.8445832 7.08408218,28.9559936 C6.81752241,29.1567728 6.5804905,29.3912156 6.32404301,29.6032161 C6.26700974,29.6501046 6.22130222,29.7142257 6.13999947,29.7186341 C6.1060222,29.7206379 6.0546518,29.7182333 6.04009011,29.697394 C6.01662962,29.6641311 6.0032814,29.6112312 6.01096674,29.571957 C6.01946106,29.5302783 6.0502024,29.484592 6.08458416,29.4577413 C6.33658224,29.2641757 6.50080571,28.9920617 6.71923102,28.7684394 C6.80174725,28.6834789 6.88345449,28.5981177 6.9388698,28.487108 C6.97850995,28.4069566 7.05050941,28.3408317 7.11563251,28.2759091 C7.2139239,28.1777236 7.31383325,28.0803397 7.42183243,27.9933754 C7.53225856,27.9044074 7.5718987,27.7901916 7.59171878,27.6519305 C7.53549449,27.6146601 7.48331511,27.580195 7.43922556,27.5517413 C7.40605727,27.5621609 7.38542821,27.5629625 7.37208,27.5733821 C7.00844231,27.8751521 6.6456136,28.1777236 6.28157142,28.4798944 C6.24597619,28.5091496 6.20876299,28.5376034 6.16993182,28.5620495 C6.05101138,28.6349873 6.01824758,28.6257699 5.87910257,28.4794936 C6.10238177,28.2310243 6.34224512,27.9869633 6.42476135,27.6250798 C6.38916611,27.6250798 6.35559333,27.6178662 6.32687445,27.6262821 C6.09752788,27.6936092 5.928855,27.8579196 5.73955307,27.9897686 C5.63357635,28.0635079 5.52436369,28.1328388 5.41636451,28.2037728 L5.42081392,28.2093834 C5.44063399,28.0767329 5.56400384,28.0258367 5.64287965,27.9424793 C5.81964235,27.754925 6.00085446,27.5737829 6.1197749,27.3405424 C6.15981954,27.2611925 6.22130222,27.1874532 6.2872343,27.1265381 C6.42152542,27.0019027 6.51658088,26.8688514 6.49797428,26.6740836 C6.49069343,26.5943329 6.510918,26.5121777 6.51819884,26.4352324 C6.40049187,26.2769334 6.24233577,26.280941 6.09226949,26.3422568 C5.93694483,26.4059772 5.78202466,26.4548695 5.61456525,26.4761096 C5.53447597,26.4857278 5.45317322,26.5213952 5.38117377,26.5602686 C5.24202876,26.6352101 5.11501849,26.6227867 4.99448008,26.5286088 C4.92207613,26.4717013 4.85169464,26.4123893 4.78293112,26.3510735 C4.70769574,26.284147 4.63529179,26.2140146 4.55277556,26.1366685 C4.48886594,26.1663245 4.42657428,26.1843586 4.37722634,26.2204267 C4.27731698,26.2925629 4.17659865,26.3053872 4.06536354,26.2556933 L4.06495904,26.2637084 C4.0855881,26.193576 4.10702614,26.1230428 4.13250909,26.0392846 C4.04473448,25.9298779 3.97111706,25.8104523 3.9832518,25.6509511 C3.9877012,25.5864292 3.92702751,25.5187013 3.90154455,25.4501718 C3.85826398,25.3323493 3.84896068,25.2229427 3.94522962,25.1159406 C3.99862247,25.0570293 4.0297683,24.9744733 4.05848718,24.8979288 C4.0948914,24.8021479 4.02572339,24.7003556 3.92338709,24.706367 C3.85260111,24.7103745 3.77938818,24.736023 3.71426508,24.7676828 C3.6062659,24.8201819 3.50109816,24.8802955 3.40078431,24.9468211 C3.28833573,25.0209612 3.16739283,25.0470104 3.03431518,25.0578308 C2.91418127,25.0670482 2.80860903,25.0634414 2.74227246,24.952031 C2.69009308,24.8646659 2.58613881,24.9071462 2.51171241,24.8478342 C2.53840884,24.7272063 2.5913972,24.6165974 2.68038529,24.521618 C2.78312608,24.4122114 2.8660468,24.292385 2.85917045,24.1140482 C2.78717099,24.0647551 2.70627273,24.0094506 2.62901489,23.9561499 C2.45265668,23.9305015 2.37661231,24.0972164 2.20106309,24.1629405 C2.26901763,24.0659574 2.31472514,24.0014355 2.36569105,23.9284977 C2.36609554,23.9220856 2.37337638,23.9040515 2.37014045,23.8880213 C2.32888234,23.6808299 2.29571405,23.6527769 2.10358068,23.6579868 C2.06636748,23.6587883 2.02874979,23.6599906 1.99234557,23.6643989 C1.93693026,23.6720133 1.88191944,23.682433 1.82286371,23.6924519 C1.76057205,23.6331399 1.7346846,23.5634081 1.75167324,23.4736386 C1.76502145,23.4031054 1.78686398,23.3221525 1.76461696,23.2596344 C1.72861723,23.1582429 1.73913401,23.0905149 1.82084125,23.0191802 C1.84875115,22.994734 1.84349277,22.933819 1.856032,22.8905372 C1.88920029,22.7783253 1.92884043,22.6857504 2.04937884,22.617221 C2.19863614,22.5322605 2.31877006,22.3960032 2.45144321,22.2821882 C2.45791507,22.285795 2.46479142,22.2898026 2.47126328,22.2934094 C2.46357795,22.2910048 2.45548812,22.2881995 2.44780278,22.2853942 C2.57966695,22.2204716 2.70546375,22.1535452 2.81184496,22.0437378 C2.91660821,21.9351327 3.05494424,21.8597904 3.17143774,21.7616049 C3.25435846,21.6914724 3.33202079,21.6225423 3.35750374,21.4979068 C3.37934627,21.3913055 3.50069367,21.3291882 3.59372667,21.2798951 C3.64833299,21.2502391 3.70172585,21.2221861 3.7506693,21.1829119 C3.82266875,21.1252029 3.8946682,21.0654901 3.9970045,21.0674939 C4.02208296,21.0682954 4.05039736,21.0526659 4.07345336,21.0390401 C4.2951146,20.9087941 4.5183938,20.7805519 4.73601013,20.643493 C4.79142544,20.6090279 4.83713296,20.5673492 4.90751444,20.5653454 C4.9329974,20.5645439 4.96171628,20.5489144 4.98274983,20.5320826 C5.32090456,20.2619724 5.71811503,20.0752197 6.05101138,19.7978959 C6.09388746,19.7622285 6.13352761,19.716943 6.18328004,19.6969051 C6.30260497,19.6488143 6.37986281,19.5646553 6.44498591,19.4588555 C6.51455842,19.3454413 6.61365879,19.2737058 6.7483544,19.2352331 C6.85109519,19.2059779 6.93967879,19.1450628 7.02179052,19.0613046 C7.15689062,18.9246465 7.32515901,18.8200489 7.48129265,18.7046309 C7.58201099,18.6304909 7.65522391,18.5427251 7.66493171,18.4204943 C7.61679724,18.3667928 7.57028074,18.3864299 7.53185407,18.40767 C7.37005754,18.4982411 7.20623856,18.5868084 7.0509139,18.6873984 C6.91985871,18.7719581 6.77424184,18.8312701 6.65693936,18.9422798 C6.60273753,18.9935767 6.50282817,19.0296448 6.42921075,19.0216297 C6.31271726,19.0088055 6.23303247,19.0548925 6.1476848,19.1118 C6.08620212,19.1526772 6.02391046,19.1939552 5.9567649,19.2240119 C5.91793374,19.2416452 5.86575436,19.2496604 5.82449624,19.2400422 C5.73308121,19.2184013 5.67119404,19.2592785 5.64935151,19.3326171 C5.60202602,19.489313 5.46085856,19.5249804 5.34355608,19.5939106 C5.14859126,19.5201713 5.03209777,19.7257596 4.8581665,19.7289657 C4.83349253,19.7293664 4.80598712,19.7494043 4.78616705,19.7674384 C4.47956264,20.0519758 4.11026207,20.2519535 3.78019716,20.5048311 C3.74500642,20.5312811 3.69808543,20.5577311 3.65642282,20.5585326 C3.33282977,20.5625401 3.10671913,20.7528997 2.8797995,20.945263 C2.85310308,20.9681062 2.8239797,21.0001667 2.79242938,21.0053766 C2.63831819,21.0302235 2.52182469,21.1219968 2.39966832,21.2061558 C2.21643376,21.3315927 2.03562614,21.461438 1.84632421,21.5772567 C1.71769597,21.6562058 1.59918002,21.7379603 1.52313565,21.8726146 C1.50736049,21.9002668 1.46327094,21.9126903 1.41715893,21.941144 C1.3856086,21.8942555 1.35850769,21.8497714 1.32695736,21.8088942 C1.24808156,21.708705 1.17486863,21.6077142 1.02682481,21.5888787 C0.919634614,21.5748522 0.899410049,21.4943 0.96453315,21.4105418 C1.20399201,21.0991537 1.24403665,21.0602803 1.59877552,20.8154178 C1.80991999,20.6691415 2.02389589,20.5244682 2.24191671,20.3902146 C2.36569105,20.3136701 2.49876869,20.2467437 2.62173405,20.1649892 C2.65894725,20.1401423 2.70708171,20.1321272 2.75036229,20.1160969 C2.80173268,20.0964598 2.86806926,20.0900477 2.90164204,20.0539796 C3.03997806,19.9061003 3.22887551,19.8511966 3.40159329,19.7654346 C3.46712089,19.7329733 3.52981704,19.6924968 3.58725481,19.6472113 C3.72599533,19.5378046 3.87242118,19.4444283 4.03624016,19.3734943 C4.1369585,19.3302125 4.22877802,19.2648891 4.32342899,19.2079817 C4.35497931,19.1891461 4.38127125,19.1510742 4.41363055,19.1454636 C4.70081938,19.0973727 4.87920005,18.8589224 5.13119814,18.7471112 C5.25537697,18.6922075 5.35690429,18.5884114 5.47137533,18.5114661 C5.68575572,18.3679951 5.89245078,18.2096961 6.12017939,18.0902705 C6.41545805,17.9351776 6.67918638,17.7347991 6.9623303,17.5624736 C7.01693663,17.5292108 7.06709355,17.4879328 7.11644149,17.4470556 C7.3441701,17.2586999 7.57270769,17.0735502 7.84007644,16.9380943 C7.97355858,16.8703664 8.05688379,16.7397196 8.09571495,16.5934433 C8.10542274,16.5557722 8.09005207,16.4984639 8.06456912,16.4680064 C8.02533346,16.4199156 7.96708672,16.3866528 7.9258286,16.3537907 C7.38785516,16.6531561 6.86201646,16.9453079 6.33617775,17.2378605 C6.27145914,17.2739286 6.20471808,17.3083937 6.14444887,17.3512747 C5.96283227,17.4815207 5.76988992,17.5905266 5.57249816,17.6959257 C5.37672436,17.8005233 5.19713022,17.9339753 5.00904176,18.0538017 C4.95443544,18.0882668 4.89821114,18.1207281 4.84036889,18.1495826 C4.44963028,18.3419459 4.05848718,18.533107 3.69687195,18.778771 C3.54397424,18.882567 3.37246992,18.9595124 3.21431382,19.0568963 C3.02541638,19.1731158 2.84137283,19.2973505 2.6565203,19.4199821 C2.46479142,19.5478235 2.27346703,19.6768673 2.08376061,19.8079148 C1.97050304,19.8860624 1.8604814,19.9690191 1.74965078,20.0495712 C1.5906857,19.8680283 1.53527039,19.8351663 1.35244032,19.8407769 C1.28933967,19.8427807 1.21248632,19.8515973 1.16839677,19.8880662 C0.995678981,20.0315372 0.778062656,20.0968606 0.596850548,20.224702 C0.496536704,20.295636 0.414424967,20.3737836 0.360223132,20.4875986 C0.317347053,20.5761659 0.246156582,20.6519089 0.18993229,20.7308581 C-0.0195942086,20.6278635 -0.0547849526,20.4843925 0.0795061625,20.3393185 C0.117123854,20.2988421 0.167280777,20.2651785 0.192359238,20.2182899 C0.225932017,20.1549703 0.272044026,20.1213067 0.338785092,20.106078 C0.442334868,20.0828341 0.521615165,20.0215183 0.598873005,19.9525881 C0.672894915,19.8868639 0.735591068,19.8119224 0.846421687,19.7830679 C0.915994192,19.7646331 0.968173571,19.6764665 1.02480235,19.6159522 C1.08143114,19.5554379 1.12835213,19.4869085 1.22381208,19.4776911 C1.25617138,19.474485 1.29581153,19.4520426 1.31563161,19.4259934 C1.40381071,19.3097739 1.53405691,19.2576755 1.65823575,19.1967605 C1.85764996,19.0993765 2.03886207,18.9735388 2.19742266,18.8240565 C2.29611854,18.7314816 2.36650003,18.6052432 2.43081415,18.4842146 C2.45144321,18.4445397 2.46317345,18.4088723 2.5028136,18.3820216 C2.66905953,18.2706112 2.85876596,18.2333408 3.05049484,18.1996772 C3.12249429,18.186853 3.19732518,18.1800401 3.26406625,18.1531894 C3.40199779,18.0982857 3.55287304,18.0542024 3.66532163,17.9648336 C3.84127535,17.8249694 4.04432999,17.7428143 4.23403641,17.6334076 C4.35376584,17.5648782 4.47956264,17.5023601 4.5835169,17.4149951 C4.69353854,17.3224202 4.82216678,17.2747302 4.94634561,17.2150174 C5.07416486,17.1533008 5.18499548,17.0695426 5.25942188,16.948514 C5.28611831,16.9048315 5.2913767,16.847924 5.30917431,16.7878105 C5.08427715,16.7433264 4.9236941,16.862752 4.75825715,16.9529223 C4.70041489,16.9845821 4.65228043,17.0254593 4.58149445,17.0146389 C4.57987648,17.0094291 4.57866301,17.0042192 4.57704504,16.9990094 C4.58028097,17.0054215 4.58311241,17.0118336 4.58634834,17.017845 C4.55924743,17.0683403 4.51515787,17.0759547 4.46419197,17.065535 L4.47106832,17.0735502 C4.4674279,17.0014139 4.46378748,16.9288769 4.46095604,16.8767785 C4.58877529,16.7874097 4.70729124,16.7184795 4.80881856,16.630313 C4.90144707,16.5489593 5.04504149,16.585829 5.12149035,16.4812314 C5.28571382,16.4303353 5.3795558,16.2772461 5.52274573,16.2015031 C5.66714912,16.12576 5.83460853,16.0936994 5.97982091,16.0195594 C6.10925813,15.9534345 6.22292018,15.8552491 6.3434586,15.7718916 C6.38876162,15.7410333 6.4316377,15.6969501 6.48219911,15.6849273 C6.64804055,15.6452524 6.72529839,15.5318382 6.77100591,15.3687301 C6.74430948,15.3230438 6.71235467,15.2689416 6.6783774,15.2108319 C6.71882653,15.1098411 6.80215174,15.0397087 6.89680271,14.9787936 C6.94331921,14.9491376 6.98619529,14.9146725 7.03109382,14.8818104 C7.10996963,14.8232999 7.12129539,14.7491599 7.08246422,14.6633979 C6.80053378,14.6004791 6.79163497,14.5784374 6.61851269,14.8617726 C6.53640095,14.8946347 6.45145778,14.928699 6.36611011,14.9627633 L6.36368316,14.9651679 Z" id="Fill-1" fill="#FFE8F3"></path>
            <path d="M2,17.5 C1.89555372,17.6606171 1.80614138,17.7828702 1.69140872,17.8268609 C1.64604316,17.8442525 1.60542517,17.909727 1.56322465,17.9557638 C1.42660048,18.1056389 1.29155882,18.2611408 1.15308838,18.4038547 C1.10825033,18.44938 1.06420354,18.5342922 1.0040678,18.4851863 C1.00301279,18.4606334 0.996946464,18.4284077 1.00195778,18.4212464 C1.15625342,18.1782747 1.31160407,17.9373491 1.47908737,17.6774972 C1.53421179,17.6954004 1.60094136,17.7056308 1.67215473,17.6381102 C1.7676334,17.5475713 1.87629973,17.5306912 2,17.5" id="Fill-3" fill="#FFE8F3"></path>
            <path d="M36.8638655,0.50832603 C36.9078319,0.504382121 36.9344538,0.50219106 36.9586555,0.5 C37.0772437,0.645486415 36.9917311,0.868974584 37.1361345,1.00131464 C37.0740168,1.16914987 37.0469916,1.3514461 36.9227563,1.5 C36.9009748,1.47063979 36.8691092,1.44609991 36.8723361,1.43076249 C36.942521,1.13102542 36.8775798,0.833041192 36.8638655,0.50832603" id="Fill-5" fill="#FFE8F3"></path>
            <path d="M35,1.37582243 C35.3656775,1.39109346 35.6369382,1.40234579 35.8947109,1.41319626 C36.0348373,1.48030841 36.0333386,1.54380374 35.9007056,1.62417757 L35.2218044,1.62417757 C35.1671026,1.56309346 35.0959154,1.48352336 35,1.37582243" id="Fill-7" fill="#FFE8F3"></path>
            <path d="M40.1666892,9.30750467 C40.173143,9.47026168 40.148538,9.57193458 40.0948909,9.69249533 C39.9980842,9.61694393 39.9137817,9.55103738 39.8323027,9.48794393 C39.8855464,9.32036449 40.0416472,9.40234579 40.1666892,9.30750467" id="Fill-9" fill="#FFE8F3"></path>
            <path d="M6.93872018,37.5901956 C6.92621598,37.5837657 6.921779,37.5584479 6.91532522,37.5411676 C6.8967706,37.4881208 6.87781262,37.4294479 6.94073699,37.3964947 C6.96655211,37.3824293 7.01535883,37.3848405 7.03956052,37.4009152 C7.11095547,37.4487377 7.11740926,37.4973638 7.08030001,37.5652797 C7.04319077,37.6335975 6.98954371,37.6151115 6.93872018,37.5901956" id="Fill-11" fill="#FFE8F3"></path>
            <path d="M34.9565155,1.42364486 C35.0194399,1.47508411 35.0662298,1.51366355 35.1432718,1.57635514 L34.8665659,1.57635514 C34.8246163,1.46905607 34.9286836,1.48472897 34.9565155,1.42364486" id="Fill-13" fill="#FFE8F3"></path>
            <path d="M7.02249005,38.3929354 C7.05153206,38.4704961 7.06605307,38.5098793 7.07976736,38.5452438 C7.03701106,38.6011036 6.9853808,38.6328513 6.94141442,38.5802064 C6.88655727,38.5147017 6.94706148,38.4712999 7.02249005,38.3929354" id="Fill-15" fill="#FFE8F3"></path>
            <path d="M13.8709079,10.5719346 C13.9358491,10.4951776 14.0241852,10.457 14.1064709,10.4180187 C14.1234121,10.4308785 14.1375297,10.438514 14.136723,10.4413271 C14.1209919,10.4875421 14.103244,10.5329533 14.084286,10.5819813 C14.0032104,10.5751495 13.9334289,10.5695234 13.863244,10.5634953 L13.8709079,10.5719346 Z" id="Fill-17" fill="#FFE8F3"></path>
            <path d="M21.1266555,6.40254673 C21.0955966,6.51145327 21.0024202,6.53516355 20.8664874,6.59745327 C20.9552269,6.46684579 21.0447731,6.43871495 21.1335126,6.4093785 L21.1266555,6.40254673 Z" id="Fill-19" fill="#FFE8F3"></path>
            <path d="M14.1016471,10.5355547 C14.0431597,10.5580593 13.9862857,10.5873958 13.8983529,10.5773491 C13.9596639,10.5210874 14.004437,10.4804986 14.0697815,10.4206201 C14.0822857,10.4788911 14.0895462,10.5106388 14.096,10.5419846 L14.1016471,10.5355547 Z" id="Fill-21" fill="#FFE8F3"></path>
            <path d="M40.9388221,13.4300105 C41.0231246,13.4195619 41.0638641,13.4521133 41.0610406,13.5308797 C41.0602339,13.5457488 41.0432927,13.5726741 41.0376457,13.5718703 C41.0170742,13.5682535 40.9892423,13.5602161 40.9807717,13.5445432 C40.9618137,13.5103844 40.9529398,13.4705993 40.9388221,13.4300105" id="Fill-23" fill="#FFE8F3"></path>
            <path d="M14.0596838,42.4884288 C14.0314485,42.5290175 14.0028099,42.5679988 13.9507762,42.5274101 C13.9410956,42.5193727 13.9366586,42.4844101 13.9439191,42.4787839 C13.9834485,42.4458306 14.0237846,42.4466344 14.0596838,42.4884288" id="Fill-25" fill="#FFE8F3"></path>
            <path d="M40.0390069,10.3989299 C40.0511078,10.4760888 40.0305363,10.5427991 39.9752758,10.6010701 C39.910738,10.5198925 40.0115783,10.472472 40.0135951,10.4065654 L40.0071414,10.4053598 C40.0204523,10.4166121 40.0333599,10.4158084 40.0462674,10.4033505 L40.0390069,10.3989299 Z" id="Fill-27" fill="#FFE8F3"></path>
            <path d="M43.9744716,16.570729 C43.9817321,16.5204953 43.9627741,16.4606168 44.0313455,16.429271 C44.0349758,16.4883458 43.9954464,16.5237103 43.9684212,16.5647009 L43.9744716,16.570729 Z" id="Fill-29" fill="#FFE8F3"></path>
            <path d="M4.952,36.4727684 C4.98386555,36.4751796 5.00927731,36.4719647 5.02904202,36.4808058 C5.04033613,36.4856282 5.04235294,36.510946 5.048,36.5270207 C5.02823529,36.526217 5.00645378,36.5298338 4.98910924,36.5226002 C4.97620168,36.516974 4.96934454,36.4972824 4.952,36.4727684" id="Fill-31" fill="#FFE8F3"></path>
            <path d="M40.0152525,9.45136605 C40.0208996,9.45859969 40.0285634,9.4650296 40.0305802,9.47306698 C40.0358239,9.49557166 40.0491349,9.53334736 40.0402609,9.53897353 C40.0059752,9.56429128 39.9757231,9.54942212 39.9603954,9.50923521 L39.9567651,9.51365577 C39.9785466,9.49195484 40.0007315,9.4702539 40.022513,9.44855297 L40.0152525,9.45136605 Z" id="Fill-33" fill="#FFE8F3"></path>
            <path d="M3.96047059,17.5642991 C3.94272269,17.490757 3.98507563,17.4598131 4.04678992,17.4429346 L4.03993277,17.4357009 C4.04880672,17.5036168 3.97983193,17.5188879 3.95321008,17.5626916 L3.96047059,17.5642991 Z" id="Fill-35" fill="#FFE8F3"></path>
            <path d="M19.0330756,7.44514486 C19.0274286,7.49256542 19.0528403,7.55967757 18.9624874,7.55043458 L18.9685378,7.55646262 C18.9911261,7.51908879 19.0141176,7.48091121 19.0375126,7.44353738 L19.0330756,7.44514486 Z" id="Fill-37" fill="#FFE8F3"></path>
            <path d="M3.94070588,17.5301402 C3.98265546,17.5128598 4.02420168,17.4955794 4.06615126,17.4778972 L4.05929412,17.4698598 C4.03267227,17.5225047 3.98668908,17.5313458 3.93384874,17.5229065 L3.94070588,17.5301402 Z" id="Fill-39" fill="#FFE8F3"></path>
            <path d="M4.01512605,17.493972 C4.00262185,17.4979907 3.99011765,17.5020093 3.97761345,17.506028 C3.99253782,17.5024112 4.00746218,17.4991963 4.02238655,17.4955794 L4.01512605,17.493972 Z" id="Fill-41" fill="#FFE8F3"></path>
            <polygon id="Fill-43" fill="#FFE8F3" points="3.0062521 17.506229 2.99173109 17.4977897 3.00826891 17.493771"></polygon>
            <path d="M46.9824538,18.521757 C46.9885042,18.5072897 46.9933445,18.4924205 47.0010084,18.478757 C47.0026218,18.4767476 47.0155294,18.4811682 47.0235966,18.4827757 C47.0074622,18.494028 46.9921345,18.5052803 46.9764034,18.5169346 L46.9824538,18.521757 Z" id="Fill-45" fill="#FFE8F3"></path>
            <path d="M47.061916,18.4716682 C47.0187563,18.4885467 46.9751933,18.5058271 46.9320336,18.5231075 L46.9372773,18.5283318 C46.9808403,18.5110514 47.0244034,18.493771 47.0679664,18.4764907 L47.061916,18.4716682 Z" id="Fill-47" fill="#FFE8F3"></path>
            <path d="M35.0046387,2.51085047 C34.9989916,2.50843925 34.9941513,2.50562617 34.9885042,2.50321495 C34.9961681,2.49879439 35.0038319,2.49397196 35.0114958,2.48914953 C35.0090756,2.49638318 35.0070588,2.50361682 35.0046387,2.51085047" id="Fill-49" fill="#FFE8F3"></path>
            <path d="M8.02843697,30.4811494 C8.02036975,30.4940092 8.01512605,30.5120934 8.00342857,30.5181214 C7.99657143,30.5221401 7.97963025,30.5084765 7.96712605,30.5032522 C7.97317647,30.4980279 7.97922689,30.4899906 7.98608403,30.4887849 C8.00141176,30.4863737 8.01754622,30.4871775 8.03287395,30.4867756 L8.02843697,30.4811494 Z" id="Fill-51" fill="#FFE8F3"></path>
            <path d="M24.9735798,5.52933645 C24.9832605,5.50964486 24.9933445,5.49035514 25.0030252,5.47066355 C25.0110924,5.48995327 25.0183529,5.50964486 25.0260168,5.52893458 L25.0316639,5.52371028 L24.9683361,5.52371028 L24.9735798,5.52933645 Z" id="Fill-53" fill="#FFE8F3"></path>
            <path d="M7.0072605,37.5066308 C7.00201681,37.5086402 6.99757983,37.5102477 6.9927395,37.512257 C6.99556303,37.5038178 6.99878992,37.4961822 7.00161345,37.487743 C7.00322689,37.4941729 7.0052437,37.5002009 7.0072605,37.5066308" id="Fill-55" fill="#FFE8F3"></path>
            <path d="M21.9749916,6.51457695 C21.9878992,6.50453022 22.0004034,6.49367976 22.0149244,6.48564237 C22.0173445,6.4840349 22.0258151,6.49167041 22.0314622,6.49528723 C22.0104874,6.49930592 21.9895126,6.50292275 21.9685378,6.50694144 L21.9749916,6.51457695 Z" id="Fill-57" fill="#FFE8F3"></path>
            <path d="M18.9909244,7.51707944 L19.0147227,7.48292056 C19.0046387,7.49296729 18.9953613,7.50261215 18.9852773,7.51265888 L18.9909244,7.51707944 Z" id="Fill-59" fill="#FFE8F3"></path>
            <path d="M19.0213782,7.50571607 C19.0068571,7.5000899 18.9927395,7.49446373 18.9786218,7.48883756 C18.9794286,7.48883756 18.9806387,7.48803382 18.981042,7.48803382 C18.9846723,7.49607121 18.9866891,7.50692168 18.9927395,7.51094037 C18.9979832,7.51415532 19.0088739,7.50893102 19.0169412,7.50732354 L19.0213782,7.50571607 Z" id="Fill-61" fill="#FFE8F3"></path>
            <path d="M18.9872941,40.493771 C18.9941513,40.4913598 19.0010084,40.4889486 19.0078655,40.4865374 C19.009479,40.4953785 19.0114958,40.5042196 19.0127059,40.5134626 C19.0058487,40.5118551 18.9973782,40.5118551 18.9917311,40.5086402 C18.9885042,40.5066308 18.9889076,40.4989953 18.9872941,40.493771" id="Fill-63" fill="#FFE8F3"></path>
            <path d="M39.9846723,10.5098458 C39.9971765,10.503014 40.0096807,10.4965841 40.0225882,10.4901542 C40.014521,10.4929673 40.0068571,10.4957804 39.9983866,10.4985935 C39.9915294,10.5010047 39.9846723,10.503014 39.9774118,10.5054252 L39.9846723,10.5098458 Z" id="Fill-65" fill="#FFE8F3"></path>
            <path d="M39.9784202,10.5572664 C39.994958,10.5206963 40.0118992,10.4841262 40.028437,10.4479579 L40.0264202,10.4427336 C40.0078655,10.4789019 39.9897143,10.515472 39.971563,10.5512383 L39.9784202,10.5572664 Z" id="Fill-67" fill="#FFE8F3"></path>
            <g id="Group-71" transform="translate(37.000000, 0.500000)">
                <mask id="mask-2" fill="white">
                    <use xlink:href="#path-1"></use>
                </mask>
                <g id="Clip-70"></g>
                <polygon id="Fill-69" fill="#FFE8F3" mask="url(#mask-2)" points="0.367 0.5833 0.3595 0.5618 0.3795 0.5638"></polygon>
            </g>
            <polygon id="Fill-72" fill="#FFE8F3" points="35.0024202 1.50180841 34.9975798 1.49095794 34.9987899 1.50904206"></polygon>
            <polygon id="Fill-74" fill="#FFE8F3" points="31.9985882 4.50642991 32.0066555 4.49357009 31.9933445 4.50281308"></polygon>
            <polygon id="Fill-76" fill="#FFE8F3" points="27.9971765 4.50401869 28.0096807 4.49598131 27.9903193 4.50120561"></polygon>
            <path d="M28.9731765,4.53536449 C28.9929412,4.51326168 29.0127059,4.49115888 29.0320672,4.46905607 L29.0235966,4.46463551 C29.005042,4.48513084 28.9864874,4.5052243 28.9679328,4.52571963 L28.9731765,4.53536449 Z" id="Fill-78" fill="#FFE8F3"></path>
            <polygon id="Fill-80" fill="#FFE8F3" points="21.9925378 5.50421963 22.0074622 5.49578037 21.9941513 5.50221028"></polygon>
            <path d="M22.0092773,5.49015421 C22.0024202,5.49015421 21.9963697,5.48975234 21.9895126,5.48935047 C21.9967731,5.49658411 22.0036303,5.50341589 22.0104874,5.51064953 C22.0096807,5.5046215 22.0084706,5.49859346 22.0076639,5.49216355 L22.0092773,5.49015421 Z" id="Fill-82" fill="#FFE8F3"></path>
            <polygon id="Fill-84" fill="#FFE8F3" points="21.9953613 5.50783645 22.0054454 5.49216355 21.9945546 5.50542523"></polygon>
            <path d="M22.0092773,5.4941729 C22.0028235,5.49819159 21.9967731,5.50221028 21.989916,5.5058271 C21.9967731,5.50261215 22.0032269,5.49979907 22.010084,5.49658411 L22.0092773,5.4941729 Z" id="Fill-86" fill="#FFE8F3"></path>
            <path d="M22.028437,6.46262617 C22.0070588,6.48513084 21.986084,6.50803738 21.9651092,6.53054206 L21.971563,6.53737383 C21.9925378,6.51486916 22.013916,6.49236449 22.0348908,6.47026168 L22.028437,6.46262617 Z" id="Fill-88" fill="#FFE8F3"></path>
            <polygon id="Fill-90" fill="#FFE8F3" points="21 6.50864019 21.0060504 6.49135981 20.9939496 6.50261215"></polygon>
            <path d="M20.9677311,6.52973832 C20.9895126,6.51165421 21.0108908,6.49397196 21.0326723,6.47588785 L21.0266218,6.47026168 C21.0068571,6.4895514 20.9870924,6.50843925 20.9673277,6.52813084 L20.9677311,6.52973832 Z" id="Fill-92" fill="#FFE8F3"></path>
            <path d="M21.0096807,6.49497664 C21.0028235,6.49819159 20.9967731,6.50180841 20.989916,6.50502336 L21.010084,6.49658411 L21.0096807,6.49497664 Z" id="Fill-94" fill="#FFE8F3"></path>
            <path d="M20.9957647,6.50341589 C21.000605,6.50140654 21.0046387,6.49899533 21.009479,6.49698598 C21.0034286,6.49698598 20.9969748,6.49698598 20.990521,6.49658411 L20.9957647,6.50341589 Z" id="Fill-96" fill="#FFE8F3"></path>
            <path d="M20.9711597,6.53938318 C20.9921345,6.51527103 21.0131092,6.49115888 21.0336807,6.46704673 L21.0288403,6.46061682 C21.0078655,6.48472897 20.9868908,6.50843925 20.9663193,6.5325514 L20.9711597,6.53938318 Z" id="Fill-98" fill="#FFE8F3"></path>
            <polygon id="Fill-100" fill="#FFE8F3" points="19.9929412 6.49778972 20.0070588 6.49336916 20.0046387 6.50663084"></polygon>
            <path d="M20.0117899,7.4791028 C20.0069496,7.49276636 20.002916,7.50683178 19.9980756,7.5208972 C19.9585462,7.48352336 20.0033193,7.49276636 20.0178403,7.48513084 L20.0117899,7.4791028 Z" id="Fill-102" fill="#FFE8F3"></path>
            <polygon id="Fill-104" fill="#FFE8F3" points="19.0024202 7.49357009 18.9919328 7.50642991 19.0080672 7.49799065"></polygon>
            <polygon id="Fill-106" fill="#FFE8F3" points="18.9941513 7.5046215 19.0058487 7.4953785 18.9945546 7.50381776"></polygon>
            <path d="M19.009479,7.49115888 C19.0026218,7.49035514 18.9965714,7.48995327 18.9897143,7.48914953 C18.9969748,7.49638318 19.0034286,7.50361682 19.0102857,7.51085047 C19.0098824,7.50442056 19.009479,7.49839252 19.0090756,7.49196262 L19.009479,7.49115888 Z" id="Fill-108" fill="#FFE8F3"></path>
            <path d="M16.9641008,9.50341589 C16.9874958,9.50261215 17.0108908,9.50140654 17.0346891,9.5006028 L17.0423529,9.49658411 L16.9576471,9.49658411 L16.9641008,9.50341589 Z" id="Fill-110" fill="#FFE8F3"></path>
            <polygon id="Fill-112" fill="#FFE8F3" points="16.9967731 9.49196262 16.9979832 9.50803738 17.0032269 9.49879439"></polygon>
            <path d="M39.0280336,9.47066355 C39.0086723,9.48995327 38.9893109,9.50924299 38.9695462,9.52853271 L38.9735798,9.53295327 C38.9735798,9.51085047 38.9735798,9.48914953 38.9739832,9.46704673 L38.9671261,9.47347664 L39.0328739,9.47347664 L39.0280336,9.47066355 Z" id="Fill-114" fill="#FFE8F3"></path>
            <path d="M40.0062521,10.5070327 C40.0018151,10.5022103 39.9977815,10.4977897 39.9937479,10.4929673 C39.9957647,10.4973879 39.9977815,10.5014065 39.9997983,10.5058271 L40.0062521,10.5070327 Z" id="Fill-116" fill="#FFE8F3"></path>
            <path d="M14.009479,10.4897523 L13.9893109,10.4893505 C13.9965714,10.4961822 14.0034286,10.5034159 14.0106891,10.5106495 C14.009479,10.5042196 14.0086723,10.4981916 14.0074622,10.4917617 L14.009479,10.4897523 Z" id="Fill-118" fill="#FFE8F3"></path>
            <polygon id="Fill-120" fill="#FFE8F3" points="39.9971765 10.5096449 40.0048403 10.4903551 39.9951597 10.5044206"></polygon>
            <path d="M11.9975798,10.496785 C11.9991933,10.4987944 12.0008067,10.5008037 12.0024202,10.503215 L11.9975798,10.496785 Z" id="Fill-122" fill="#FFE8F3"></path>
            <path d="M38.9991933,12.5116542 C39.0016134,12.5036168 39.0036303,12.4959813 39.0060504,12.4883458 L38.9939496,12.5064299 L38.9991933,12.5116542 Z" id="Fill-124" fill="#FFE8F3"></path>
            <path d="M6.00907563,14.4899533 L5.98931092,14.4899533 C5.99657143,14.496785 6.00342857,14.5036168 6.01068908,14.5100467 C6.00947899,14.5040187 6.00786555,14.4983925 6.00665546,14.4919626 L6.00907563,14.4899533 Z" id="Fill-126" fill="#FFE8F3"></path>
            <path d="M43.9701513,16.5365701 C43.9919328,16.5140654 44.0137143,16.4919626 44.0354958,16.4694579 L44.0294454,16.4634299 L43.9645042,16.5301402 L43.9701513,16.5365701 Z" id="Fill-128" fill="#FFE8F3"></path>
            <polygon id="Fill-130" fill="#FFE8F3" points="4.00302521 27.4897523 3.99697479 27.5102477 4.00262185 27.4977897"></polygon>
            <path d="M5.02722689,28.4690561 C5.00746218,28.4871402 4.98769748,28.5056262 4.96833613,28.5237103 L4.97478992,28.5309439 L5.03166387,28.4746822 L5.02722689,28.4690561 Z" id="Fill-132" fill="#FFE8F3"></path>
            <path d="M5.02682353,29.4712664 C5.00665546,29.4881449 4.98648739,29.5046215 4.96672269,29.5215 L4.96631933,29.5287336 C4.9885042,29.512257 5.01109244,29.4953785 5.03368067,29.4789019 L5.02682353,29.4712664 Z" id="Fill-134" fill="#FFE8F3"></path>
            <polygon id="Fill-136" fill="#FFE8F3" points="5.00302521 29.4895514 4.99697479 29.5104486 5.00262185 29.496785"></polygon>
            <path d="M1.98626278,31.5196916 C1.99311992,31.5068318 1.99917034,31.493972 2.00602749,31.4803084 C2.03748967,31.5196916 2.00239723,31.5124579 1.98142244,31.5148692 L1.98626278,31.5196916 Z" id="Fill-138" fill="#FFE8F3"></path>
            <path d="M1.97297479,32.5263224 C1.99193277,32.5102477 2.01048739,32.4941729 2.02944538,32.4785 L2.02460504,32.4736776 C2.00685714,32.4893505 1.98870588,32.5050234 1.97055462,32.5206963 L1.97297479,32.5263224 Z" id="Fill-140" fill="#FFE8F3"></path>
            <polygon id="Fill-142" fill="#FFE8F3" points="2.00302521 32.4915607 1.99455462 32.5084393 2.00544538 32.4971869"></polygon>
            <path d="M33.0308571,38.4670467 C33.0090756,38.4883458 32.9876975,38.5096449 32.965916,38.5313458 L32.9747899,38.5349626 C32.9739832,38.5116542 32.9731765,38.4887477 32.9723697,38.4650374 L32.9671261,38.4738785 C32.9893109,38.4742804 33.0118992,38.4746822 33.034084,38.4746822 L33.0308571,38.4670467 Z" id="Fill-144" fill="#FFE8F3"></path>
            <path d="M14.0074622,42.4945748 C14.0022185,42.4981916 13.9977815,42.5018084 13.9925378,42.5054252 C13.9969748,42.5038178 14.0014118,42.5022103 14.0058487,42.5006028 L14.0074622,42.4945748 Z" id="Fill-146" fill="#FFE8F3"></path>
            <polygon id="Fill-148" fill="#FFE8F3" points="11.9983866 10.5088411 12.0064538 10.4911589 11.9935462 10.5024112"></polygon>
            <path d="M28.9858893,4.52411215 C28.981049,4.51888785 28.9725784,4.50964486 28.9729817,4.50884112 C28.9834691,4.49718692 28.9951666,4.48673832 29.0072675,4.47588785 C29.0137212,4.48593458 29.020175,4.49598131 29.0270322,4.50562617 C29.0129145,4.51165421 28.9992002,4.51808411 28.9858893,4.52411215" id="Fill-150" fill="#FFE8F3"></path>
        </g>
        <path d="M33.34375,37.34375 L33.5625,37.3125 C34.625,37.2708333 35.5208333,36.8645833 36.25,36.09375 C36.9791667,35.3229167 37.34375,34.40625 37.34375,33.34375 L37.34375,33.34375 L37.34375,17.34375 L37.3125,17.09375 C37.2708333,16.0520833 36.8645833,15.1666667 36.09375,14.4375 C35.3229167,13.7083333 34.40625,13.34375 33.34375,13.34375 L33.34375,13.34375 L29.65625,13.34375 L29.65625,11.84375 C29.6145833,11.5104167 29.46875,11.2291667 29.21875,11 C28.96875,10.7708333 28.6770833,10.65625 28.34375,10.65625 C27.96875,10.65625 27.6510417,10.7864583 27.390625,11.046875 C27.1302083,11.3072917 27,11.625 27,12 L27,12 L27,13.34375 L20.65625,13.34375 L20.65625,11.84375 C20.6145833,11.5104167 20.46875,11.2291667 20.21875,11 C19.96875,10.7708333 19.6770833,10.65625 19.34375,10.65625 C18.96875,10.65625 18.6510417,10.7864583 18.390625,11.046875 C18.1302083,11.3072917 18,11.625 18,12 L18,12 L18,13.34375 L14.4375,13.34375 C13.375,13.40625 12.4791667,13.8229167 11.75,14.59375 C11.0208333,15.3645833 10.65625,16.28125 10.65625,17.34375 L10.65625,17.34375 L10.65625,33.34375 L10.6875,33.5625 C10.7291667,34.625 11.1354167,35.5208333 11.90625,36.25 C12.6770833,36.9791667 13.59375,37.34375 14.65625,37.34375 L14.65625,37.34375 L33.34375,37.34375 Z M34.65625,20.34375 L13.34375,20.34375 L13.34375,17.1875 C13.3854167,16.8541667 13.53125,16.5729167 13.78125,16.34375 C14.03125,16.1145833 14.3229167,16 14.65625,16 L14.65625,16 L18,16 L18,17.5 C18.0416667,17.8333333 18.1875,18.109375 18.4375,18.328125 C18.6875,18.546875 18.9895833,18.65625 19.34375,18.65625 C19.6979167,18.65625 20.0052083,18.5260417 20.265625,18.265625 C20.5260417,18.0052083 20.65625,17.6979167 20.65625,17.34375 L20.65625,17.34375 L20.65625,16 L27,16 L27,17.5 C27.0416667,17.8333333 27.1875,18.109375 27.4375,18.328125 C27.6875,18.546875 27.9895833,18.65625 28.34375,18.65625 C28.6979167,18.65625 29.0052083,18.5260417 29.265625,18.265625 C29.5260417,18.0052083 29.65625,17.6979167 29.65625,17.34375 L29.65625,17.34375 L29.65625,16 L33.5,16 C33.8333333,16.0416667 34.109375,16.1875 34.328125,16.4375 C34.546875,16.6875 34.65625,16.9895833 34.65625,17.34375 L34.65625,17.34375 L34.65625,20.34375 Z M33.34375,34.65625 L14.5,34.65625 C14.1666667,34.6145833 13.890625,34.46875 13.671875,34.21875 C13.453125,33.96875 13.34375,33.6770833 13.34375,33.34375 L13.34375,33.34375 L13.34375,23 L34.65625,23 L34.65625,33.5 C34.6145833,33.8333333 34.46875,34.109375 34.21875,34.328125 C33.96875,34.546875 33.6770833,34.65625 33.34375,34.65625 L33.34375,34.65625 Z" id="" fill="#ED4597" fill-rule="nonzero"></path>
    </g>
</svg>