<svg width="19" height="14" viewBox="0 0 19 14" fill="none" xmlns="http://www.w3.org/2000/svg">
<path d="M9.75586 0.375C10.3535 0.375 10.8691 0.580078 11.3027 0.990234C11.7363 1.40039 11.9648 1.89844 11.9883 2.48438L12.0059 2.625V3.38086H14.4844C15.2227 3.38086 15.873 3.62109 16.4355 4.10156C16.998 4.57031 17.3379 5.16797 17.4551 5.89453L17.4727 6.03516L18 10.7988C18.0234 10.998 17.9707 11.1797 17.8418 11.3438C17.7129 11.5078 17.543 11.6016 17.332 11.625H17.2441H15.75C15.75 12.2461 15.5273 12.7793 15.082 13.2246C14.6484 13.6582 14.1211 13.875 13.5 13.875C12.9023 13.875 12.3867 13.6699 11.9531 13.2598C11.5195 12.8496 11.2852 12.3516 11.25 11.7656V11.625H7.50586C7.50586 12.2461 7.2832 12.7793 6.83789 13.2246C6.4043 13.6582 5.87695 13.875 5.25586 13.875C4.6582 13.875 4.14258 13.6699 3.70898 13.2598C3.27539 12.8496 3.04102 12.3516 3.00586 11.7656V11.625H2.25C2.03906 11.625 1.85742 11.5547 1.70508 11.4141C1.56445 11.2617 1.49414 11.0801 1.49414 10.8691C1.49414 10.6816 1.55859 10.5176 1.6875 10.377C1.81641 10.2363 1.97461 10.1543 2.16211 10.1309H2.25H3.56836C3.7793 9.89648 4.02539 9.71484 4.30664 9.58594C4.59961 9.44531 4.91602 9.375 5.25586 9.375C5.58398 9.375 5.89453 9.44531 6.1875 9.58594C6.48047 9.71484 6.72656 9.89648 6.92578 10.1309H10.4941V2.625C10.4941 2.4375 10.4297 2.27344 10.3008 2.13281C10.1836 1.98047 10.0312 1.89844 9.84375 1.88672L9.75586 1.86914H1.49414C1.29492 1.86914 1.11914 1.79883 0.966797 1.6582C0.826172 1.50586 0.755859 1.33008 0.755859 1.13086C0.755859 0.931641 0.814453 0.761719 0.931641 0.621094C1.06055 0.480469 1.21875 0.398438 1.40625 0.375H1.49414H9.75586ZM14.4844 4.875H12.0059V9.95508C12.2051 9.76758 12.4277 9.62695 12.6738 9.5332C12.9316 9.42773 13.207 9.375 13.5 9.375C13.8281 9.375 14.1387 9.44531 14.4316 9.58594C14.7246 9.71484 14.9707 9.89648 15.1699 10.1309H16.418L15.9785 6.21094C15.9434 5.87109 15.8086 5.58398 15.5742 5.34961C15.3398 5.10352 15.0586 4.95117 14.7305 4.89258L14.6074 4.875H14.4844ZM6.13477 6.36914C6.3457 6.36914 6.52148 6.44531 6.66211 6.59766C6.81445 6.73828 6.89062 6.91406 6.89062 7.125C6.89062 7.3125 6.82617 7.48242 6.69727 7.63477C6.56836 7.77539 6.41016 7.85156 6.22266 7.86328L6.13477 7.88086H0.791016C0.591797 7.88086 0.416016 7.81055 0.263672 7.66992C0.123047 7.51758 0.0527344 7.33594 0.0527344 7.125C0.0527344 6.9375 0.111328 6.77344 0.228516 6.63281C0.357422 6.48047 0.515625 6.39844 0.703125 6.38672L0.791016 6.36914H6.13477ZM5.25586 3.38086C5.45508 3.38086 5.625 3.45703 5.76562 3.60938C5.91797 3.75 5.99414 3.91992 5.99414 4.11914C5.99414 4.31836 5.92969 4.48828 5.80078 4.62891C5.68359 4.76953 5.53125 4.85156 5.34375 4.875H5.25586H3.00586C2.79492 4.875 2.61328 4.80469 2.46094 4.66406C2.32031 4.51172 2.25 4.33008 2.25 4.11914C2.25 3.93164 2.31445 3.76758 2.44336 3.62695C2.57227 3.48633 2.73047 3.4043 2.91797 3.38086H3.00586H5.25586ZM5.25586 12.3809C5.45508 12.3809 5.625 12.3105 5.76562 12.1699C5.91797 12.0176 5.99414 11.8359 5.99414 11.625C5.99414 11.4141 5.91797 11.2383 5.76562 11.0977C5.625 10.9453 5.45508 10.8691 5.25586 10.8691C5.04492 10.8691 4.86328 10.9453 4.71094 11.0977C4.57031 11.2383 4.5 11.4141 4.5 11.625C4.5 11.8359 4.57031 12.0176 4.71094 12.1699C4.86328 12.3105 5.04492 12.3809 5.25586 12.3809ZM13.5 12.3809C13.7109 12.3809 13.8867 12.3105 14.0273 12.1699C14.1797 12.0176 14.2559 11.8359 14.2559 11.625C14.2559 11.4141 14.1797 11.2383 14.0273 11.0977C13.8867 10.9453 13.7109 10.8691 13.5 10.8691C13.2891 10.8691 13.1074 10.9453 12.9551 11.0977C12.8145 11.2383 12.7441 11.4141 12.7441 11.625C12.7441 11.8359 12.8145 12.0176 12.9551 12.1699C13.1074 12.3105 13.2891 12.3809 13.5 12.3809Z" fill="#F87A7B"/>
</svg>
