<?xml version="1.0" encoding="UTF-8"?>
<svg width="48px" height="48px" viewBox="0 0 48 48" version="1.1" xmlns="http://www.w3.org/2000/svg" xmlns:xlink="http://www.w3.org/1999/xlink">
    <!-- Generator: Sketch 63.1 (92452) - https://sketch.com -->
    <title>delivery</title>
    <desc>Created with Sketch.</desc>
    <defs>
        <polygon id="path-1" points="0.194643368 0.301666667 0.829344767 0.301666667 0.829344767 0.751466667 0.194643368 0.751466667"></polygon>
    </defs>
    <g id="delivery" stroke="none" stroke-width="1" fill="none" fill-rule="evenodd">
        <g id="Group-166" transform="translate(-1.000000, 7.500000)">
            <path d="M44.7065339,17.1546924 C44.6947419,17.1606351 44.6829499,17.1665777 44.6711579,17.1721708 C44.6753198,17.1788126 44.6815626,17.191397 44.6829499,17.1906979 C44.6957824,17.1858039 44.7079212,17.1791621 44.7204068,17.1725204 C44.7158981,17.1669273 44.7110426,17.1606351 44.7065339,17.1546924 L44.7065339,17.1546924 Z M45.7012219,5.75948299 C45.5909323,5.70075561 45.5909323,5.70075561 45.5479262,5.80003285 C45.6068861,5.7843023 45.654054,5.77171786 45.7012219,5.75948299 L45.7012219,5.75948299 Z M10.8888736,28.3156914 C10.9627469,28.3447055 11.0255218,28.3667283 11.0851753,28.3059035 C11.0990483,28.2922704 11.1094529,28.2590614 11.1025165,28.2443796 C11.0945396,28.2272508 11.064366,28.2111707 11.0445971,28.2118698 C10.9807816,28.2136176 10.9301455,28.2433309 10.8888736,28.3156914 L10.8888736,28.3156914 Z M14.6564107,29.4412996 C14.714677,29.4430474 14.7608044,29.4161307 14.7632322,29.3766295 C14.7663536,29.3262918 14.7254285,29.3151056 14.691093,29.3000742 C14.6772201,29.2941315 14.6612662,29.2895872 14.6463529,29.2892376 C14.6005722,29.2874898 14.5766414,29.3105612 14.5738669,29.3574033 C14.5710923,29.4119359 14.597104,29.4395517 14.6564107,29.4412996 L14.6564107,29.4412996 Z M44.7460717,16.3901877 C44.6666492,16.4017235 44.6354352,16.3996261 44.6094235,16.4108122 C44.5379779,16.4419238 44.4987869,16.5226739 44.5376311,16.5509889 C44.58688,16.5866448 44.626071,16.5450463 44.6593659,16.5216252 C44.6871118,16.5020494 44.7002911,16.4621987 44.7460717,16.3901877 L44.7460717,16.3901877 Z M46.2391442,8.07606845 C46.1794907,8.07606845 46.1274673,8.06068747 46.0955596,8.07921456 C46.0227268,8.12186183 45.9485067,8.17010218 45.9148648,8.25574627 C45.9124371,8.26203849 45.9138244,8.27427336 45.9179862,8.27776904 C45.9297782,8.28720737 45.9492003,8.30328749 45.9557899,8.29944224 C46.0539408,8.24106443 46.16319,8.19631976 46.2391442,8.07606845 L46.2391442,8.07606845 Z M3.56570809,28.9952511 C3.62917668,29.0043399 3.68744293,29.0123799 3.74085366,29.0200704 C3.80120084,28.8963234 3.79773261,28.8973721 3.73981319,28.8484327 C3.66247168,28.7837626 3.58235559,28.7872583 3.49426258,28.8180203 C3.52929169,28.8694067 3.61010142,28.8998191 3.56570809,28.9952511 L3.56570809,28.9952511 Z M8.19405966,25.2814434 C8.17775899,25.2503318 8.15174727,25.1957993 8.12122685,25.1437137 C8.11533086,25.1339258 8.09348102,25.1311292 8.07856764,25.1304301 C8.01648634,25.1269344 7.96793113,25.1895071 7.96168832,25.2789964 C7.95648598,25.3555517 7.99151509,25.4191731 8.04457899,25.4286114 C8.10804758,25.4404967 8.18920414,25.3758267 8.19405966,25.2814434 L8.19405966,25.2814434 Z M42.9581996,2.78710844 C42.8992397,2.84513669 42.8472163,2.89232834 42.8000484,2.94406436 C42.7622447,2.98531336 42.7272156,3.02970846 42.6973888,3.07690011 C42.687331,3.09228109 42.6897587,3.12688829 42.7012039,3.14122057 C42.712649,3.15590242 42.7449036,3.16603988 42.7632852,3.16114593 C42.824326,3.14436668 42.8864073,3.12514045 42.9425926,3.0964759 C42.9873328,3.07410356 43.0223619,3.02586321 42.9883732,2.978322 C42.9540378,2.92973208 42.9585465,2.89897012 42.9918415,2.85702199 C42.9973906,2.85038021 42.975194,2.82136608 42.9581996,2.78710844 L42.9581996,2.78710844 Z M9.06423831,24.2152617 C8.92550915,24.2386828 8.8155663,24.2547629 8.70701073,24.2760865 C8.58909094,24.2995076 8.58770365,24.3044015 8.59325282,24.4568131 C8.75001677,24.4652027 8.90157837,24.435839 9.06423831,24.4033292 L9.06423831,24.2152617 Z M46.880073,5.28616826 C46.8107084,5.21520601 46.8651596,5.1449429 46.8609977,5.07293194 C46.8089743,5.08062243 46.7690896,5.08271984 46.7316328,5.09320687 C46.6855053,5.10614088 46.6397247,5.12222099 46.5974123,5.14424376 C46.4347524,5.22883915 46.2731329,5.31588152 46.1122071,5.40362303 C46.0844612,5.41865444 46.057409,5.4385798 46.0386806,5.46304954 C46.0275823,5.47738182 46.0293164,5.50639595 46.0345187,5.52597174 C46.0369465,5.53541007 46.0639987,5.54729537 46.0747502,5.54345013 C46.1413402,5.51898038 46.2079302,5.49311237 46.2713988,5.46165127 C46.3286246,5.43298672 46.3813416,5.39348556 46.4500126,5.42389796 C46.4461975,5.45221294 46.4302437,5.48786885 46.4416888,5.50709508 C46.4677005,5.55079105 46.507932,5.53436136 46.5433079,5.51059076 C46.6490889,5.43962851 46.7548699,5.36936539 46.880073,5.28616826 L46.880073,5.28616826 Z M45.2999478,17.4679051 C45.2458435,17.4720999 45.1924327,17.4710512 45.141103,17.4811887 C45.0800621,17.4937731 45.0217959,17.5276812 44.9611019,17.5315264 C44.8691938,17.5385178 44.7876904,17.5605406 44.7211004,17.6241619 C44.6767071,17.6668092 44.62399,17.6755483 44.5674579,17.676597 C44.5116194,17.6776458 44.4557809,17.6804423 44.3999424,17.6797432 C44.3399421,17.679044 44.2896527,17.6996685 44.2528895,17.7465106 C44.2043343,17.8080345 44.1464149,17.8681602 44.185259,17.9716322 C44.2442189,17.9751279 44.3104621,17.9947037 44.3680347,17.9803714 C44.5601746,17.9317815 44.7491931,17.8716559 44.939252,17.815725 C45.0710447,17.7765734 45.1178658,17.6161218 45.2586759,17.5871077 C45.2756702,17.583612 45.2891963,17.5511022 45.2989074,17.5301282 C45.3048034,17.5171942 45.2999478,17.5000653 45.2999478,17.4679051 L45.2999478,17.4679051 Z M10.3100262,24.7693266 C10.3134944,24.717241 10.3176563,24.6934704 10.3159222,24.6696998 C10.3089857,24.5739183 10.2930318,24.557139 10.2080602,24.5456033 C10.159505,24.5389615 10.1081752,24.5319701 10.0752271,24.5760157 C10.0318742,24.6343935 9.97013972,24.6424335 9.90701795,24.6539693 C9.78285536,24.6766912 9.65938641,24.7022096 9.53557063,24.7263298 C9.47140839,24.7389142 9.41348897,24.732622 9.35175449,24.7022096 C9.19568419,24.6253047 9.03475837,24.6490753 8.86828338,24.6945191 C8.89637603,24.7396134 8.93175197,24.7756188 8.94007572,24.8172174 C8.94701217,24.8511255 8.92759009,24.895171 8.90886165,24.92838 C8.88943957,24.9629872 8.85718504,24.9902534 8.82874557,25.0231128 C8.9383416,25.0549235 9.03718613,25.0996681 9.15233133,25.0482817 C9.19221596,25.0304537 9.27337252,25.04968 9.30562705,25.0821898 C9.37568527,25.1538511 9.46794017,25.142665 9.54736261,25.1730774 C9.6306001,25.2045385 9.71973359,25.1713295 9.79950286,25.1290318 C9.8622778,25.0958229 9.92852097,25.0741497 9.94586212,24.9853595 C9.95591998,24.9325748 10.0041284,24.8969189 10.0637819,24.8773431 C10.1459789,24.8504263 10.2229736,24.8081286 10.3100262,24.7693266 L10.3100262,24.7693266 Z M43.3605142,7.87087218 L43.3553119,7.8642304 C43.3067566,7.99496873 43.1825941,8.04216038 43.0816686,8.11522004 C43.0629402,8.12885318 43.0424776,8.14073848 43.0223619,8.15367249 C43.0407435,8.23092696 43.05531,8.29140218 43.067102,8.34069124 C43.1569292,8.39976818 43.221785,8.40361343 43.2897623,8.32635896 C43.3573928,8.24980362 43.4395898,8.18618229 43.4954283,8.13549497 C43.5002838,8.01978804 43.5040989,7.93414395 43.5072203,7.85723904 C43.5973942,7.78697592 43.6750826,7.725452 43.783985,7.72055805 C43.8380893,7.71811108 43.8932342,7.69993356 43.9456044,7.68280474 C44.1765885,7.60589983 44.4228327,7.58702317 44.6337011,7.4328638 C44.808153,7.30562114 44.9864199,7.19830384 45.0876922,6.99415628 C45.1480394,6.8725067 45.1147444,6.7651894 44.9836454,6.75190583 C44.9212172,6.74526404 44.8508122,6.74141879 44.7953205,6.7641407 C44.6118512,6.8389482 44.4221391,6.90816261 44.2567046,7.0144312 C44.0746225,7.1315364 43.8862977,7.23116321 43.689996,7.31750644 C43.4056012,7.44230213 43.1586633,7.63106871 42.8926501,7.78662636 C42.834037,7.82123356 42.8059444,7.8771644 42.7993547,7.9530206 C42.9471013,8.00755317 43.088605,8.0051062 43.2280279,7.92155951 C43.2679125,7.89743933 43.3161209,7.88730187 43.3605142,7.87087218 L43.3605142,7.87087218 Z M8.39417647,28.5177416 C8.36677747,28.5285782 8.32654601,28.5023606 8.30122794,28.5673802 C8.34180622,28.5422113 8.36608382,28.5275295 8.39036142,28.5128476 C8.40354069,28.519839 8.41637314,28.5324234 8.42989923,28.532773 C8.44724038,28.532773 8.46492835,28.5236842 8.48226949,28.5180911 C8.47117116,28.502011 8.46284741,28.4764926 8.44828085,28.4719482 C8.41498585,28.4621603 8.39313601,28.4792891 8.39417647,28.5177416 L8.39417647,28.5177416 Z M42.745944,7.19306032 C42.8142681,7.1217485 42.9221301,7.07770297 42.8957715,6.94311938 C42.8898755,6.91305656 42.9262919,6.871458 42.9491822,6.83964733 C42.9859455,6.7879113 43.0275642,6.73967096 43.0674488,6.69003234 C43.0369284,6.66696086 43.0119572,6.64808421 42.9776217,6.62186663 C43.0560037,6.49916835 43.1614379,6.40478505 43.2918433,6.34675681 C43.3362366,6.32718101 43.3997052,6.3446594 43.4527691,6.355496 C43.490226,6.36318649 43.5231741,6.39359889 43.560631,6.40408592 C43.6161227,6.41981647 43.6712675,6.41492252 43.717395,6.37192569 C43.7465281,6.3446594 43.7867595,6.32473404 43.8061816,6.29222424 C43.9230609,6.09401933 44.1342761,6.01781356 44.3094216,5.89651355 C44.3864163,5.84302969 44.4710411,5.7930415 44.5740475,5.79583804 C44.6038743,5.79653718 44.6389034,5.78500144 44.6642215,5.76787262 C44.7550891,5.70495043 44.8556677,5.69516253 44.9604082,5.70460086 C45.0276919,5.71089308 45.0807558,5.68537463 45.1386752,5.6532144 C45.2909304,5.56931814 45.4452666,5.49625848 45.6176376,5.45046511 C45.7993728,5.40187519 45.9717438,5.3074919 46.137872,5.21415731 C46.3463125,5.09740168 46.5762561,5.02224462 46.7701301,4.87682443 C46.8068933,4.84920858 46.8540612,4.83138063 46.8988014,4.81844662 C47.0462011,4.77649849 47.177647,4.70308926 47.3028501,4.61674603 C47.4280531,4.53005323 47.5598458,4.45839184 47.7072456,4.41469587 C47.8057433,4.38568175 47.9073624,4.35352152 47.9614668,4.2507486 C47.964935,4.24375724 47.9704842,4.23571719 47.9770738,4.23327021 C48.2070174,4.14482957 48.3943017,3.97144397 48.6374246,3.90782264 C48.7900267,3.86797192 48.9374264,3.80784626 49.0848261,3.75121629 C49.1195084,3.73758315 49.1430924,3.69808199 49.1746533,3.67396182 C49.2676018,3.60299956 49.3470242,3.50581973 49.4815915,3.51211195 C49.4996263,3.51316065 49.5325745,3.48939005 49.5350022,3.47330993 C49.5481815,3.37403269 49.6581244,3.35096122 49.6938471,3.25517966 C49.6709568,3.22581597 49.6435578,3.19120876 49.6126906,3.15275631 C49.6362745,3.13178224 49.6577776,3.10696293 49.6837893,3.08983411 C49.7233271,3.06466523 49.7656395,3.02865976 49.8152351,3.05802345 C49.8842529,3.09892287 49.8232121,3.15904853 49.8301485,3.21078455 C49.882172,3.25448052 49.9345422,3.29852606 49.9872593,3.34257159 L49.9869125,3.33592981 C50.0205543,3.50407189 49.9952362,3.64984164 49.8412469,3.75261456 C49.7555816,3.80994367 49.6751187,3.8746137 49.592228,3.93578806 C49.5658695,3.95501429 49.5426323,3.97528921 49.5599735,4.01269296 L49.5467942,4.00535204 L49.555118,4.00640074 C49.5932685,4.0123434 49.631419,4.01828605 49.6702632,4.0242287 C49.6584712,4.05289325 49.6477197,4.0794604 49.6369682,4.10567798 L49.6425173,4.09868663 C49.5252912,4.11686415 49.4018223,4.11756329 49.2929199,4.15846271 C49.1909539,4.19621603 49.1056355,4.27801488 49.0116465,4.33814054 C48.7969631,4.47552066 48.5812393,4.61115295 48.3665559,4.74888264 C48.2864398,4.80061866 48.2035491,4.84431463 48.1140688,4.88136881 C48.0051664,4.92646305 47.910137,5.00546536 47.8074774,5.06663972 C47.6295572,5.17290831 47.449903,5.2760308 47.271636,5.38194983 C47.1415774,5.4592043 47.0097847,5.53366223 46.8845817,5.61860719 C46.789899,5.68292766 46.6917481,5.72732276 46.5776434,5.7388585 C46.531516,5.74340288 46.4840012,5.75528818 46.441342,5.77381527 C46.1725543,5.8916196 45.8975237,5.99718906 45.6582159,6.17302164 C45.6467707,6.18141126 45.6412216,6.19749138 45.626655,6.22021328 L45.8021474,6.27194931 L45.7962514,6.26565709 C45.8083902,6.31424701 45.7785634,6.34011502 45.7445748,6.36283692 C45.671742,6.41212598 45.5985624,6.46001676 45.5212209,6.51140322 C45.5101225,6.56628535 45.5035329,6.62221619 45.4868854,6.67465135 C45.4556713,6.77218076 45.4417984,6.85572745 45.5406429,6.93228278 C45.5912791,6.97143437 45.5704697,7.04973755 45.5139376,7.0979779 C45.4591396,7.14516954 45.4057288,7.19585687 45.3443412,7.23221191 C45.2454966,7.29024016 45.2000628,7.38462345 45.184109,7.48529896 C45.1698893,7.57443873 45.1494267,7.65553845 45.1053802,7.73314249 C45.0925477,7.7558644 45.1032993,7.79186987 45.1032993,7.81074653 C45.1532418,7.84849985 45.1688488,7.8121448 45.1952073,7.80060907 C45.287809,7.75901051 45.3724338,7.72125719 45.4886195,7.76355489 C45.5850363,7.79851166 45.7019156,7.80480388 45.8153267,7.78417938 C45.9055006,7.76740013 46.0015706,7.78068371 46.108392,7.78068371 C46.1011087,7.83801282 46.0952127,7.88835057 46.0872358,7.9530206 C46.1982191,7.96560504 46.2918613,7.90408112 46.408047,7.9075768 C46.4135962,7.94952493 46.4222667,7.99357046 46.423654,8.03831513 C46.4292032,8.16940304 46.4763711,8.27147682 46.6036551,8.32461112 C46.6248113,8.33335031 46.6421525,8.35117827 46.6588,8.362714 C46.713598,8.61999587 46.7024996,8.87098551 46.6310541,9.1072933 C46.6848117,9.23733251 46.772211,9.34185326 46.7503612,9.51279189 C46.6879331,9.58899766 46.6119789,9.69142101 46.5259668,9.78405646 C46.4208794,9.89696684 46.3466593,10.0284043 46.2772948,10.1633375 C46.2335951,10.2482824 46.1944041,10.3353248 46.1455021,10.4373986 C46.165271,10.5143035 46.3251563,10.5160513 46.2793757,10.6733568 C46.2113984,10.741173 46.1066579,10.7960551 45.9814548,10.7555052 C45.8916277,10.7268407 45.8125521,10.7303364 45.7258464,10.7583018 C45.6349788,10.788015 45.5402961,10.8051439 45.448388,10.8271666 C45.4313937,10.849539 45.411278,10.8663182 45.4036479,10.8872923 C45.3256127,11.1054225 45.1539354,11.1900179 44.9434139,11.1994563 C44.8005229,11.2053989 44.6978633,11.2648254 44.62399,11.378435 C44.5702325,11.4612825 44.4994806,11.5228064 44.4266478,11.5860782 C44.3364738,11.6647309 44.2573982,11.7559681 44.1738139,11.8423114 C44.0454894,11.9740984 43.9171649,12.1034385 43.7638692,12.2090079 C43.599822,12.3219183 43.4475667,12.4530062 43.2914964,12.5778019 C43.2821322,12.5851428 43.2831727,12.6064664 43.2790108,12.6225466 C43.306063,12.6770791 43.3563523,12.6655434 43.4010925,12.660999 C43.4805149,12.6533085 43.5647929,12.6498128 43.6268742,12.5924837 C43.8002856,12.4330808 44.0180904,12.3509324 44.2417912,12.2166984 C44.2195945,12.2803197 44.1963574,12.3180731 44.1960106,12.3561759 C44.1960106,12.3939293 44.2164731,12.4330808 44.2327738,12.4694359 C44.2521959,12.5131319 44.2768203,12.5547304 44.2983233,12.5956298 C44.2834099,12.6533085 44.2639878,12.7064428 44.2567046,12.761325 C44.2497681,12.815508 44.2553173,12.8710892 44.2553173,12.9413524 C44.1828313,13.0189564 44.1134667,13.112291 44.1113858,13.2451267 C44.1106921,13.3059515 44.075663,13.3667763 44.0534663,13.426902 C43.975778,13.6390896 44.0340443,13.7586417 44.2535832,13.8292544 C44.2983233,13.8435867 44.3441039,13.8537242 44.3992488,13.868406 C44.3593641,13.9309786 44.3219073,13.9890069 44.2764735,14.0599691 C44.2352015,14.0599691 44.1880336,14.0550752 44.142253,14.061717 C44.1041025,14.0673101 44.0645647,14.0812928 44.0316165,14.1012181 C43.963986,14.1424671 43.9431767,14.2053893 43.969882,14.2634176 C44.0045643,14.3375259 44.075663,14.3703853 44.1471085,14.317251 C44.2293056,14.2564262 44.3271096,14.2581741 44.4127749,14.2179738 C44.4547404,14.198398 44.5074575,14.1851144 44.5518509,14.1917562 C44.6458399,14.2057389 44.7020252,14.1561003 44.7585573,14.0966738 C44.841448,14.009981 44.9323156,13.9390187 45.041218,13.8816896 C45.1431839,13.8278562 45.2226063,13.7299772 45.3120866,13.6513244 C45.3415666,13.6254564 45.3686188,13.5960927 45.4008733,13.57407 C45.4657292,13.5289757 45.532666,13.5205861 45.6006433,13.571623 C45.6387938,13.6002876 45.6790253,13.625806 45.7157885,13.6509749 C45.7705865,13.8107273 45.6637651,13.9128011 45.5885045,14.0403933 C45.6370597,14.0690579 45.6824935,14.0949259 45.7268868,14.1225418 C45.7941705,14.1648395 45.8781016,14.1106565 45.9509344,14.1763752 C46.0053856,14.2253147 46.098681,14.2288104 46.1722074,14.2585236 C46.2453871,14.2882369 46.3150985,14.3266893 46.3872376,14.3588496 C46.4083938,14.3682879 46.4333651,14.3696862 46.4555617,14.3745801 C46.56273,14.2711081 46.56273,14.2711081 46.6709388,14.2693602 C46.7184535,14.3144545 46.6757943,14.3602478 46.668511,14.4035942 C46.6556785,14.4825965 46.6320946,14.559851 46.619609,14.6392029 C46.613713,14.6769562 46.6119789,14.7217009 46.6265454,14.7559585 C46.6667769,14.8503418 46.7163726,14.9405303 46.7631936,15.034564 C46.9036569,15.0010055 46.9494375,14.794411 47.1256236,14.848594 C47.1582249,14.8856482 47.1474734,14.923751 47.1270109,14.959407 C47.0607677,15.0747643 47.0285132,15.2156401 46.8842348,15.2733188 C46.8509398,15.2862528 46.8183385,15.3264531 46.805506,15.3614099 C46.7482803,15.5218615 46.5970655,15.596669 46.4947527,15.715522 C46.4552149,15.7613154 46.3907059,15.7882321 46.3334801,15.8137505 C46.1954446,15.8749249 46.0952127,15.9693082 46.0376401,16.1115822 C46.0199522,16.1545791 45.9890849,16.1940802 45.9578709,16.229037 C45.9103561,16.2818217 45.8579859,16.3272655 45.8222631,16.3936834 C45.799026,16.4359811 45.7334765,16.4545082 45.675557,16.4915624 C45.6408747,16.660054 45.5850363,16.8330901 45.4279255,16.9473987 C45.2742829,17.0582117 45.2728957,17.0564639 45.1182126,17.044229 C45.1091952,17.0190601 45.1039929,16.9865503 45.0873454,16.961731 C45.0713916,16.9379604 45.045033,16.9092958 45.0211022,16.9071984 C44.9954373,16.9047515 44.9652637,16.9281725 44.9402925,16.9453013 C44.9285005,16.9529918 44.9226045,16.9718685 44.9174022,16.9868999 C44.8910436,17.0662518 44.8660724,17.1463028 44.8327774,17.2497748 C45.0145126,17.1959414 45.1851495,17.2088754 45.3453816,17.1085495 C45.4685038,17.031295 45.6270018,16.9970373 45.7827253,17.020808 C45.8631882,17.0326933 45.9394893,17.0491229 45.9530154,17.1560907 C45.9575241,17.1886005 45.9994896,17.2165659 46.0255013,17.24558 C46.0563686,17.2794881 46.0882763,17.3123475 46.1292014,17.3553443 C46.0945191,17.3742209 46.075097,17.3944959 46.0581027,17.3923985 C45.9668883,17.3829601 45.8885063,17.4042838 45.8090839,17.4546215 C45.6485049,17.5563457 45.4605268,17.6133253 45.323185,17.7545507 C45.2298896,17.7678342 45.1619123,17.8136276 45.1268832,17.9055639 C45.1220277,17.9174492 45.1029524,17.926538 45.0887327,17.9314319 C44.8910436,17.9985489 44.7398289,18.1446683 44.5497699,18.2449942 C44.4887291,18.2397507 44.4172836,18.233808 44.3680347,18.1701867 C44.3160113,18.1030697 44.2459531,18.1037688 44.1720798,18.1128576 C43.8689566,18.1499118 43.6310361,18.2876415 43.4801681,18.5634504 C43.4229423,18.6683207 43.4371621,18.702928 43.5675675,18.7462744 C43.5828277,18.7515179 43.5973942,18.7574605 43.6123076,18.7634032 L43.605718,18.757111 C43.6230591,18.8340159 43.7007475,18.8228297 43.7479154,18.8563882 L43.7437535,18.8507951 C43.717395,18.8930928 43.6896491,18.9207087 43.6299956,18.914766 C43.4486072,18.8951902 43.294271,18.9570637 43.1402817,19.0591375 C42.8936906,19.2216865 42.6821286,19.4279315 42.4414335,19.5985205 C42.2687157,19.7201701 42.1386571,19.9033436 41.9902169,20.0596004 C41.9794654,20.070437 41.9690607,20.0865171 41.9676734,20.1011989 C41.9538005,20.2696906 41.8632797,20.3791053 41.7148395,20.4504171 C41.6811977,20.4664972 41.6472091,20.5011044 41.6326425,20.5353621 C41.5774977,20.6674987 41.4741445,20.7472001 41.3621207,20.8262024 C41.2514842,20.9041561 41.1678998,21.0048316 41.1269747,21.1460569 C41.0839687,21.2960215 40.9483609,21.3858604 40.8450077,21.4949255 C40.801308,21.5410685 40.7472037,21.577074 40.7000357,21.6204204 C40.6573765,21.659572 40.6105554,21.682993 40.5522892,21.6913826 C40.4652366,21.7036175 40.3878951,21.747663 40.3070854,21.7770267 C40.2148305,21.8109348 40.137489,21.8588256 40.0570261,21.9095129 C40.004309,21.9427218 39.9443087,21.9745325 39.8839615,21.9843204 C39.755637,22.0049449 39.6404918,22.0496896 39.528468,22.1161074 C39.4473114,22.1639982 39.352282,22.1888175 39.2631485,22.2234247 C39.2114719,22.2436997 39.1535524,22.2545363 39.1095059,22.2856478 C39.0443032,22.3317907 38.980141,22.363951 38.8993313,22.3810798 C38.825458,22.3968103 38.7543593,22.4450507 38.6915843,22.4925919 C38.6239539,22.5439784 38.5552829,22.5712446 38.4713518,22.562855 C38.3683454,22.552368 38.2646454,22.5492219 38.1626794,22.5324426 C38.0659158,22.5163625 37.9805974,22.5198582 37.8855679,22.5625054 C37.7707696,22.6138919 37.6427919,22.6383616 37.5175888,22.660734 C37.4378196,22.6754158 37.3604781,22.6827567 37.3035991,22.7502233 C37.2886857,22.7680513 37.2675295,22.7834323 37.2460265,22.792521 C37.0493779,22.877466 36.8516889,22.9617118 36.6539998,23.0445594 C36.6175834,23.0599403 36.5742306,23.0613386 36.5412824,23.0809144 C36.3630154,23.1878821 36.162205,23.2434634 35.9759611,23.3347006 C35.8146884,23.414402 35.6544562,23.5143784 35.4671719,23.5336046 C35.4446284,23.5360516 35.4182698,23.5458395 35.402316,23.5608709 C35.220234,23.7335574 34.9732961,23.7643194 34.7558381,23.8562557 C34.470056,23.9768565 34.1676265,24.0562084 33.878723,24.1701675 C33.5540968,24.2977597 33.2371006,24.4452773 32.9155958,24.5809096 C32.8143235,24.6239064 32.7085425,24.6557171 32.6048425,24.6934704 C32.4702752,24.7417108 32.3311992,24.7815615 32.2021811,24.8423863 C32.0728162,24.9035606 31.9257633,24.9150964 31.8047221,24.9961961 C31.7915428,25.0049353 31.7762826,25.0129753 31.7610224,25.0150728 C31.4676102,25.05772 31.2099208,25.2129281 30.9237919,25.2807442 C30.7795136,25.3153514 30.6456399,25.3947033 30.5062171,25.4513333 C30.439974,25.47825 30.371303,25.4992241 30.3043662,25.5247425 C30.1045962,25.59955 29.9062135,25.6778532 29.7050562,25.7481163 C29.5850555,25.7900644 29.4598525,25.8166316 29.3388113,25.8554336 C29.2711808,25.8771068 29.2066717,25.9089175 29.1418159,25.9386307 C29.0693299,25.9714901 29.0006589,26.0148365 28.9253984,26.0396558 C28.6545297,26.1312426 28.3812332,26.215838 28.1100177,26.3049777 C28.0729077,26.3172126 28.0396127,26.3409832 28.0042368,26.3588112 C27.8193802,26.4538936 27.637645,26.5433829 27.4177592,26.5391881 C27.3029609,26.5370907 27.1864284,26.592672 27.0723236,26.6279783 C26.9131319,26.6772674 26.7605298,26.7496279 26.5912803,26.7618628 C26.5833033,26.7622124 26.5715114,26.7580175 26.5676963,26.7618628 C26.4639963,26.8744236 26.2996022,26.8565956 26.1861911,26.9345493 C26.0439937,27.0327778 25.8865361,27.0848634 25.7287317,27.1352011 C25.5698868,27.186238 25.4117356,27.2463637 25.2417924,27.2540542 C25.2182084,27.2551029 25.1908094,27.2547533 25.172081,27.2666386 C24.9705769,27.3931821 24.7291881,27.3858412 24.5145048,27.4672905 C24.4926549,27.4760297 24.4676837,27.4847689 24.4451402,27.4823219 C24.3521916,27.4732331 24.2644455,27.4445686 24.1721906,27.5130839 C24.1069879,27.5616738 24.0112647,27.5536337 23.9311486,27.5910375 C23.824674,27.6406761 23.703286,27.6585041 23.5881408,27.689266 C23.4743829,27.7196784 23.3575036,27.7371568 23.2544972,27.8011277 C23.1369242,27.8748865 23.0155362,27.9388574 22.888599,27.8727891 C22.7255923,27.988496 22.5702156,28.0570113 22.3884804,28.0517678 C22.3603877,28.0510686 22.3316014,28.0706444 22.3035088,28.0818306 C22.1058197,28.1629303 21.907437,28.2356404 21.6962219,28.2824825 C21.4028097,28.3485508 21.112519,28.4327966 20.8194536,28.5037589 C20.7813031,28.5131972 20.7466208,28.5359191 20.7091639,28.5485035 C20.5468508,28.6040848 20.4008384,28.7100038 20.2128604,28.6869324 C20.1604901,28.6802906 20.101877,28.7358719 20.0446513,28.7592929 C19.7876555,28.8631145 19.5160932,28.9183462 19.2507736,28.9938528 C19.2278833,29.0001451 19.2032589,29.0018929 19.1817559,29.0113312 C19.007304,29.0906831 18.8266092,29.1361269 18.6337757,29.1501096 C18.5331971,29.157101 18.4364335,29.2077883 18.3365485,29.2326076 C18.0431363,29.3063664 17.74799,29.3724347 17.456312,29.4517866 C17.3716872,29.4748581 17.2884497,29.4566805 17.201744,29.484646 C17.0217429,29.5437229 16.8323776,29.5744849 16.6464805,29.6153843 C16.5920293,29.6276192 16.535844,29.6475445 16.4820864,29.6426506 C16.3256693,29.6283183 16.1921425,29.7171085 16.0412745,29.7317904 C15.9590775,29.7398304 15.8813892,29.8051996 15.8626608,29.9034281 C15.8487878,29.9764878 15.9084414,30.049897 16.0176906,30.091146 C16.0613903,30.1079253 16.1109859,30.1177132 16.1574602,30.1173636 C16.269484,30.1163149 16.3815078,30.1142175 16.4924911,30.1009339 C16.6336481,30.0845042 16.7730709,30.0533927 16.9145746,30.036963 C16.9586211,30.0317195 17.0099509,30.0460518 17.0505292,30.0670258 C17.1060208,30.09604 17.1542292,30.1393864 17.211455,30.1813345 C17.1871774,30.2040564 17.168449,30.2351679 17.1431309,30.243208 C16.9995462,30.2872535 16.8635916,30.3606627 16.706134,30.3557688 C16.6527233,30.354021 16.5982721,30.3760437 16.5445146,30.3865308 C16.3489065,30.4239345 16.1543388,30.46798 15.9573434,30.4955959 C15.8654353,30.5085299 15.7690186,30.4893037 15.6826597,30.4847593 C15.6157229,30.4218371 15.5689018,30.3652071 15.5435837,30.28201 C15.499884,30.1379881 15.417687,30.0072497 15.390288,29.8548382 C15.384392,29.8219788 15.3476288,29.7835264 15.3153742,29.7677958 C15.2071655,29.7146615 15.0951417,29.6762091 14.9695918,29.7076702 C14.8690132,29.7328391 14.7667004,29.7499679 14.6640408,29.7656984 C14.520803,29.7870221 14.4202243,29.7150111 14.342536,29.6031494 C14.1902807,29.3836209 14.1660031,29.3752313 13.9110883,29.4542336 C13.8507411,29.4727607 13.7876194,29.4940843 13.7262317,29.4933852 C13.594439,29.4916373 13.473051,29.5307889 13.3537439,29.5737857 C13.1383669,29.6510402 12.9257645,29.7286443 12.6940868,29.7510166 C12.5699242,29.7632515 12.4506171,29.8230275 12.3281886,29.8572852 C12.1357019,29.9114682 11.9057583,29.8114918 11.8190526,29.6370575 C11.8055265,29.6101408 11.8048329,29.5755336 11.8027519,29.5440725 C11.7996305,29.4965313 11.8027519,29.4482909 11.79859,29.4014488 C11.7857576,29.2493869 11.7160462,29.1731811 11.5679528,29.200797 C11.3595122,29.2399485 11.1611296,29.1515079 10.9554636,29.1815707 C10.8722261,29.193456 10.8219368,29.1294851 10.7973123,29.0588724 C10.7699133,28.9809188 10.7220518,28.9407186 10.6395079,28.9330281 C10.6291032,28.8879338 10.6186985,28.8417909 10.6082939,28.7984445 C10.6162708,28.7809661 10.6186985,28.7620894 10.6294501,28.7536998 C10.7106066,28.6890298 10.7962719,28.6299528 10.874307,28.5614375 C10.9048274,28.5345208 10.9183535,28.4880283 10.9405502,28.4488767 C10.8392779,28.3999372 10.7307223,28.452722 10.6488721,28.3695249 C10.6641323,28.3415594 10.6800862,28.3121957 10.6967337,28.2817833 C10.4782353,28.2118698 10.4782353,28.2118698 10.3041302,28.2912217 L10.3041302,28.4950197 C10.1966151,28.5331226 10.1099093,28.5474548 10.0405448,28.4453811 C10.0294464,28.4289514 9.99892602,28.4258053 9.977423,28.4167165 C9.96112233,28.3499491 9.91880993,28.3066027 9.8577691,28.2800355 C9.81892494,28.2898234 9.7804276,28.3104479 9.74401119,28.3069522 C9.61672719,28.2947174 9.49707329,28.2947174 9.39059866,28.3852554 C9.36528059,28.406579 9.31603174,28.4048312 9.27788122,28.4041321 C9.18389221,28.4023842 9.08990321,28.3908485 8.9959142,28.3911981 C8.93313926,28.3915476 8.8929078,28.4279027 8.89152051,28.5128476 C8.96539379,28.5250825 9.04204165,28.5509505 9.11799586,28.5485035 C9.30007788,28.5429105 9.48424084,28.5376669 9.66250781,28.5055067 C9.76620786,28.48663 9.8910641,28.5233347 9.97395477,28.4209113 C9.97603571,28.4674038 9.97811665,28.5135468 9.98019759,28.561088 C9.91707582,28.6453338 9.82239317,28.6631618 9.72736369,28.6732992 C9.60909709,28.6858837 9.49048365,28.6918263 9.3715234,28.6981185 C9.29869059,28.7019638 9.22793872,28.7068577 9.16759154,28.7806165 C9.18736044,28.8075332 9.20990393,28.8627649 9.23106013,28.8624154 C9.31707221,28.8599684 9.39753512,28.9113549 9.48805589,28.8749998 C9.59453052,28.8323525 9.70655432,28.8599684 9.81580353,28.8774468 C9.82759551,28.8795442 9.83661291,28.8998191 9.85568817,28.9214923 C9.82794233,28.9466612 9.80401155,28.9854632 9.77210385,28.9935033 C9.58273854,29.0406949 9.39441371,29.1032676 9.19533737,29.0889353 C9.0957992,29.0815944 8.98759045,29.1120067 8.90435296,29.0270618 C8.95741686,28.9879102 8.96886202,28.8984209 9.05764868,28.9001687 C9.06458514,28.9001687 9.08019217,28.8596188 9.07672394,28.8407422 C9.07325571,28.8197681 9.05591456,28.7911036 9.0382266,28.7848113 C8.90365931,28.7376197 8.7611151,28.7320266 8.65429365,28.8292064 C8.59429329,28.883739 8.53186516,28.8938765 8.46700928,28.9148505 C8.32446507,28.9602943 8.18816367,29.0053886 8.07059071,29.1141042 C7.98665957,29.1913586 7.8614565,29.2287624 7.74110896,29.1710837 L7.74110896,28.7939001 C8.08619774,28.6925255 8.03694889,28.6785427 8.06157332,28.463209 L8.05498368,28.4712491 C8.09070644,28.4523724 8.08793186,28.4331462 8.05463686,28.4142695 L8.06157332,28.4188139 C8.06296061,28.3950433 8.07024389,28.3695249 8.06504154,28.3475021 C8.05845191,28.3188375 8.04804722,28.2793364 8.02758467,28.2695485 C8.00469436,28.2587119 7.96862478,28.2761903 7.93879801,28.2824825 C7.93186155,28.2838808 7.92249733,28.2905225 7.9204164,28.2964652 C7.86110968,28.4625099 7.70677349,28.4820857 7.57255303,28.5002632 C7.32041278,28.5345208 7.07451535,28.5852082 6.83277979,28.6652592 C6.73636302,28.6970698 6.63162251,28.7026629 6.53347163,28.7190926 C6.52792246,28.8382952 6.62884793,28.7879574 6.67011985,28.8278082 C6.73566938,28.9106557 6.71728776,29.0078356 6.71069813,29.1175998 C6.62642016,29.185416 6.53520574,29.2588252 6.43323981,29.3413232 C6.3815632,29.2920341 6.33751669,29.2497364 6.28237185,29.1973013 C6.24734274,29.213731 6.18630191,29.2224702 6.17000123,29.2542808 C6.07705269,29.4367552 5.89566432,29.438503 5.73543214,29.484646 C5.59184746,29.4378039 5.45415877,29.5091157 5.31300185,29.5049209 C5.29011154,29.5042218 5.26722123,29.5049209 5.25057373,29.5049209 C5.19646936,29.4598267 5.17427269,29.4140333 5.20964863,29.3539076 C5.25404196,29.2787506 5.29843529,29.2035935 5.34386909,29.1270382 C5.41149955,29.0892848 5.48121096,29.0938292 5.54745413,29.1298347 C5.60121168,29.1591984 5.65392876,29.154654 5.70872678,29.1406713 C5.70976725,29.1588488 5.70109667,29.1889117 5.73681943,29.1644419 C5.72606792,29.1578001 5.71496959,29.1518575 5.70387126,29.1452157 C5.74063448,29.089984 5.778785,29.035801 5.81277365,28.9788214 C5.82734021,28.9540021 5.83288937,28.9239393 5.84260042,28.8963234 C5.96156067,28.9158992 6.08086775,28.9351255 6.20086847,28.9540021 C6.24664909,28.9183462 6.28861466,28.8847877 6.33092706,28.8515788 L6.33821034,28.8624154 L6.32676518,28.8561232 C6.34271903,28.8229142 6.35867289,28.7900549 6.37462674,28.7571955 L6.3860719,28.7481067 L6.37982908,28.762439 C6.34861502,28.7610407 6.31393273,28.7680321 6.28584008,28.7575451 C6.1876892,28.7204909 6.10375806,28.7215396 6.0302316,28.8117281 C6.01913327,28.8253612 5.96468208,28.8026393 5.9195951,28.7945992 C5.8984389,28.8260603 5.87312083,28.8641632 5.84745594,28.9029652 C5.81034589,28.8722033 5.77774453,28.8306047 5.73543214,28.814175 C5.66572074,28.7869087 5.59913074,28.764886 5.51173137,28.7809661 C5.40109487,28.8019402 5.2835219,28.8124272 5.16733623,28.816622 C5.06259572,28.8201177 4.93323078,28.8606675 4.89126521,28.9693831 C4.83334578,29.1200468 4.69704438,29.1424191 4.59230387,29.2221206 C4.54340184,29.1742298 4.50074262,29.1326312 4.45877705,29.0913822 L4.45600247,29.0938292 C4.45322789,29.0627177 4.45634929,29.0295088 4.44629143,29.0011938 C4.43103122,28.9571482 4.39045294,28.9417673 4.34918102,28.9540021 C4.31207097,28.9648387 4.28016326,29.0001451 4.24340003,29.0053886 C4.16675217,29.0158756 4.21045186,29.0843909 4.17299499,29.1259895 C4.0762314,29.1413704 3.96628854,29.1487114 3.86328214,29.1787742 C3.76443761,29.2070892 3.66455262,29.2270145 3.56501445,29.2497364 C3.40998461,29.2846932 3.30212269,29.239599 3.23483905,29.0906831 C3.21611061,29.0497837 3.17796009,29.0123799 3.13946275,28.9879102 C3.05899984,28.9361742 2.97472188,28.8893321 2.88766933,28.8505301 C2.77252413,28.7991436 2.65425752,28.7554476 2.53529726,28.7134995 C2.50789825,28.7037116 2.47321596,28.7152474 2.44165508,28.7166456 L2.44720425,28.7121012 C2.44269555,28.684835 2.43853368,28.6575687 2.4343718,28.6303024 L2.40593232,28.6303024 C2.40177045,28.6575687 2.39760857,28.6844854 2.39379352,28.7114021 L2.39760857,28.7145482 C2.34003597,28.6970698 2.27864832,28.7044108 2.23668275,28.6348468 C2.20200046,28.5775177 2.13090176,28.5425609 2.0722887,28.4943205 C2.07332916,28.4212609 2.10835828,28.3377142 2.03101677,28.2754911 C1.97136323,28.2276003 2.01436927,28.1723686 2.02408031,28.1083977 C2.11945661,28.0657505 2.21552655,28.0178597 2.27622056,27.9115911 C2.31367743,27.8462219 2.39067212,27.8046234 2.44859154,27.7507899 C2.50616414,27.6976556 2.59633809,27.6987043 2.64107825,27.6179542 C2.67506689,27.5571294 2.73402678,27.5099378 2.76940272,27.4704366 C2.98998208,27.4470156 3.01287239,27.5134334 3.23345176,27.6920626 C3.27472368,27.6745842 3.3173829,27.6539597 3.36177623,27.6385787 C3.40616956,27.6231977 3.44501372,27.6235473 3.49634351,27.6396274 C3.62917668,27.6822747 3.76929313,27.7004522 3.91253099,27.7298159 C3.91010323,27.7413516 3.90420724,27.7686179 3.89831125,27.7958842 C3.8868661,27.7990303 3.87542094,27.8014773 3.86397578,27.8042738 C3.87299318,27.8007781 3.88270422,27.7972825 3.89206844,27.7937868 C3.9898725,27.800079 4.05299426,27.7486925 4.10848593,27.6728363 C4.16467124,27.5966306 4.23576993,27.5417484 4.32837164,27.5025968 C4.47750549,27.4396746 4.62143699,27.4428208 4.76744943,27.4900124 C4.8517274,27.5172787 4.93461807,27.5102873 5.01958968,27.5165796 C5.24120951,27.5333588 5.45866747,27.4568035 5.67959365,27.4963046 C5.70074985,27.5001499 5.7257211,27.4868663 5.74757094,27.4784767 C5.78988334,27.462047 5.81624188,27.4134571 5.87381448,27.4256919 C5.94872822,27.4417721 6.02953796,27.4382764 6.10028983,27.4641444 C6.17450993,27.4910611 6.24005946,27.4991012 6.30110029,27.449113 C6.35936653,27.4015718 6.41589867,27.415904 6.47971408,27.4319842 C6.58168001,27.4575026 6.68364594,27.4582017 6.77451354,27.3903856 L6.76861755,27.3973769 C6.88237546,27.3592741 6.99786749,27.3910847 7.11266587,27.390036 C7.15220368,27.3896865 7.19208831,27.4043683 7.2312793,27.40297 C7.51081855,27.3910847 7.79798791,27.39493 7.95509869,27.0596945 C7.94954952,27.043964 7.93394249,27.0009671 7.91972275,26.9628642 C7.89821973,26.9555233 7.88365317,26.9457354 7.8704739,26.9471337 C7.75255411,26.959019 7.63532797,26.9764974 7.51740819,26.9838383 C7.49417105,26.9852366 7.4539396,26.9555233 7.44839043,26.9338501 C7.44284127,26.9093804 7.46018241,26.8639366 7.48099178,26.8513521 C7.54237944,26.8153467 7.60966308,26.7894786 7.67625308,26.7632611 C7.74145578,26.737393 7.77336349,26.6846083 7.80214979,26.6255314 C7.82989562,26.5685518 7.82226552,26.5189132 7.784115,26.468925 C7.77336349,26.4552919 7.77301666,26.4259282 7.7796063,26.4084498 C7.79729427,26.3612581 7.82157187,26.3165135 7.85347958,26.2493965 C7.89232374,26.3119691 7.92769968,26.3546164 7.94712176,26.4032063 C8.01475222,26.574844 8.13232519,26.6513994 8.31822226,26.6405628 C8.4278183,26.6342706 8.53914845,26.6545455 8.66123011,26.6632847 C8.70874484,26.6241331 8.76319604,26.5793884 8.81036395,26.5405864 C8.85406364,26.4472518 8.82007499,26.3325936 8.9307115,26.270021 C9.07117477,26.3717452 9.17452799,26.5112227 9.26886382,26.6458063 C9.42944282,26.7171181 9.57233386,26.6964936 9.72216135,26.5989642 C9.71730583,26.5685518 9.70655432,26.5321968 9.70724797,26.4954922 C9.70967573,26.3126682 9.79638145,26.1759872 9.95245175,26.0913918 C10.0152267,26.0567846 10.0838976,26.0365097 10.1265568,25.9774328 C10.128291,25.965897 10.1327997,25.9568083 10.1300251,25.950516 C10.1064411,25.8935365 10.081123,25.8372561 10.0523367,25.7718869 C9.72562958,25.7725861 9.41452944,25.8054454 9.11071258,25.8844477 C9.11799586,25.978831 9.15996143,25.9805789 9.21302534,25.9739371 C9.23106013,25.9718397 9.26158054,25.9875702 9.268517,26.0033008 C9.27545346,26.0193809 9.26747653,26.0515411 9.25464408,26.0655238 C9.15198451,26.1763368 9.00597207,26.182629 8.90053791,26.0840509 C8.87140478,26.0571342 8.83325426,26.0365097 8.81244489,26.0043495 C8.76631744,25.9337368 8.70770437,25.9145106 8.62793511,25.9288428 C8.57417756,25.9386307 8.52492871,25.9277941 8.46978387,25.901227 C8.36781793,25.8512388 8.27903127,25.8900408 8.24955133,26.007146 C8.22145867,26.1172599 8.16388607,26.1396322 8.06504154,26.1508184 C7.89856655,26.1689959 7.74804542,26.1242512 7.60203298,26.0574838 C7.48307272,26.0033008 7.36237835,25.978831 7.23336024,25.9980573 L7.2434181,26.0067965 C7.28399638,25.9819771 7.32457466,25.9575074 7.3828409,25.9218515 C7.38804325,25.8592789 7.40122252,25.779927 7.39983523,25.7009247 C7.39810111,25.5971031 7.3918583,25.5006224 7.43902621,25.3968007 C7.46989345,25.328635 7.43313022,25.2290082 7.42584694,25.1370719 C7.22052779,25.0675079 7.02630697,25.0968716 6.83347343,25.1493068 C6.8057276,25.1569973 6.77590083,25.1783209 6.76064063,25.2024411 C6.66803891,25.3471621 6.51647731,25.372331 6.36907757,25.4041417 C6.23069524,25.4342045 6.08711056,25.4188235 5.9483814,25.4600725 C5.82595292,25.4971267 5.71739735,25.4300097 5.61751236,25.3656892 C5.48676012,25.4219696 5.36363799,25.4772013 5.23912857,25.5282382 C5.17531316,25.5544558 5.14236499,25.6068909 5.103174,25.6582774 C5.05253786,25.7253944 4.98525421,25.7697895 4.89542708,25.7365806 C4.84513776,25.7180535 4.8062936,25.7264431 4.76363438,25.7610503 C4.70363402,25.8106889 4.6321885,25.8110385 4.56108981,25.7816748 C4.5094132,25.7603512 4.45704294,25.7404258 4.4064068,25.7166552 C4.34952784,25.6900881 4.29923852,25.6425469 4.22883347,25.6617731 C4.14490233,25.6848446 4.06097119,25.7089647 4.01276281,25.7932106 C4.0051327,25.8061446 3.9884852,25.8138351 3.98779156,25.8145342 C3.8990049,25.8278178 3.82166339,25.8337604 3.74744329,25.8522875 C3.67148908,25.8711642 3.59934991,25.9061209 3.52374252,25.927095 C3.37322138,25.9686936 3.2674404,25.9190549 3.19842264,25.76944 C3.1734514,25.7159561 3.1113701,25.6708618 3.14605239,25.5946561 C3.14917379,25.5876647 3.10512728,25.5590002 3.08293062,25.5404731 C3.18593702,25.4834935 3.2931053,25.4464394 3.41345284,25.4338549 C3.53067898,25.42162 3.64582418,25.3817693 3.75854162,25.344016 C3.80293495,25.3293342 3.83865771,25.2859878 3.81680787,25.2290082 C3.79565167,25.1741261 3.78420652,25.1216909 3.82755938,25.0549235 C3.87542094,25.0409408 3.93854271,25.0315024 3.99438119,25.0049353 C4.14663645,24.9332739 4.29403618,24.9556462 4.42444159,25.0426886 C4.53854632,25.1181952 4.65230423,25.1195935 4.76606214,25.0772958 C4.88953109,25.0311529 5.01334687,25.0276572 5.14097769,25.0273076 C5.22803024,25.0269581 5.31473597,25.0115771 5.40144169,25.0017892 C5.45693335,24.995497 5.51173137,24.9843108 5.56756986,24.9808151 C5.78225323,24.967182 5.99797707,24.9640359 6.21161998,24.9406148 C6.37670768,24.9224373 6.5376335,24.8727987 6.68225865,24.7850572 C6.7360162,24.7528969 6.78318411,24.7462552 6.83798213,24.7808624 C6.86260656,24.7962433 6.89624838,24.8102261 6.92330057,24.8063808 C7.10156753,24.7819111 7.28815825,24.7840085 7.44734996,24.6557171 C7.44734996,24.6036315 7.45324595,24.5470015 7.44596267,24.492469 C7.43208976,24.3886474 7.38908372,24.3505445 7.27497898,24.3288713 C7.26734888,24.327473 7.25902513,24.3285217 7.25139503,24.3271234 C6.98989056,24.2746883 6.94445676,24.1736632 7.0661916,23.9160318 C7.12133644,23.9149831 7.12098962,23.9579799 7.12861972,23.9957332 C7.13174113,24.0111142 7.13243477,24.0338361 7.14249264,24.0404779 C7.17405352,24.0600537 7.20908263,24.0841738 7.24376492,24.0859217 C7.26041242,24.0869704 7.29474789,24.0432744 7.29578836,24.0188047 C7.30307164,23.8674418 7.36480611,23.7440444 7.45810147,23.6472142 C7.57532761,23.6622456 7.68457683,23.6762283 7.78619593,23.6895119 C7.85105182,23.6251914 7.88226588,23.5654153 7.98353816,23.5608709 C8.18330815,23.5521317 8.19059143,23.5447908 8.12088003,23.733907 C8.08585092,23.829339 8.12781649,23.8929603 8.23186336,23.883522 C8.31301992,23.876181 8.38793366,23.8782784 8.46596881,23.9083413 C8.50793438,23.9244214 8.559611,23.9177796 8.60677891,23.9167309 C8.77602848,23.9128856 8.93730113,23.9345588 9.08539451,24.0275439 C9.13117513,24.0562084 9.18874773,24.0659963 9.24527987,24.0855721 C9.28238992,24.1537378 9.32054043,24.2236514 9.36146554,24.2984589 C9.6805426,24.3505445 9.99615144,24.3341148 10.3075984,24.2607056 C10.3797376,24.2439263 10.4678306,24.1949868 10.5014724,24.134162 C10.5940741,23.9667191 10.768526,23.9135848 10.9023997,23.8055684 C10.9457525,23.7706116 10.9984696,23.7475401 11.0390479,23.7097868 C11.0546549,23.6947554 11.0608977,23.6412715 11.0491058,23.6304349 C11.0300305,23.6129565 10.9884117,23.6056156 10.9630937,23.6140052 C10.9360415,23.6227444 10.9183535,23.6577012 10.8930355,23.6765779 C10.868411,23.6947554 10.8396247,23.7073398 10.8042488,23.7272652 C10.7067916,23.6293862 10.6089875,23.5416447 10.4823971,23.4857139 C10.4036683,23.4507571 10.3873677,23.3444885 10.3669051,23.2626896 C10.3315292,23.1228625 10.308292,22.9791902 10.3700265,22.8383144 C10.3797376,22.8169908 10.376963,22.7893749 10.3877145,22.7687504 C10.4501426,22.6436052 10.3433212,22.5642533 10.3065579,22.467423 C10.298581,22.4460994 10.2538409,22.4321167 10.2243609,22.4279219 C10.1858636,22.4226783 10.143898,22.4359619 10.1057475,22.4296697 C10.0689842,22.423727 10.02251,22.4125409 10.0017006,22.3863233 C9.92782733,22.2933383 9.83695973,22.2416023 9.71973359,22.2356596 C9.59071547,22.2290178 9.49742011,22.1584051 9.4169572,22.0636723 C9.36458694,21.8993754 9.4214659,21.7689867 9.53591745,21.6501336 C9.62366365,21.5588964 9.70273927,21.4631149 9.81927176,21.4019405 C9.90250926,21.3585941 9.977423,21.2925258 10.0436662,21.2250592 C10.1196204,21.1478048 10.1636669,21.0555189 10.1088689,20.9401615 C10.0897936,20.8992621 10.0897936,20.8492739 10.0780016,20.7884491 C10.0190418,20.7933431 9.95800092,20.7821569 9.91568853,20.8059275 C9.83904067,20.8482252 9.72424229,20.8003344 9.67811484,20.90905 C9.65973323,20.8964656 9.62886599,20.8873768 9.62539776,20.8716463 C9.60007969,20.7555898 9.57268068,20.6409315 9.59765193,20.5185828 C9.63164057,20.3521886 9.56574422,20.2312381 9.41036756,20.1497889 C9.29869059,20.0910615 9.17452799,20.0477151 9.11938315,19.9187246 C9.15579956,19.8208456 9.18077081,19.719471 9.23001966,19.6317295 C9.28308356,19.5362975 9.40967392,19.5845378 9.48805589,19.5265096 C9.52481912,19.4992433 9.56574422,19.4789683 9.61221849,19.4513525 C9.53348969,19.3912268 9.45753548,19.3835364 9.3760321,19.376545 C9.27025111,19.3674562 9.15614638,19.3887799 9.0656256,19.2933479 C9.03475837,19.2604885 8.96296603,19.2664312 8.90712754,19.2545459 C8.91128941,19.1982654 8.91475764,19.1517729 8.91891952,19.092696 C8.86377468,19.0689254 8.80724255,19.0451548 8.7399589,19.0161407 C8.74238666,18.9685994 8.74308031,18.9217574 8.74758901,18.8756144 C8.75625958,18.782979 8.7413462,18.7574605 8.65949599,18.7445265 C8.62793511,18.7396326 8.5960274,18.7396326 8.56411969,18.7364865 C8.54331032,18.734389 8.52284777,18.7312429 8.4763735,18.7253003 C8.51105579,18.6889452 8.52666282,18.6620285 8.55024678,18.6494441 C8.65325318,18.594562 8.71360036,18.4987804 8.78192447,18.4110389 C8.80065291,18.3869187 8.81972817,18.355108 8.82076864,18.3264435 C8.82389004,18.2345072 8.85024858,18.1548057 8.90123155,18.0782504 C8.93938207,18.0205717 8.94146301,17.9489103 8.89256098,17.8992717 C8.83568202,17.8422922 8.8308265,17.7758743 8.81730041,17.7045625 C8.79302281,17.5752224 8.73198198,17.5304777 8.5960274,17.5364204 C8.49267418,17.5413143 8.3900146,17.5598414 8.2870082,17.570678 C8.25648778,17.5738241 8.2249269,17.5710276 8.19440649,17.5710276 C8.12157368,17.4591659 8.16076466,17.3546452 8.232557,17.2805368 C8.36816476,17.1407097 8.42989923,16.9764129 8.46284741,16.7897437 C8.47776079,16.7051483 8.52250095,16.6264955 8.55787688,16.5338601 C8.64701037,16.5027486 8.74481442,16.4712875 8.84088437,16.4342333 C8.88354358,16.4178036 8.92724327,16.3971791 8.96192556,16.3678154 C9.06944066,16.2758791 9.19013502,16.2202978 9.33267924,16.2293866 C9.56609105,16.2447676 9.72736369,16.1329059 9.8456303,15.9420419 L9.84008113,15.940294 C10.1820485,15.9983223 10.4602005,15.8448621 10.7286414,15.6641355 C10.7941909,15.62009 10.8538445,15.5655574 10.9100298,15.5096266 C10.9277177,15.4924978 10.9322264,15.4533462 10.9284114,15.4264295 C10.9259836,15.4124468 10.8909545,15.392871 10.8722261,15.3942692 C10.7456357,15.4044067 10.6186985,15.4141946 10.4934955,15.43412 C10.3075984,15.4641828 10.2791589,15.4627845 10.0519899,15.3523211 C10.0672501,15.1862764 10.1778866,15.0845522 10.3069048,15.0052003 C10.347483,14.9800314 10.4223968,14.9789827 10.4667901,14.9996072 C10.5524554,15.039458 10.6370802,15.0359623 10.7244795,15.0307188 C10.9464462,15.0181343 11.1666787,14.9898193 11.3862176,14.9506678 C11.5901495,14.9143127 11.7965091,14.8884447 12.0025219,14.8664219 C12.0625223,14.8601297 12.1311932,14.8713159 12.1852976,14.8968343 C12.2293441,14.9178084 12.2574367,14.9726905 12.2945468,15.0146387 C12.4010214,14.9971603 12.5116579,14.985275 12.619173,14.9604557 C12.8206771,14.9136136 12.8612554,14.8576827 12.8820648,14.6304637 C12.8848394,14.6004009 12.8969782,14.5710372 12.909117,14.5430718 C12.9427588,14.4626712 12.9788284,14.3833193 13.0183662,14.2931308 C12.9739728,14.2462887 12.9257645,14.2053893 12.8890012,14.1561003 C12.7950122,14.0306054 12.6649536,14.0225654 12.5463402,14.0795449 C12.3899231,14.1550516 12.2248354,14.1707821 12.0604413,14.1969997 C11.9262209,14.2183233 11.812463,14.1718308 11.7174335,14.0522786 C11.8506135,13.894274 12.0212503,13.8121256 12.1957023,13.7376677 C12.2394019,13.7191406 12.2872635,13.7097023 12.3326973,13.6950204 C12.3968595,13.6743959 12.4443743,13.6348948 12.4721201,13.5719726 C12.5269181,13.4468273 12.5831034,13.3227308 12.6372078,13.1975855 C12.6840289,13.0899186 12.6448379,12.9770083 12.6483061,12.8668944 C12.6496934,12.8165567 12.6063406,12.7676172 12.5421783,12.7508379 C12.3982468,12.712735 12.2570899,12.7169299 12.1187076,12.7676172 C11.8558158,12.8637483 11.583213,12.9196792 11.3092229,12.9710656 C11.1711874,12.9965841 11.1632105,12.9972832 11.0085275,12.9598794 C10.9891054,12.9088425 11.0338455,12.8913642 11.0598573,12.8654961 C11.1555804,12.7697146 11.2544249,12.6767296 11.3477203,12.5788506 C11.3730383,12.5522834 11.4028651,12.5082379 11.3980096,12.477476 C11.3792812,12.3596716 11.4455243,12.3044399 11.5294555,12.2474604 C11.5943114,12.2034148 11.6473753,12.1422405 11.7052947,12.0898053 C11.6983582,11.9989177 11.6928091,11.9195658 11.6855258,11.8241338 C11.7337342,11.7996641 11.7867981,11.7678534 11.843677,11.7454811 C11.9400938,11.7073782 12.0365105,11.6685762 12.1363955,11.6423586 C12.2813675,11.6039062 12.4325823,11.5867773 12.5751265,11.5413335 C12.8085383,11.466526 13.0530485,11.4340162 13.2812579,11.3364868 C13.4185998,11.2777594 13.5687741,11.2494445 13.7133993,11.2074963 C13.9807997,11.1295427 14.2475065,11.0487926 14.5156006,10.9746842 C14.7531743,10.909315 14.9834647,10.813883 15.2203447,10.7569035 C15.560578,10.6747551 15.8900598,10.558349 16.2285589,10.4727049 C16.4973467,10.4048888 16.7581575,10.3063107 17.0245175,10.2283571 C17.4212829,10.111951 17.8201292,10.0025363 18.2175882,9.88857722 C18.2789759,9.87109883 18.3372421,9.84418211 18.3972425,9.82285848 C18.5547001,9.76762678 18.7086895,9.69246971 18.8706557,9.66415472 C19.0936629,9.62570227 19.2916987,9.51628757 19.5091567,9.46874635 C19.694707,9.42784693 19.8653438,9.34080456 20.0560964,9.3110913 C20.2093921,9.28697113 20.3554046,9.21635844 20.5045384,9.16602069 C20.6623428,9.11253682 20.8194536,9.05695555 20.9782985,9.00486995 C21.4399198,8.85420626 21.9029283,8.70773737 22.3635091,8.55392756 C22.5279032,8.49904542 22.682933,8.41514917 22.8487144,8.36516098 C23.143167,8.27637077 23.4282554,8.15507076 23.7261763,8.08271024 C23.942247,8.03062464 24.136121,7.92680302 24.3452552,7.8663278 C24.4954295,7.8229814 24.6293031,7.72300503 24.794044,7.72929725 C24.7985527,7.72754941 24.8034082,7.725452 24.8079169,7.72335459 C24.8082638,7.72824854 24.8086106,7.73349206 24.8086106,7.73873558 L24.790229,7.72580157 C24.815547,7.64505142 24.9060678,7.72370416 24.9497675,7.65553845 C24.9813284,7.60659897 25.0590167,7.61289119 25.1228321,7.60869637 C25.1738151,7.6052007 25.2254917,7.57199176 25.2726596,7.54437591 C25.4498861,7.44055429 25.6448006,7.38846869 25.8400619,7.33358656 C25.9444556,7.30422287 26.0446874,7.25458425 26.1404105,7.20214908 C26.1997172,7.16963928 26.2507002,7.15355917 26.3183307,7.17278539 C26.362724,7.18536983 26.3481574,7.0784021 26.4161347,7.10706666 C26.4237648,7.10776579 26.4317417,7.1088145 26.4393718,7.10916406 C26.4452678,7.10916406 26.4511638,7.10846493 26.4574066,7.10846493 C26.4414528,7.10916406 26.4254989,7.1098632 26.4098919,7.11056233 C26.5226093,7.03156002 26.6474656,6.98506751 26.7851543,6.98436838 C26.8340563,6.98436838 26.854172,6.95605339 26.8805306,6.92703927 C26.920762,6.88299373 27.0116296,6.99135973 27.0300112,6.87740065 C27.0875838,6.85363004 27.1517461,6.83929776 27.2016886,6.80399142 C27.3608803,6.69282888 27.5443496,6.63934501 27.7188015,6.56348881 L27.7288594,6.57362628 L27.7142928,6.56628535 C27.7496687,6.54915653 27.7850447,6.53272685 27.8204206,6.51559803 L27.8329062,6.52503636 L27.8166056,6.51979284 C27.880421,6.49007958 27.9414618,6.45267584 28.0080518,6.43240091 C28.1280525,6.39569629 28.2473596,6.36318649 28.3569556,6.29676862 C28.438459,6.24747957 28.5314076,6.22370896 28.6288648,6.22965161 L28.632333,6.24293519 C28.6295584,6.23769167 28.6267839,6.23279772 28.6240093,6.22790377 C28.6663217,6.20762885 28.7079404,6.18700435 28.7502528,6.16742855 C28.8470164,6.12233431 28.9708322,6.13911357 29.0422777,6.03599108 C29.0499078,6.02480491 29.0707172,6.02026053 29.0859774,6.01816313 C29.3069036,5.98775073 29.486211,5.83184352 29.7109522,5.80807291 C29.7612416,5.80282939 29.8066754,5.75528818 29.8545369,5.72767233 C29.985636,5.65286483 30.116735,5.58330085 30.2620538,5.53366223 C30.5235583,5.44417289 30.7899183,5.3637723 31.027492,5.21275904 C31.1346602,5.14459333 31.2522332,5.09565384 31.3746617,5.05475442 C31.5165122,5.00686364 31.655935,4.94883539 31.7842595,4.86109388 C31.9680757,4.7352495 32.1883082,4.6831639 32.3918932,4.5964711 C32.5812585,4.51537138 32.7862309,4.46852931 32.9495845,4.33045005 C32.9846136,4.30073679 33.0352497,4.28815235 33.0806835,4.2734705 C33.3085462,4.20041084 33.5298192,4.11371804 33.7309764,3.98053273 C33.7538668,3.96515175 33.7895895,3.968997 33.8072775,3.96585089 C33.8575668,3.99556414 33.8350233,4.03122005 33.8412661,4.05988461 C33.861035,4.15286963 33.8981451,4.19097251 33.9782612,4.19796387 C34.0888977,4.20810133 34.2002278,4.21544226 34.3112112,4.22173448 C34.3344483,4.22278318 34.3590727,4.21684053 34.3812694,4.2094996 C34.4638132,4.18188375 34.5442761,4.14902438 34.6275136,4.12525378 C34.703121,4.10358058 34.7846244,4.10043447 34.857804,4.07246905 C35.0745683,3.98997106 35.2916795,3.91621227 35.5257849,3.89349036 C35.6346873,3.88300333 35.7460175,3.84804655 35.8465961,3.80260275 C36.0997768,3.68724539 36.3609345,3.58517161 36.5697219,3.38836497 C36.6272945,3.33453153 36.6994336,3.29642865 36.7625554,3.25238311 C36.9703023,3.3565543 36.9703023,3.3565543 37.1541184,3.23210819 C37.2161997,3.25308225 37.2827897,3.27580415 37.3556225,3.3002739 C37.5061437,3.16813729 37.6500752,3.0314563 37.8220993,2.92763468 C37.9081114,2.87554908 37.9719268,2.78605974 38.0534302,2.70635829 C38.1925062,2.75459864 38.3301949,2.84303928 38.4928548,2.72488538 C38.5282308,2.77976752 38.559098,2.82695917 38.5875375,2.8710047 C38.6451101,2.86261508 38.6836074,2.85772113 38.7214111,2.85107934 C38.8386373,2.83045484 38.9336667,2.86156637 39.0241875,2.94546263 C39.1098528,3.02446494 39.1979458,3.11430385 39.3283512,3.08424103 C39.3342472,3.14261884 39.3373686,3.17442951 39.3415305,3.21393066 C39.428583,3.24609089 39.5173697,3.27895026 39.598873,3.30936266 C39.7261571,3.29852606 39.8128628,3.22057245 39.8999153,3.15415458 C40.0334421,3.05243036 40.1687031,2.95839664 40.3174901,2.87834563 C40.48015,2.79130326 40.6119427,2.66231276 40.6868565,2.47913926 C40.6743709,2.4483773 40.6591106,2.41237182 40.6441973,2.37671591 C40.8030421,2.25471677 40.9747195,2.16382915 41.1724085,2.12327929 C41.2157614,2.1145401 41.251831,2.07294154 41.2924093,2.04917093 C41.3815427,1.99673577 41.4703294,1.9432519 41.5618907,1.89466199 C41.6648971,1.84012942 41.7897533,1.82125276 41.8376149,1.68492134 C41.8487132,1.65380981 41.9163437,1.64332278 41.9576156,1.62234871 C41.9884828,1.60661816 41.994032,1.57795361 41.9801591,1.5 C42.0682521,1.50524352 42.1355357,1.5314611 42.1653625,1.62234871 C42.187906,1.69086399 42.2180796,1.75693229 42.236808,1.82614671 C42.2680221,1.94465017 42.2433976,2.00128015 42.133108,2.06560061 C42.0502173,2.11384096 41.9631647,2.15439082 41.8781931,2.19948506 C41.7737994,2.2543672 41.7443195,2.32288248 41.8032794,2.4375407 C41.8109095,2.45187297 41.8164587,2.46690439 41.8244356,2.4808871 C41.8279038,2.48717932 41.8355339,2.49102456 41.8428172,2.49696721 C41.9485982,2.53856578 42.0477895,2.50500727 42.1386571,2.45362081 C42.1965766,2.42076144 42.2531087,2.39244646 42.3179646,2.39943781 C42.4341502,2.41202225 42.5406249,2.37042369 42.6360012,2.32078507 C42.7917246,2.23898622 42.9543846,2.22849918 43.1267556,2.22080869 C43.1926519,2.2760404 43.2595887,2.33197124 43.3289533,2.39034905 C43.3258319,2.45257211 43.3116122,2.51584387 43.3227105,2.57422169 C43.3331152,2.62735598 43.3671038,2.67734417 43.3986647,2.72383668 C43.4302256,2.77067876 43.4735785,2.81262689 43.4517286,2.87484995 C43.427451,2.94371479 43.390341,3.00488915 43.3188954,3.03600068 C43.3043289,3.0422929 43.2914964,3.05452777 43.2765831,3.05767388 C43.1565823,3.08214362 43.0903392,3.16778772 43.0320729,3.27230848 C43.0868709,3.37543096 43.1586633,3.4313618 43.2828259,3.39465719 C43.3355429,3.37892664 43.3931155,3.3761301 43.4486072,3.37508139 C43.5349661,3.37298399 43.6053712,3.42472001 43.6247932,3.50651887 C43.6473367,3.60160129 43.650805,3.69213934 43.5970474,3.78547393 C43.5006306,3.95221774 43.4087226,4.11756329 43.2706871,4.25773995 C43.0917265,4.43951518 42.9373903,4.64576015 42.7591233,4.82823452 C42.6425908,4.94743712 42.5042085,5.04496652 42.3724158,5.14843857 C42.2343802,5.25645501 42.0866337,5.35223657 41.9544942,5.46689479 C41.8029326,5.59833226 41.6458218,5.72068097 41.4796936,5.83289222 C41.4214274,5.87204381 41.3777277,5.9328686 41.3267447,5.98355592 C41.2452413,6.06535477 41.2379581,6.16847726 41.245935,6.27509542 C41.24975,6.32263663 41.3090568,6.35899168 41.3541437,6.33452194 C41.4013116,6.30830436 41.4484796,6.27509542 41.482815,6.23419599 C41.5490582,6.15589282 41.6288275,6.11744037 41.7359957,6.11499339 C41.7835105,6.19224786 41.7977302,6.26425882 41.7363426,6.35269946 C41.6642034,6.45722022 41.6028158,6.57152887 41.5990007,6.7099577 C41.6270934,6.81797413 41.7443195,6.78231822 41.8240888,6.83754992 C41.8077881,6.86446664 41.7984239,6.89627731 41.7772677,6.91235742 C41.7196951,6.95535426 41.6579606,6.992758 41.5969198,7.03051132 C41.4526414,7.12035023 41.4058203,7.27870442 41.3374962,7.41888109 C41.3177273,7.45908138 41.3451263,7.52270271 41.3524096,7.58842144 C41.4581906,7.55031856 41.5466304,7.51815833 41.6409663,7.48425026 C41.6822382,7.5510177 41.7186546,7.61009465 41.7581924,7.67406554 C42.0200437,7.59576237 42.2565769,7.46677187 42.5118386,7.35456062 C42.4965784,7.40489838 42.48548,7.44055429 42.473688,7.47900674 C42.5232837,7.48355112 42.5687175,7.48774593 42.6179664,7.49229031 C42.6096426,7.51361395 42.6082553,7.53004363 42.5995848,7.53703499 C42.5683707,7.5618543 42.5375035,7.59016928 42.5017807,7.60555026 C42.2312588,7.72265546 42.2392358,7.76914797 42.0848996,7.93729006 C42.2385421,7.97504337 42.3231669,7.97783991 42.4154218,7.91701513 C42.6276774,7.77718803 42.8551932,7.66392808 43.0657147,7.52235314 C43.1045589,7.49613556 43.1503395,7.46467446 43.1683743,7.42447417 C43.2314961,7.2811514 43.3518436,7.20704303 43.4832895,7.15041306 C43.7187823,7.04868884 43.9195927,6.88998509 44.1373975,6.75924675 C44.2594791,6.68583752 44.3895377,6.6232649 44.502602,6.5376208 C44.6097703,6.45617151 44.7020252,6.3533986 44.7953205,6.25482049 C44.8331242,6.21496977 44.8553209,6.16078677 44.8879222,6.11499339 C44.9187895,6.07164699 44.9826049,6.05451817 44.9871136,5.99089684 C44.9749748,5.97866197 44.9621423,5.95768791 44.9548591,5.95908618 C44.9011015,5.97202018 44.8400607,5.97656456 44.7970546,6.00697696 C44.5109257,6.20972625 44.1845654,6.34500897 43.9019047,6.55195308 C43.650805,6.73547614 43.3674507,6.86586491 43.1149636,7.04659144 C43.0050207,7.12524418 42.8825922,7.18641854 42.7414353,7.18921508 L42.745944,7.19306032 Z" id="Fill-1" fill="#FFE8F3"></path>
            <path d="M45.1874844,12.6928114 C45.1415617,12.6902249 45.0964893,12.6838763 45.0526926,12.6864628 C45.0378103,12.6871682 45.0135733,12.7116223 45.0178254,12.7219683 C45.0225027,12.7323143 45.05737,12.7459521 45.0786305,12.745717 C45.1279549,12.7454819 45.1734525,12.7349008 45.1874844,12.6928114 M44.5713542,12.9556934 C44.8141495,12.8957337 44.7231544,12.8016794 44.6768065,12.7102115 C44.7818335,12.654014 44.9034437,12.6307356 45.0446136,12.6265031 C45.3384342,12.6180382 45.6194984,12.5801813 45.8767508,12.5 C45.9600921,12.5108163 45.9924081,12.548438 45.9945341,12.5839435 C45.9979358,12.6307356 46.0170703,12.6822303 45.9554148,12.7247899 C45.9192719,12.7504197 45.8865306,12.7774604 45.8482617,12.8019145 C45.715596,12.8856229 45.5982379,12.9737988 45.5268025,13.0800803 C45.4668478,13.1691968 45.3426863,13.2340943 45.1870592,13.2663079 C45.0497162,13.2949945 44.9468152,13.3427271 44.873679,13.4048029 C44.7631242,13.498387 44.6015442,13.5115546 44.4386885,13.4925086 C44.3400397,13.480987 44.249895,13.4784005 44.152947,13.4821626 C44.0372897,13.4863951 43.9841384,13.4445409 44.0041233,13.3784677 C44.0228325,13.3168621 44.0657788,13.2644268 44.1606008,13.228451 C44.2494698,13.1952969 44.3413153,13.1642589 44.4310347,13.1318102 C44.4880129,13.1111182 44.5488181,13.0925425 44.5989929,13.0676181 C44.6636249,13.0354044 44.6402383,13.0001341 44.5713542,12.9556934" id="Fill-3" fill="#FFE8F3"></path>
            <path d="M3.76039332,29.5625341 C3.66410785,29.6310759 3.56636352,29.6982523 3.47263107,29.7689787 C3.43032382,29.8009285 3.45548934,29.8585472 3.51420889,29.876024 C3.52952703,29.8809394 3.54776291,29.8910431 3.56052803,29.8880393 C3.71370946,29.8514473 3.84719613,29.9221737 3.9908949,29.9238121 C4.00986022,30.051065 4.00913078,30.0488804 3.88877395,30.0819224 C3.72319212,30.1275259 3.54849235,30.1294375 3.37707504,30.1450027 C3.24723554,30.1567449 3.11484302,30.1512835 2.96020273,30.1537411 C2.93613136,30.1712179 2.87339992,30.1952485 2.85589347,30.2318405 C2.79352675,30.361278 2.66368725,30.416166 2.49701127,30.4281813 C2.43026794,30.4330967 2.42807963,30.4762425 2.37738387,30.5 C2.33325303,30.4827963 2.28292199,30.463408 2.24134418,30.4470235 C2.19393088,30.3596395 2.21070789,30.2793555 2.21544922,30.1987985 C2.22237886,30.0830147 2.20997846,30.0748225 2.04549078,30.0385035 C2.02689018,30.0344074 2.00391297,30.0169306 2.00063051,30.00355 C1.99734805,29.9882578 2.00719542,29.9642272 2.02287828,29.9549427 C2.04767909,29.9396505 2.08488029,29.9216275 2.1118694,29.9254506 C2.21399035,29.9393774 2.31064054,29.9188968 2.40947903,29.9107045 C2.44886854,29.9077007 2.49081107,29.9167122 2.5305653,29.923266 C2.59767335,29.9350082 2.65821649,29.9363736 2.7224068,29.9068815 C2.76216103,29.8885855 2.81832755,29.8902239 2.866835,29.8836701 C3.04481723,29.8593665 3.08201843,29.8306936 3.11703133,29.6900601 C3.12323153,29.6654833 3.1287023,29.6406335 3.13563193,29.6097761 C3.16480935,29.5942108 3.19799866,29.576461 3.23155268,29.5587111 C3.26583615,29.5406881 3.30011961,29.5226652 3.34425045,29.5 C3.47627825,29.5415074 3.62070645,29.5628072 3.76841711,29.569361 L3.76039332,29.5625341 Z" id="Fill-5" fill="#FFE8F3"></path>
            <path d="M4.25671821,25.7556427 C4.3611467,25.6115925 4.4770194,25.5364846 4.61792634,25.5583444 C4.67157111,25.566752 4.72807694,25.5107013 4.78422514,25.5017332 C4.87291783,25.4871601 4.97305473,25.566752 4.99558554,25.655312 C5.01704345,25.739388 4.9580342,25.8744701 4.86719572,25.9501385 C4.75919091,26.0398195 4.64153004,26.1070803 4.49347047,26.0880231 C4.26136742,26.0577557 4.05930544,26.1855512 3.8576011,26.3267989 C3.78965105,26.3744419 3.72742312,26.4164799 3.64838648,26.4091933 C3.57650249,26.4030277 3.5035456,26.4411422 3.43058871,26.4551548 C3.33295522,26.4736516 3.23532174,26.4983138 3.13733062,26.5 C3.09405717,26.5005559 3.05042609,26.4501103 3,26.4192824 C3.0225308,26.2830793 3.04220055,26.1659335 3.06508899,26.0269279 C3.19133302,26.0779339 3.31221258,25.9921765 3.43881424,25.9635906 C3.49961165,25.9501385 3.54395799,25.9092215 3.58866197,25.8464448 C3.75031155,25.6194396 3.93377667,25.5802041 4.13405049,25.7091207 C4.16373393,25.7281779 4.19735132,25.7337829 4.25671821,25.7556427" id="Fill-7" fill="#FFE8F3"></path>
            <path d="M6.81404626,26.0193904 C6.84361362,26.0796176 6.87139981,26.142055 6.90274833,26.1995195 C6.93374062,26.2575365 6.96793901,26.3111332 7,26.3658349 C6.94763372,26.4973402 6.86605631,26.5139165 6.78305397,26.4918147 C6.70325773,26.4713706 6.62061162,26.4454011 6.54936498,26.3906994 C6.33526881,26.2243839 6.11582915,26.1906788 5.88285262,26.2680348 C5.78773835,26.3000823 5.68763682,26.2984247 5.59002892,26.3138959 C5.55761169,26.3194213 5.51593241,26.315001 5.49491465,26.3437332 C5.3356784,26.5603301 5.17323605,26.4221943 5.01863083,26.3951197 C4.97410168,26.2293568 5.0139998,26.1354245 5.08952124,26.090116 C5.15649309,26.0497803 5.2337957,26.013865 5.30290494,26.026021 C5.46570352,26.0542007 5.60855304,26.0050243 5.73430337,25.8364987 C5.89817065,25.8900954 6.0574069,25.9055666 6.21878055,25.820475 C6.30570146,25.7740613 6.38692263,25.7348308 6.44498864,25.6132713 C6.46743134,25.5663052 6.51089179,25.5436509 6.55470848,25.5 C6.59389413,25.5933798 6.62666759,25.6806816 6.66478454,25.7596952 C6.71216356,25.8586004 6.73389379,25.994526 6.82402079,26.0326515 L6.81404626,26.0193904 Z" id="Fill-9" fill="#FFE8F3"></path>
            <path d="M4,27.3460091 L4,27.0879833 C4.01177992,27.0637392 4.02126131,27.0351659 4.03217928,27.0256414 C4.12009769,26.942519 4.20715414,26.8490063 4.29650912,26.7892621 C4.35282287,26.7511643 4.41746875,26.7199934 4.47004741,26.7684815 C4.55135756,26.8420794 4.62548484,26.8126403 4.70363454,26.7615546 C4.74845568,26.7329813 4.79614998,26.71653 4.84154575,26.7303837 C5.08059187,26.7996524 5.31216779,26.6628467 5.54604224,26.5433583 C5.66815113,26.4810165 5.79571901,26.5026629 5.92070105,26.5078581 C5.94541014,26.5095898 5.96983192,26.6091635 6,26.6758346 C5.95086913,26.8438112 5.90547335,26.9676289 5.84168941,26.9165433 C5.77187186,26.8593966 5.7115357,26.9156774 5.64890102,26.9788851 C5.62390461,27.003995 5.596897,27.0446903 5.57247522,27.0360317 C5.43169085,26.9892754 5.29808935,27.1269469 5.16161471,27.1745691 C5.05157305,27.2135327 4.9418187,27.1797643 4.83235167,27.2092034 C4.72087344,27.2386426 4.60882057,27.2559598 4.49705502,27.2819356 C4.43183451,27.297521 4.35799454,27.2576915 4.30771441,27.4100826 C4.24852751,27.5884495 4.18273237,27.4395218 4.12095963,27.4784854 C4.08504525,27.5001319 4.04022411,27.3936313 4,27.3460091 L4,27.3460091 Z" id="Fill-11" fill="#FFE8F3"></path>
            <path d="M36,2.4599102 C36.2130371,2.38582425 36.3844618,2.26330981 36.6146866,2.2091084 C36.7517359,2.17703656 36.8449113,2.11032713 36.8901421,2.01443233 C36.9498468,1.88903143 37.058853,1.8014753 37.2329916,1.74951892 C37.308527,1.72706863 37.3763732,1.68954458 37.4410533,1.65266196 C37.6373549,1.54041052 37.6767057,1.52661963 37.9449244,1.5 C38.0109614,1.54682489 38.0218167,1.5974984 37.9544229,1.65041693 C37.8228012,1.75400898 37.7052011,1.86786402 37.5061856,1.91821681 C37.4261271,1.93842207 37.3750163,1.98236049 37.3894902,2.05676716 C37.4071302,2.14720975 37.3125978,2.20141116 37.208567,2.20590122 C37.0525207,2.21295702 36.934016,2.26972418 36.8064652,2.31590763 C36.6856989,2.35952534 36.5662896,2.39320077 36.428788,2.40795382 C36.2899294,2.42270686 36.1569509,2.46824888 36.0217108,2.5 C36.0144739,2.48652983 36.0072369,2.47338037 36,2.4599102" id="Fill-13" fill="#FFE8F3"></path>
            <path d="M3,24.6650509 C2.83462263,24.8025182 2.67345625,24.9354202 2.51343833,25.0683222 C2.44874209,25.2078185 2.47860189,25.4188385 2.34499841,25.5 C2.24661418,25.4447087 2.21598874,25.3412278 2.18612894,25.2489065 C2.14746432,25.1307151 2.10382307,25.0226688 2.03989247,24.9237532 C1.97404777,24.8223013 1.99012613,24.7162841 2.08506499,24.6757033 C2.22479356,24.6163539 2.37103003,24.5843966 2.51535242,24.5473666 C2.60837719,24.5230182 2.70331605,24.5600481 2.79902055,24.5118585 C2.88362333,24.4692487 2.9467883,24.5463521 3,24.6650509" id="Fill-15" fill="#FFE8F3"></path>
            <path d="M46.9879459,16.5306055 C46.9928859,16.6340452 46.9958499,16.6973526 46.9993079,16.76066 C47.0072119,16.8963187 46.9469441,17.0116286 46.8427104,17.0274555 C46.660919,17.0551525 46.5873133,17.1659404 46.5621194,17.3547321 C46.5556974,17.4022127 46.5225995,17.4451713 46.4969116,17.5 L46.2642384,17.5 C45.9930333,16.9539737 45.9930333,16.9539737 46.0029132,16.5735641 C46.1446908,16.448645 46.3156142,16.5136481 46.4564037,16.5458671 C46.6307851,16.5859994 46.7913346,16.578086 46.9879459,16.5306055" id="Fill-17" fill="#FFE8F3"></path>
            <g id="Group-21" transform="translate(41.000000, 0.500000)">
                <mask id="mask-2" fill="white">
                    <use xlink:href="#path-1"></use>
                </mask>
                <g id="Clip-20"></g>
                <path d="M0.325333333,0.751466667 C0.317666667,0.717133333 0.332666667,0.6738 0.284,0.6558 C0.256333333,0.645466667 0.220666667,0.6378 0.206,0.6168 C0.192333333,0.597466667 0.190333333,0.546133333 0.203666667,0.535466667 C0.347,0.423466667 0.494333333,0.315466667 0.686,0.3028 C0.693666667,0.302133333 0.703,0.2998 0.708333333,0.303466667 C0.745333333,0.327466667 0.792,0.3458 0.815333333,0.3798 C0.841333333,0.418133333 0.829,0.469466667 0.796,0.506466667 C0.770666667,0.534466667 0.743,0.573466667 0.711,0.5798 C0.593666667,0.602133333 0.510333333,0.683133333 0.410666667,0.7358 C0.386,0.749133333 0.351666667,0.744466667 0.321666667,0.7478 L0.325333333,0.751466667 Z" id="Fill-19" fill="#FFE8F3" mask="url(#mask-2)"></path>
            </g>
            <path d="M6,29.5448986 C6.03820304,29.5201244 6.06013442,29.4943179 6.07499116,29.4974147 C6.17085249,29.5194362 6.25610187,29.4702319 6.3473647,29.462662 C6.43473647,29.4550921 6.52033958,29.4282534 6.60735762,29.4124255 C6.74531305,29.3869631 6.88149982,29.3769846 7,29.4788341 C6.96215069,29.5662319 6.86876548,29.5548771 6.79837283,29.5731136 C6.72161302,29.5927265 6.63777856,29.5889416 6.55677397,29.5889416 C6.41598868,29.5889416 6.27555713,29.5813717 6.13441811,29.6040814 C6.09869119,29.6095868 6.0555359,29.570705 6,29.5448986" id="Fill-25" fill="#FFE8F3"></path>
            <path d="M7,22.5190718 C7.01762632,22.4781255 7.01703878,22.4595449 7.03231492,22.4488782 C7.113396,22.3910718 7.19858989,22.3353298 7.30258519,22.2654804 C7.33313749,22.3060825 7.35487662,22.3315449 7.37250294,22.3580395 C7.42890717,22.4447492 7.54465335,22.5152868 7.68448884,22.5225126 C7.82079906,22.5293943 7.86427732,22.5693083 7.91833137,22.6216094 C7.93889542,22.6415664 7.96180964,22.6604911 8,22.6942115 C7.93654524,22.7093513 7.8813161,22.732061 7.82432432,22.7337814 C7.6333725,22.7396309 7.45299647,22.7107277 7.29377203,22.6467277 C7.19565217,22.6075019 7.10223267,22.5638029 7,22.5190718" id="Fill-27" fill="#FFE8F3"></path>
            <path d="M6,16.4690531 C5.95745759,16.5106875 5.94855336,16.5296123 5.93025023,16.5351176 C5.65718729,16.6225155 5.34306598,16.6431607 5.0759392,16.5932682 C5.00668411,16.580537 4.97848739,16.5213542 5.01806173,16.4824725 C5.09721041,16.404709 5.19466221,16.3654832 5.33762451,16.3850961 C5.47069322,16.4036768 5.60623533,16.4098703 5.7402934,16.4253542 C5.81449529,16.4336123 5.88770781,16.4497843 6,16.4690531" id="Fill-29" fill="#FFE8F3"></path>
            <path d="M5.77708333,19.5 C6.04618056,19.5958782 6.04618056,19.5958782 6.20486111,19.8298968 C6.18298611,19.9106364 6.16006944,19.9957914 6.13784722,20.0771617 C6.16597222,20.1976403 6.19270833,20.3130726 6.22291667,20.4442744 C6.18229167,20.4663516 6.15416667,20.4909519 6.125,20.4966289 C6.01423611,20.5174446 5.96527778,20.442382 5.996875,20.2569334 C6.03194444,20.0525614 6.00625,19.9295597 5.90451389,19.8374661 C5.83888889,19.7775422 5.79722222,19.6804025 5.77708333,19.5" id="Fill-31" fill="#FFE8F3"></path>
            <path d="M5,29.5047869 C5.16358942,29.4665933 5.32440615,29.4194535 5.49354097,29.3926148 C5.64714867,29.3685288 5.80962901,29.3664643 5.99484551,29.3527009 C5.99484551,29.3898621 6.00870902,29.4280557 5.99096373,29.4590234 C5.97599114,29.4837976 5.91831893,29.5195826 5.88615559,29.517174 C5.71702076,29.5040987 5.6022309,29.5615611 5.480232,29.6179912 C5.40758721,29.6513675 5.33216971,29.6548084 5.23290698,29.6355396 C5.11312625,29.6121417 5.02107254,29.5901202 5,29.5047869" id="Fill-33" fill="#FFE8F3"></path>
            <path d="M19,29.3076559 C18.7408638,29.5051613 18.7408638,29.5030968 18.5352159,29.5282151 C18.3900332,29.5454194 18.2561462,29.5987527 18.1328904,29.6923441 C18.0883721,29.6686022 18.0431894,29.644172 18,29.6207742 C18.0026578,29.6059785 18.0019934,29.5935914 18.0053156,29.5922151 C18.0877076,29.5602151 18.1697674,29.5072258 18.2534884,29.504129 C18.4106312,29.4982796 18.5531561,29.448043 18.6893688,29.3819785 C18.7827243,29.3369032 18.8757475,29.3362151 19,29.3076559" id="Fill-35" fill="#FFE8F3"></path>
            <path d="M45.9725164,10.5 C46.0216527,10.6528231 46.0108045,10.8017108 45.8914734,10.9099331 C45.647068,11.131625 45.4345693,11.4005411 45.1033777,11.4982692 C45.0797668,11.505484 45.0497745,11.4884308 45,11.4785924 C45.1799538,11.2188587 45.4237211,11.0312733 45.6049512,10.7899047 C45.7096051,10.6501995 45.832765,10.5701806 45.9827266,10.5118061 L45.9725164,10.5 Z" id="Fill-37" fill="#FFE8F3"></path>
            <path d="M39.2397569,2.41722171 C39.0390625,2.62849052 38.9664931,2.66668407 38.7602431,2.6684045 C38.8199653,2.51356579 38.9157986,2.40311418 39.0651042,2.33911418 C39.1036458,2.32259805 39.1126736,2.32707117 39.2397569,2.41722171" id="Fill-39" fill="#FFE8F3"></path>
            <path d="M1.78125,30.5380381 C1.83784722,30.3986833 1.97083333,30.4103822 2.075,30.3628983 C2.12569444,30.4041887 2.171875,30.4423822 2.21875,30.4805758 C2.21701389,30.493651 2.22013889,30.5115435 2.2125,30.5228983 C2.15520833,30.6092639 2.06111111,30.6261241 1.96909722,30.6354145 C1.89756944,30.6433284 1.828125,30.625436 1.78125,30.5380381" id="Fill-41" fill="#FFE8F3"></path>
            <path d="M2.18268976,28.5791503 C2.12262032,28.6042686 2.08199532,28.6262901 2.03893976,28.6383331 C1.94518976,28.6648277 1.88859254,28.6390213 1.84831476,28.5574729 C1.83755087,28.5364836 1.82192587,28.5151503 1.82018976,28.4934729 C1.81671754,28.4566557 1.81393976,28.4153653 1.82713421,28.3826772 C1.84032865,28.3482686 1.93720365,28.3417309 1.98025921,28.3668492 C2.06324532,28.4153653 2.10699532,28.497946 2.18268976,28.5791503" id="Fill-43" fill="#FFE8F3"></path>
            <path d="M45.7861111,10.6156514 C45.8555556,10.5788342 45.8684028,10.5027912 45.9076389,10.4449847 C45.9833333,10.3331568 46.0854167,10.3231783 46.2194444,10.4164256 C46.1527778,10.5265331 46.0604167,10.6094578 45.9371528,10.6442105 C45.8920139,10.6565976 45.8333333,10.6225331 45.7805556,10.6094578 L45.7861111,10.6156514 Z" id="Fill-45" fill="#FFE8F3"></path>
            <path d="M22,28.3910959 C21.8660508,28.4729884 21.7759815,28.511526 21.6816782,28.5166873 C21.4661278,28.5283863 21.269438,28.6491604 21,28.5975475 C21.1558891,28.5548809 21.2709777,28.499483 21.3879908,28.4970744 C21.5819861,28.4926013 21.7463433,28.3756121 22,28.3910959" id="Fill-47" fill="#FFE8F3"></path>
            <path d="M7.15852835,26.4852244 C7.08700057,26.5488803 7.01929224,26.6039341 6.92693113,26.6056545 C6.90054224,26.6059986 6.86130613,26.5929233 6.85019501,26.5739986 C6.83769501,26.5512889 6.83873668,26.5086223 6.85262557,26.4859126 C6.91512557,26.3802782 7.04880613,26.3644502 7.15227835,26.4466868 C7.15679224,26.4497836 7.15505613,26.4607943 7.15852835,26.4852244" id="Fill-49" fill="#FFE8F3"></path>
            <path d="M9.79664625,29.452771 C9.92685458,29.4438247 10.0581046,29.4345344 10.1827574,29.4259322 C10.2209518,29.4782333 10.2060213,29.5150505 10.1622713,29.5264054 C10.0737296,29.5498032 9.98622958,29.5855882 9.89039625,29.5704484 C9.82650736,29.5601258 9.78761847,29.5322548 9.79664625,29.452771" id="Fill-51" fill="#FFE8F3"></path>
            <path d="M3.86787454,29.5557498 C3.84773565,29.4872767 3.91961065,29.4910616 3.94530509,29.4587176 C3.96822176,29.4291262 3.98801343,29.3967821 4.01058287,29.3637498 C4.04148565,29.3802659 4.06162454,29.3909326 4.08141621,29.4019434 C4.08870787,29.4053842 4.09599954,29.408481 4.10190232,29.4136423 C4.10815232,29.4188036 4.11787454,29.4294702 4.11683287,29.4308466 C4.06752732,29.4934702 4.16718009,29.5430186 4.13211065,29.6049541 C4.08488843,29.6479649 4.03245787,29.6417713 3.98037454,29.6156208 C3.93905509,29.5946315 3.90016621,29.5698573 3.86023565,29.5471477 L3.86787454,29.5557498 Z" id="Fill-53" fill="#FFE8F3"></path>
            <path d="M44.964306,18.3968432 C45.023681,18.4539615 45.0976393,18.4924992 45.1031949,18.5940045 C45.0264588,18.6201551 44.9681254,18.5860906 44.9108338,18.5444561 C44.9038893,18.4938755 44.8629171,18.435725 44.964306,18.3968432" id="Fill-55" fill="#FFE8F3"></path>
            <path d="M1.93002167,24.6143772 C1.91474389,24.5434955 1.88418834,24.4884417 1.900855,24.461603 C1.94529945,24.3883127 2.01925778,24.3635385 2.10398,24.4072374 C2.07134111,24.5128718 2.07134111,24.5128718 1.93002167,24.6143772" id="Fill-57" fill="#FFE8F3"></path>
            <path d="M5.93854167,18.4306344 C6.06458333,18.4392366 6.06458333,18.4392366 6.13784722,18.544871 C5.99756944,18.5813441 5.98611111,18.5806559 5.86215278,18.5183764 C5.88784722,18.489129 5.91215278,18.460914 5.93680556,18.4326989 L5.93854167,18.4306344 Z" id="Fill-59" fill="#FFE8F3"></path>
            <path d="M11.8654076,29.5154276 C11.872352,29.4937502 11.8792964,29.4717287 11.8876298,29.44489 L12.1240881,29.44489 C12.1494353,29.5357287 12.1299909,29.5663524 12.0539492,29.5515567 C11.991102,29.5398577 11.9292964,29.5236857 11.8667964,29.5095782 L11.8654076,29.5154276 Z" id="Fill-61" fill="#FFE8F3"></path>
            <path d="M39.7916667,2.56311871 C39.9052083,2.47228 40.0305556,2.42307569 40.2083333,2.44028 C40.0635417,2.53662408 39.9253472,2.54178537 39.7916667,2.56311871" id="Fill-63" fill="#FFE8F3"></path>
            <path d="M44.1159722,11.4118662 C44.0934028,11.4524684 44.0736111,11.4947909 44.0479167,11.5329845 C44.0065972,11.5938877 43.9513889,11.6055866 43.8770833,11.5618877 C43.9319444,11.4634791 44.0128472,11.4184038 44.1229167,11.419092 L44.1159722,11.4118662 Z" id="Fill-65" fill="#FFE8F3"></path>
            <path d="M6.14427083,18.5737515 C6.0390625,18.5792569 5.94670139,18.5389988 5.85399306,18.4963321 C5.91614583,18.4127192 5.99114583,18.4027407 6.0609375,18.4698375 C6.09253472,18.5004612 6.11788194,18.5379665 6.14600694,18.571687 L6.14427083,18.5737515 Z" id="Fill-67" fill="#FFE8F3"></path>
            <path d="M7.11770833,19.5340305 C7.03645833,19.540224 6.95,19.5897724 6.88229167,19.4948047 C7.06493056,19.4252993 7.08125,19.4277079 7.11770833,19.5340305" id="Fill-69" fill="#FFE8F3"></path>
            <path d="M22.1520833,28.4315269 C22.1142361,28.5216774 22.0517361,28.5075699 22,28.5196129 C21.9489583,28.5316559 21.8996528,28.5516129 21.8479167,28.5684731 C21.8940972,28.4955269 21.9302083,28.4790108 22.1520833,28.4315269" id="Fill-71" fill="#FFE8F3"></path>
            <path d="M22.9221195,28.4928278 C22.9721195,28.4769999 23.0217722,28.4611719 23.0721195,28.445344 C23.0939945,28.5045268 23.0485084,28.5196666 23.0203834,28.5361827 C22.9797584,28.5599246 22.9325361,28.5740321 22.9221195,28.4928278" id="Fill-73" fill="#FFE8F3"></path>
            <path d="M8.9301645,20.4731412 C8.9864145,20.4449262 9.0332895,20.4215283 9.06627561,20.4710767 C9.07773394,20.4889692 9.0582895,20.5261305 9.05342839,20.552281 C9.02912283,20.5540014 9.00863672,20.5619154 9.00169228,20.5550337 C8.97634505,20.5312918 8.9551645,20.5027326 8.9301645,20.4731412" id="Fill-75" fill="#FFE8F3"></path>
            <path d="M21.0719844,28.4804003 C21.0389982,28.5048304 21.0181649,28.5289165 20.9924705,28.5364864 C20.9751094,28.5419917 20.9504566,28.5251315 20.9303177,28.5161853 C20.9275399,28.515153 20.9268455,28.4972606 20.9306649,28.4945079 C20.948026,28.4821208 20.9664288,28.4652606 20.9858732,28.4628519 C21.0080955,28.4600993 21.0320538,28.4714541 21.0719844,28.4804003" id="Fill-77" fill="#FFE8F3"></path>
            <path d="M46.0729167,13.5732903 C46.0152778,13.5154839 45.9753472,13.4752258 45.9270833,13.4267097 C46.0420139,13.4291183 46.0420139,13.4291183 46.0729167,13.5732903" id="Fill-79" fill="#FFE8F3"></path>
            <path d="M46.0458333,13.537436 C46.0180556,13.5267694 45.9888889,13.5181672 45.9631944,13.5040597 C45.9559028,13.5002747 45.9569444,13.4810059 45.9541667,13.4686188 C45.9680556,13.4668984 45.9899306,13.4586403 45.9951389,13.4648339 C46.0135417,13.4861672 46.0263889,13.5123177 46.0413194,13.5367478 L46.0458333,13.537436 Z" id="Fill-81" fill="#FFE8F3"></path>
            <path d="M6.95034722,29.4605831 C6.9875,29.4770992 7.01631944,29.4898304 7.04965278,29.504282 C7.02708333,29.548325 6.99131944,29.5459164 6.95972222,29.5245831 C6.94861111,29.5170132 6.95347222,29.4857013 6.95034722,29.4605831" id="Fill-83" fill="#FFE8F3"></path>
            <path d="M36.0333614,3.51098795 C36.0118336,3.51752558 35.9916947,3.52337504 35.9719031,3.5292245 C35.970167,3.51511698 35.9628753,3.4972245 35.9691253,3.48862235 C35.9760697,3.47795569 35.9958614,3.46900945 36.0083614,3.47107397 C36.017042,3.47245031 36.0225975,3.49309547 36.0333614,3.51098795" id="Fill-85" fill="#FFE8F3"></path>
            <path d="M4.02361111,26.5075699 C4.00902778,26.5092903 3.99444444,26.5116989 3.97986111,26.512043 C3.97916667,26.512043 3.97743056,26.5003441 3.97638889,26.4941505 C3.98888889,26.4917419 4.00208333,26.487957 4.01458333,26.487957 C4.01770833,26.487957 4.02048611,26.5006882 4.02361111,26.5075699" id="Fill-89" fill="#FFE8F3"></path>
            <path d="M8.04045139,27.5194179 C8.01927083,27.5228588 7.99809028,27.5269878 7.97690972,27.5287082 C7.97135417,27.5293964 7.96510417,27.5221706 7.95954861,27.5187297 C7.96579861,27.5101276 7.96996528,27.4973964 7.97864583,27.4936115 C7.99809028,27.4853534 8.01961806,27.4815685 8.04045139,27.475719 L8.03350694,27.4712459 C8.03350694,27.4901706 8.03350694,27.5087512 8.03385417,27.5273319 L8.04045139,27.5194179 Z" id="Fill-91" fill="#FFE8F3"></path>
            <path d="M18.0246528,29.5020645 C18.0090278,29.5030968 17.9930556,29.504129 17.9774306,29.5048172 C17.9767361,29.5048172 17.9760417,29.4996559 17.9753472,29.4972473 C17.9913194,29.4965591 18.0069444,29.4955269 18.0229167,29.4951828 C18.0236111,29.4951828 18.0243056,29.4996559 18.0246528,29.5020645" id="Fill-93" fill="#FFE8F3"></path>
            <path d="M8.01163592,29.4895054 C8.00677481,29.5032688 8.0019137,29.5166882 7.99705259,29.5304516 C7.99358036,29.5139355 7.98976092,29.4974194 7.98837203,29.4812473 C7.98802481,29.4778065 7.99913592,29.4733333 8.0050387,29.4695484 C8.00712203,29.476086 8.00955259,29.4826237 8.01163592,29.4895054" id="Fill-95" fill="#FFE8F3"></path>
            <path d="M5.99375,17.4871791 C6.00416667,17.4926844 6.01493056,17.4981898 6.02534722,17.5036952 C6.01875,17.5071361 6.01145833,17.5140178 6.00625,17.5126414 C5.99513889,17.5098887 5.98506944,17.5026629 5.97465278,17.4971576 C5.98090278,17.4940608 5.98715278,17.4906199 5.99375,17.4871791" id="Fill-97" fill="#FFE8F3"></path>
            <path d="M6.98636271,19.5256344 C6.98254327,19.5146237 6.97282104,19.4987957 6.97698771,19.4936344 C6.9846266,19.484 7.0002516,19.4802151 7.0127516,19.4743656 C7.01657104,19.4870968 7.02768216,19.5032688 7.02282104,19.5111828 C7.01795993,19.5197849 6.99920993,19.5211613 6.98636271,19.5256344" id="Fill-99" fill="#FFE8F3"></path>
            <path d="M8.03261306,25.5017204 C8.01212695,25.5116989 7.99441862,25.5206452 7.97671029,25.5292473 C7.97358529,25.5154839 7.96386306,25.4982796 7.96872418,25.4883011 C7.97323806,25.4783226 7.99268251,25.4710968 8.00552973,25.4707527 C8.01316862,25.4707527 8.02080751,25.4876129 8.03261306,25.5017204" id="Fill-101" fill="#FFE8F3"></path>
            <path d="M45.9758681,6.51353225 C45.9869792,6.5049301 45.9973958,6.4949516 46.0098958,6.48806988 C46.0147569,6.48497311 46.0234375,6.48738171 46.0300347,6.48703762 C46.0241319,6.49529569 46.0192708,6.50905913 46.0119792,6.51077956 C45.9987847,6.51353225 45.9838542,6.50871504 45.9699653,6.5073387 L45.9758681,6.51353225 Z" id="Fill-103" fill="#FFE8F3"></path>
            <path d="M6.97447917,19.4982801 C6.98697917,19.4941511 6.99913194,19.4886457 7.01197917,19.4865812 C7.01579861,19.485893 7.02100694,19.4958715 7.02552083,19.5010328 C7.01336806,19.5055059 7.00086806,19.5113554 6.98802083,19.5134199 C6.98454861,19.5141081 6.97899306,19.5037855 6.97447917,19.4982801" id="Fill-105" fill="#FFE8F3"></path>
            <path d="M38.9981442,1.51462366 C38.9953665,1.50223656 38.9925887,1.49604301 38.9932831,1.49019355 C38.9936304,1.48812903 39.0023109,1.48675269 39.0068248,1.48537634 C39.0043942,1.49329032 39.0023109,1.5012043 38.9981442,1.51462366" id="Fill-107" fill="#FFE8F3"></path>
            <path d="M22.0147569,28.5025739 C22.0092014,28.5056707 22.0001736,28.5125524 21.9987847,28.511176 C21.9928819,28.5063588 21.9894097,28.4981008 21.9852431,28.4915631 C21.9918403,28.4905309 21.9987847,28.4874341 22.0046875,28.4891545 C22.0088542,28.4905309 22.0112847,28.4977567 22.0147569,28.5025739" id="Fill-109" fill="#FFE8F3"></path>
            <path d="M7.02690972,28.5003419 C7.01440972,28.5055031 7.00190972,28.5120408 6.9890625,28.5147935 C6.98489583,28.5158257 6.97829861,28.5058472 6.97309028,28.5006859 C6.9859375,28.4951806 6.99809028,28.4882988 7.01197917,28.4852021 C7.01545139,28.4841698 7.02170139,28.4948365 7.02690972,28.5003419" id="Fill-111" fill="#FFE8F3"></path>
            <path d="M8.01354167,29.516 C8.00451389,29.5049892 7.99548611,29.4939785 7.98645833,29.4826237 C7.99166667,29.4874409 7.99756944,29.491914 8.00138889,29.4970753 C8.00555556,29.5032688 8.00729167,29.5104946 8.01006944,29.5173763 L8.01354167,29.516 Z" id="Fill-113" fill="#FFE8F3"></path>
            <path d="M3.00694444,30.5065376 C3.00243056,30.507914 2.99791667,30.5096344 2.99305556,30.5110108 C2.99583333,30.5034409 2.99895833,30.4965591 3.00173611,30.4889892 C3.00347222,30.4948387 3.00520833,30.5003441 3.00694444,30.5065376" id="Fill-115" fill="#FFE8F3"></path>
            <polygon id="Fill-117" fill="#FFE8F3" points="42.0022569 0.510150538 42.0039931 0.489849462 41.9960069 0.502924731"></polygon>
            <path d="M42.0112847,0.489849462 C42.0019097,0.496731183 41.9921875,0.503268817 41.9824653,0.510150538 C41.9942708,0.505677419 42.0057292,0.501204301 42.0175347,0.497075269 L42.0112847,0.489849462 Z" id="Fill-119" fill="#FFE8F3"></path>
            <path d="M41.0083333,0.487268817 C41.0013889,0.495870968 40.9947917,0.504129032 40.9878472,0.512731183 C40.9885417,0.50688172 40.9875,0.497935484 40.990625,0.496215054 C40.9965278,0.492430108 41.0048611,0.492774194 41.0121528,0.491053763 L41.0083333,0.487268817 Z" id="Fill-121" fill="#FFE8F3"></path>
            <path d="M45.0034722,11.5034409 L44.9965278,11.4965591 L45.0034722,11.5034409 Z" id="Fill-132" fill="#FFE8F3"></path>
            <path d="M44.9810764,11.5330323 C44.9960069,11.5134194 45.0109375,11.4934624 45.0258681,11.4738495 L45.0192708,11.4669677 C45.0039931,11.4865806 44.9890625,11.5061935 44.9741319,11.5258065 L44.9810764,11.5330323 Z" id="Fill-134" fill="#FFE8F3"></path>
            <path d="M45.9934028,13.4931183 C45.9979167,13.4975914 46.0020833,13.5020645 46.0065972,13.5068817 C46.0034722,13.5024086 46.0006944,13.4982796 45.9979167,13.4938065 L45.9934028,13.4931183 Z" id="Fill-136" fill="#FFE8F3"></path>
            <path d="M10.0050347,15.5056774 C10.0019097,15.5018925 9.9984375,15.4981075 9.99496528,15.4943226 C9.99670139,15.4974194 9.99774306,15.5005161 9.99913194,15.503957 L10.0050347,15.5056774 Z" id="Fill-138" fill="#FFE8F3"></path>
            <polygon id="Fill-140" fill="#FFE8F3" points="46.0072917 17.5024086 45.9927083 17.5065376 45.9951389 17.4934624"></polygon>
            <path d="M44.0016313,18.515828 L44.0016313,18.484172 C44.002673,18.4872688 44.005798,18.4913978 44.0047563,18.4938065 C44.002673,18.4993118 43.9985063,18.5044731 43.9950341,18.5096344 L44.0016313,18.515828 Z" id="Fill-142" fill="#FFE8F3"></path>
            <polygon id="Fill-144" fill="#FFE8F3" points="44.0006944 18.5060215 44.0034722 18.4939785 43.9965278 18.5005161"></polygon>
            <polygon id="Fill-146" fill="#FFE8F3" points="43.0022569 7.49415054 42.9932292 7.50584946 43.0067708 7.49793548"></polygon>
            <path d="M7.01840278,26.4990282 C7.00625,26.4997164 6.99375,26.5004045 6.98159722,26.5010927 C6.98541667,26.4986841 6.990625,26.4928346 6.99340278,26.4938669 C7.00034722,26.4962755 7.00625,26.5017809 7.0125,26.506254 L7.01840278,26.4990282 Z" id="Fill-148" fill="#FFE8F3"></path>
            <path d="M2.02152778,28.515828 C2.01458333,28.5055054 2.00763889,28.4948387 2.00069444,28.484172 C1.99305556,28.4944946 1.98541667,28.504129 1.97743056,28.5137634 L1.97326389,28.5106667 C1.99131944,28.5110108 2.00902778,28.5110108 2.02673611,28.5113548 L2.02152778,28.515828 Z" id="Fill-150" fill="#FFE8F3"></path>
            <polygon id="Fill-152" fill="#FFE8F3" points="9.99375 28.4986237 10.00625 28.4941505 10.0048611 28.5058495"></polygon>
            <path d="M4.00642361,28.4913978 C4.0015625,28.4972473 3.99670139,28.5024086 3.99184028,28.5082581 C3.99739583,28.5082581 4.00260417,28.5086022 4.00815972,28.5086022 C4.00642361,28.5034409 4.00503472,28.4986237 4.00364583,28.4938065 L4.00642361,28.4913978 Z" id="Fill-154" fill="#FFE8F3"></path>
            <path d="M7.99444444,29.4943226 C7.99826389,29.4987957 8.00173611,29.5025806 8.00555556,29.5070538 L7.99791667,29.4929462 L7.99444444,29.4943226 Z" id="Fill-156" fill="#FFE8F3"></path>
            <path d="M12.00625,29.4950108 C12.0020833,29.4984516 11.9979167,29.5018925 11.99375,29.5049892 C11.9975694,29.5036129 12.0010417,29.5022366 12.0048611,29.5008602 L12.00625,29.4950108 Z" id="Fill-158" fill="#FFE8F3"></path>
            <path d="M42.9654514,7.5139928 C42.9814236,7.50298205 42.9963542,7.4895627 43.0137153,7.48233689 C43.0182292,7.48061646 43.0307292,7.49713259 43.0397569,7.50539065 C43.0345486,7.50951969 43.0289931,7.51812184 43.0244792,7.51777775 C43.0029514,7.51571323 42.9814236,7.51124012 42.9602431,7.50745517 L42.9654514,7.5139928 Z" id="Fill-160" fill="#FFE8F3"></path>
            <path d="M46.0809028,5.46049974 C46.0440972,5.48733845 46.0083333,5.51589759 45.9690972,5.53929544 C45.9642361,5.54204813 45.9420139,5.51658576 45.9128472,5.4911234 C45.9847222,5.4811449 46.0361111,5.47426318 46.0871528,5.46738146 L46.0809028,5.46049974 Z" id="Fill-162" fill="#FFE8F3"></path>
            <path d="M46.9921875,5.50980645 L47.0140625,5.49019355 C47.0116319,5.49432258 47.0098958,5.5012043 47.0064236,5.50223656 C47.0001736,5.50430108 46.9925347,5.50292473 46.9859375,5.50292473 L46.9921875,5.50980645 Z" id="Fill-164" fill="#FFE8F3"></path>
        </g>
        <path d="M32,36 C33.1041667,36 34.046875,35.609375 34.828125,34.828125 C35.609375,34.046875 36,33.1041667 36,32 L36,32 L38.8125,32 C39.1875,31.9583333 39.4895833,31.7916667 39.71875,31.5 C39.9479167,31.2083333 40.0416667,30.8854167 40,30.53125 L40,30.53125 L39.0625,22.0625 L39.03125,21.8125 C38.8229167,20.5208333 38.21875,19.453125 37.21875,18.609375 C36.21875,17.765625 35.0625,17.34375 33.75,17.34375 L33.75,17.34375 L29.34375,17.34375 L29.34375,16 L29.3125,15.75 C29.2708333,14.7083333 28.8645833,13.8229167 28.09375,13.09375 C27.3229167,12.3645833 26.40625,12 25.34375,12 L25.34375,12 L10.5,12 C10.1666667,12.0416667 9.890625,12.1875 9.671875,12.4375 C9.453125,12.6875 9.34375,12.9895833 9.34375,13.34375 C9.34375,13.6979167 9.47395833,14.0052083 9.734375,14.265625 C9.99479167,14.5260417 10.3020833,14.65625 10.65625,14.65625 L10.65625,14.65625 L25.34375,14.65625 L25.5,14.6875 C25.8333333,14.7083333 26.109375,14.8489583 26.328125,15.109375 C26.546875,15.3697917 26.65625,15.6666667 26.65625,16 L26.65625,16 L26.65625,29.34375 L20.3125,29.34375 C19.9583333,28.9270833 19.5208333,28.5989583 19,28.359375 C18.4791667,28.1197917 17.9270833,28 17.34375,28 C16.7395833,28 16.1822917,28.1197917 15.671875,28.359375 C15.1614583,28.5989583 14.71875,28.9270833 14.34375,29.34375 L14.34375,29.34375 L11.84375,29.34375 C11.5104167,29.3854167 11.2291667,29.53125 11,29.78125 C10.7708333,30.03125 10.65625,30.3229167 10.65625,30.65625 C10.65625,31.03125 10.7864583,31.3489583 11.046875,31.609375 C11.3072917,31.8697917 11.625,32 12,32 L12,32 L13.34375,32 L13.34375,32.25 C13.40625,33.2916667 13.8229167,34.1770833 14.59375,34.90625 C15.3645833,35.6354167 16.28125,36 17.34375,36 C18.4479167,36 19.390625,35.609375 20.171875,34.828125 C20.953125,34.046875 21.34375,33.1041667 21.34375,32 L21.34375,32 L28,32 L28,32.25 C28.0625,33.2916667 28.4791667,34.1770833 29.25,34.90625 C30.0208333,35.6354167 30.9375,36 32,36 Z M17.5,20 C17.8333333,19.9583333 18.109375,19.8125 18.328125,19.5625 C18.546875,19.3125 18.65625,19.0104167 18.65625,18.65625 C18.65625,18.3020833 18.5260417,17.9947917 18.265625,17.734375 C18.0052083,17.4739583 17.6979167,17.34375 17.34375,17.34375 L17.34375,17.34375 L13.1875,17.34375 C12.8541667,17.3854167 12.5729167,17.53125 12.34375,17.78125 C12.1145833,18.03125 12,18.3229167 12,18.65625 C12,19.03125 12.1302083,19.3489583 12.390625,19.609375 C12.6510417,19.8697917 12.96875,20 13.34375,20 L13.34375,20 L17.5,20 Z M37.1875,29.34375 L34.96875,29.34375 C34.6145833,28.9270833 34.1770833,28.5989583 33.65625,28.359375 C33.1354167,28.1197917 32.5833333,28 32,28 C31.4791667,28 30.9947917,28.0885417 30.546875,28.265625 C30.0989583,28.4427083 29.6979167,28.6979167 29.34375,29.03125 L29.34375,29.03125 L29.34375,20 L33.96875,20 L34.1875,20.03125 C34.7708333,20.1354167 35.2708333,20.4010417 35.6875,20.828125 C36.1041667,21.2552083 36.34375,21.7708333 36.40625,22.375 L36.40625,22.375 L37.1875,29.34375 Z M18.90625,25.34375 L19.0625,25.3125 C19.3958333,25.2916667 19.6770833,25.1510417 19.90625,24.890625 C20.1354167,24.6302083 20.25,24.3333333 20.25,24 C20.25,23.625 20.1197917,23.3072917 19.859375,23.046875 C19.5989583,22.7864583 19.28125,22.65625 18.90625,22.65625 L18.90625,22.65625 L9.40625,22.65625 L9.25,22.6875 C8.91666667,22.7083333 8.640625,22.8489583 8.421875,23.109375 C8.203125,23.3697917 8.09375,23.6666667 8.09375,24 C8.09375,24.375 8.22395833,24.6927083 8.484375,24.953125 C8.74479167,25.2135417 9.05208333,25.34375 9.40625,25.34375 L9.40625,25.34375 L18.90625,25.34375 Z M17.34375,33.34375 C16.96875,33.34375 16.6510417,33.2135417 16.390625,32.953125 C16.1302083,32.6927083 16,32.375 16,32 C16,31.625 16.1302083,31.3072917 16.390625,31.046875 C16.6510417,30.7864583 16.96875,30.65625 17.34375,30.65625 C17.6979167,30.65625 18.0052083,30.7864583 18.265625,31.046875 C18.5260417,31.3072917 18.65625,31.625 18.65625,32 C18.65625,32.375 18.5260417,32.6927083 18.265625,32.953125 C18.0052083,33.2135417 17.6979167,33.34375 17.34375,33.34375 Z M32,33.34375 C31.625,33.34375 31.3072917,33.2135417 31.046875,32.953125 C30.7864583,32.6927083 30.65625,32.375 30.65625,32 C30.65625,31.625 30.7864583,31.3072917 31.046875,31.046875 C31.3072917,30.7864583 31.625,30.65625 32,30.65625 C32.375,30.65625 32.6927083,30.7864583 32.953125,31.046875 C33.2135417,31.3072917 33.34375,31.625 33.34375,32 C33.34375,32.375 33.2135417,32.6927083 32.953125,32.953125 C32.6927083,33.2135417 32.375,33.34375 32,33.34375 Z" id="" fill="#ED4597" fill-rule="nonzero"></path>
    </g>
</svg>