<svg width="16" height="16" viewBox="0 0 16 16" fill="none" xmlns="http://www.w3.org/2000/svg">
<path d="M8 12.625C8.1875 12.625 8.35156 12.6895 8.49219 12.8184C8.64453 12.9473 8.72656 13.1055 8.73828 13.293L8.75586 13.3809V14.875C8.75586 15.0859 8.67969 15.2676 8.52734 15.4199C8.38672 15.5605 8.21094 15.6309 8 15.6309C7.8125 15.6309 7.64258 15.5664 7.49023 15.4375C7.34961 15.3086 7.27344 15.1504 7.26172 14.9629L7.24414 14.875V13.3809C7.24414 13.1699 7.31445 12.9941 7.45508 12.8535C7.60742 12.7012 7.78906 12.625 8 12.625ZM12.166 11.2363L12.2363 11.3066L13.3086 12.3613C13.4492 12.5137 13.5195 12.6953 13.5195 12.9062C13.5195 13.1055 13.4492 13.2812 13.3086 13.4336C13.168 13.5625 13.0039 13.6328 12.8164 13.6445C12.6289 13.6562 12.459 13.6035 12.3066 13.4863L12.2363 13.4336L11.1816 12.3613C11.041 12.2207 10.9707 12.0508 10.9707 11.8516C10.9707 11.6406 11.041 11.459 11.1816 11.3066C11.3223 11.166 11.4863 11.0957 11.6738 11.0957C11.8613 11.084 12.0254 11.1309 12.166 11.2363ZM4.81836 11.3066C4.95898 11.4473 5.0293 11.6113 5.0293 11.7988C5.04102 11.9863 4.99414 12.1504 4.88867 12.291L4.81836 12.3613L3.76367 13.4336C3.61133 13.5742 3.42969 13.6445 3.21875 13.6445C3.01953 13.6445 2.84375 13.5742 2.69141 13.4336C2.5625 13.293 2.49219 13.1289 2.48047 12.9414C2.46875 12.7539 2.52148 12.584 2.63867 12.4316L2.69141 12.3613L3.76367 11.3066C3.9043 11.166 4.07422 11.0957 4.27344 11.0957C4.48438 11.0957 4.66602 11.166 4.81836 11.3066ZM8 4.38086C8.51562 4.38086 9.00195 4.47461 9.45898 4.66211C9.91602 4.86133 10.3145 5.13086 10.6543 5.4707C10.9941 5.81055 11.2637 6.20898 11.4629 6.66602C11.6504 7.12305 11.7441 7.60938 11.7441 8.125C11.7441 8.64062 11.6504 9.12695 11.4629 9.58398C11.2637 10.041 10.9941 10.4395 10.6543 10.7793C10.3145 11.1191 9.91602 11.3887 9.45898 11.5879C9.00195 11.7754 8.51562 11.8691 8 11.8691C7.48438 11.8691 6.99805 11.7754 6.54102 11.5879C6.08398 11.3887 5.68555 11.1191 5.3457 10.7793C5.00586 10.4395 4.73633 10.041 4.53711 9.58398C4.34961 9.12695 4.25586 8.64062 4.25586 8.125C4.25586 7.60938 4.34961 7.12305 4.53711 6.66602C4.73633 6.20898 5.00586 5.81055 5.3457 5.4707C5.68555 5.13086 6.08398 4.86133 6.54102 4.66211C6.99805 4.47461 7.48438 4.38086 8 4.38086ZM8 5.875C7.37891 5.875 6.8457 6.09766 6.40039 6.54297C5.9668 6.97656 5.75 7.50391 5.75 8.125C5.75 8.74609 5.9668 9.2793 6.40039 9.72461C6.8457 10.1582 7.37891 10.375 8 10.375C8.62109 10.375 9.14844 10.1582 9.58203 9.72461C10.0273 9.2793 10.25 8.74609 10.25 8.125C10.25 7.50391 10.0273 6.97656 9.58203 6.54297C9.14844 6.09766 8.62109 5.875 8 5.875ZM14.75 7.36914C14.9609 7.36914 15.1367 7.44531 15.2773 7.59766C15.4297 7.73828 15.5059 7.91406 15.5059 8.125C15.5059 8.3125 15.4414 8.48242 15.3125 8.63477C15.1836 8.77539 15.0254 8.85156 14.8379 8.86328L14.75 8.88086H13.2559C13.0449 8.88086 12.8633 8.81055 12.7109 8.66992C12.5703 8.51758 12.5 8.33594 12.5 8.125C12.5 7.9375 12.5645 7.77344 12.6934 7.63281C12.8223 7.48047 12.9805 7.39844 13.168 7.38672L13.2559 7.36914H14.75ZM2.74414 7.36914C2.95508 7.36914 3.13086 7.44531 3.27148 7.59766C3.42383 7.73828 3.5 7.91406 3.5 8.125C3.5 8.3125 3.43555 8.48242 3.30664 8.63477C3.17773 8.77539 3.01953 8.85156 2.83203 8.86328L2.74414 8.88086H1.25C1.03906 8.88086 0.857422 8.81055 0.705078 8.66992C0.564453 8.51758 0.494141 8.33594 0.494141 8.125C0.494141 7.9375 0.558594 7.77344 0.6875 7.63281C0.816406 7.48047 0.974609 7.39844 1.16211 7.38672L1.25 7.36914H2.74414ZM3.69336 2.76367L3.76367 2.81641L4.81836 3.88867C4.95898 4.0293 5.0293 4.20508 5.0293 4.41602C5.0293 4.61523 4.95898 4.79102 4.81836 4.94336C4.67773 5.08398 4.51367 5.16016 4.32617 5.17188C4.13867 5.17188 3.97461 5.11914 3.83398 5.01367L3.76367 4.94336L2.69141 3.88867C2.55078 3.73633 2.48047 3.56055 2.48047 3.36133C2.48047 3.15039 2.55078 2.96875 2.69141 2.81641C2.83203 2.6875 2.99609 2.61719 3.18359 2.60547C3.37109 2.59375 3.54102 2.64648 3.69336 2.76367ZM13.3086 2.81641C13.4375 2.95703 13.5078 3.12109 13.5195 3.30859C13.5312 3.49609 13.4785 3.66602 13.3613 3.81836L13.3086 3.88867L12.2363 4.94336C12.0957 5.08398 11.9199 5.1543 11.709 5.1543C11.5098 5.1543 11.334 5.08398 11.1816 4.94336C11.041 4.80273 10.9648 4.63867 10.9531 4.45117C10.9531 4.26367 11.0059 4.09961 11.1113 3.95898L11.1816 3.88867L12.2363 2.81641C12.3887 2.67578 12.5645 2.60547 12.7637 2.60547C12.9746 2.60547 13.1562 2.67578 13.3086 2.81641ZM8 0.619141C8.1875 0.619141 8.35156 0.683594 8.49219 0.8125C8.64453 0.941406 8.72656 1.09961 8.73828 1.28711L8.75586 1.375V2.86914C8.75586 3.08008 8.67969 3.26172 8.52734 3.41406C8.38672 3.55469 8.21094 3.625 8 3.625C7.8125 3.625 7.64258 3.56055 7.49023 3.43164C7.34961 3.30273 7.27344 3.14453 7.26172 2.95703L7.24414 2.86914V1.375C7.24414 1.16406 7.31445 0.988281 7.45508 0.847656C7.60742 0.695313 7.78906 0.619141 8 0.619141Z" fill="#F87A7B"/>
</svg>
