<svg width="16" height="16" viewBox="0 0 16 16" fill="none" xmlns="http://www.w3.org/2000/svg">
<path d="M10.4434 0.619141C10.6309 0.619141 10.7949 0.683594 10.9355 0.8125C11.0762 0.941406 11.1582 1.09961 11.1816 1.28711V1.375V2.13086H13.2559C13.8535 2.13086 14.3691 2.33594 14.8027 2.74609C15.2363 3.15625 15.4648 3.6543 15.4883 4.24023L15.5059 4.38086V13.3809C15.5059 13.9785 15.3008 14.4941 14.8906 14.9277C14.4805 15.3613 13.9766 15.5898 13.3789 15.6133L13.2559 15.6309H2.74414C2.14648 15.6309 1.63086 15.4258 1.19727 15.0156C0.763672 14.6055 0.535156 14.1016 0.511719 13.5039L0.494141 13.3809V4.38086C0.494141 3.7832 0.699219 3.26758 1.10938 2.83398C1.51953 2.40039 2.02344 2.16602 2.62109 2.13086H2.74414H4.625V1.375C4.625 1.16406 4.69531 0.988281 4.83594 0.847656C4.98828 0.695313 5.16992 0.619141 5.38086 0.619141C5.56836 0.619141 5.73242 0.683594 5.87305 0.8125C6.01367 0.941406 6.0957 1.09961 6.11914 1.28711V1.375V2.13086H9.6875V1.375C9.6875 1.16406 9.75781 0.988281 9.89844 0.847656C10.0508 0.695313 10.2324 0.619141 10.4434 0.619141ZM13.9941 7.5625H2.00586V13.3809C2.00586 13.5684 2.06445 13.7324 2.18164 13.873C2.31055 14.0137 2.46875 14.0957 2.65625 14.1191H2.74414H13.2559C13.4434 14.1191 13.6074 14.0605 13.748 13.9434C13.8887 13.8145 13.9707 13.6562 13.9941 13.4688V13.3809V7.5625ZM4.625 3.625H2.74414C2.55664 3.625 2.39258 3.68945 2.25195 3.81836C2.11133 3.94727 2.0293 4.10547 2.00586 4.29297V4.38086V6.06836H13.9941V4.38086C13.9941 4.18164 13.9297 4.01172 13.8008 3.87109C13.6836 3.73047 13.5312 3.64844 13.3438 3.625H13.2559H11.1816V4.38086C11.1816 4.58008 11.1055 4.75586 10.9531 4.9082C10.8125 5.04883 10.6426 5.11914 10.4434 5.11914C10.2441 5.11914 10.0742 5.06055 9.93359 4.94336C9.79297 4.81445 9.71094 4.65625 9.6875 4.46875V4.38086V3.625H6.11914V4.38086C6.11914 4.58008 6.04297 4.75586 5.89062 4.9082C5.75 5.04883 5.58008 5.11914 5.38086 5.11914C5.18164 5.11914 5.01172 5.06055 4.87109 4.94336C4.73047 4.81445 4.64844 4.65625 4.625 4.46875V4.38086V3.625Z" fill="#F87A7B"/>
</svg>
