<svg width="1004" height="256" viewBox="0 0 1004 256" fill="none" xmlns="http://www.w3.org/2000/svg">
<path d="M8.86006 197.54C3.16006 191.73 0.310059 184.07 0.310059 174.55C0.310059 166.08 1.98006 158.65 5.33006 152.26C8.68006 145.88 13.0201 140.96 18.3601 137.51C23.7001 134.06 29.2901 132.33 35.1501 132.33C40.9001 132.33 45.3801 134.03 48.5701 137.43C51.7601 140.83 53.3601 145.2 53.3601 150.53C53.3601 154.92 52.3901 158.64 50.4601 161.67C48.5201 164.71 45.9901 166.22 42.8501 166.22C40.8601 166.22 39.2601 165.75 38.0601 164.81C36.8601 163.87 36.2601 162.56 36.2601 160.89C36.2601 160.16 36.3601 159.32 36.5701 158.38C36.7801 157.44 36.9401 156.76 37.0401 156.34C37.5601 154.77 37.8301 153.31 37.8301 151.95C37.8301 150.59 37.4901 149.54 36.8101 148.81C36.1301 148.08 35.1601 147.71 33.9101 147.71C31.5001 147.71 29.2501 148.78 27.1601 150.93C25.0701 153.08 23.3901 155.98 22.1401 159.64C20.8801 163.3 20.2601 167.33 20.2601 171.72C20.2601 183.86 25.5401 189.93 36.1101 189.93C40.4001 189.93 45.0301 188.49 50.0001 185.61C54.9701 182.73 59.8601 178.42 64.6701 172.66C65.9301 171.2 67.3401 170.46 68.9101 170.46C70.2701 170.46 71.3401 171.09 72.1301 172.34C72.9101 173.59 73.3101 175.32 73.3101 177.52C73.3101 181.5 72.3101 184.74 70.3301 187.25C65.4101 193.32 59.5301 198 52.6701 201.3C45.8201 204.6 39.2001 206.24 32.8201 206.24C22.5401 206.25 14.5601 203.34 8.86006 197.54Z" fill="#0E0449"/>
<path d="M62.7701 199.18C58.9001 194.47 56.9601 188.3 56.9601 180.66C56.9601 172.29 58.8901 164.37 62.7701 156.88C66.6401 149.4 71.7901 143.38 78.2301 138.83C84.6601 134.28 91.4901 132 98.7101 132C101.01 132 102.56 132.45 103.34 133.33C104.13 134.22 104.78 135.82 105.3 138.12C107.5 137.7 109.8 137.49 112.21 137.49C117.33 137.49 119.9 139.32 119.9 142.98C119.9 145.18 119.11 150.41 117.55 158.67C115.14 170.7 113.94 179.07 113.94 183.78C113.94 185.35 114.33 186.61 115.12 187.55C115.91 188.49 116.92 188.96 118.18 188.96C120.17 188.96 122.57 187.68 125.4 185.11C128.22 182.55 132.04 178.39 136.86 172.63C138.12 171.17 139.53 170.43 141.1 170.43C142.46 170.43 143.53 171.06 144.32 172.31C145.11 173.56 145.5 175.29 145.5 177.49C145.5 181.68 144.5 184.92 142.52 187.22C138.23 192.56 133.68 197.06 128.87 200.72C124.06 204.38 119.4 206.21 114.9 206.21C111.45 206.21 108.28 205.03 105.4 202.68C102.52 200.33 100.35 197.11 98.8901 193.03C93.4501 201.82 86.5901 206.21 78.3301 206.21C71.8201 206.25 66.6401 203.89 62.7701 199.18ZM90.5501 186.31C92.6401 183.59 94.1601 179.98 95.1001 175.48L100.91 146.6C96.5201 146.71 92.4601 148.35 88.7501 151.54C85.0401 154.73 82.0801 158.94 79.8801 164.17C77.6801 169.4 76.5801 174.95 76.5801 180.81C76.5801 184.05 77.2301 186.46 78.5401 188.03C79.8501 189.6 81.6501 190.38 83.9601 190.38C86.2601 190.39 88.4601 189.04 90.5501 186.31Z" fill="#0E0449"/>
<path d="M195.46 172.35C196.25 173.6 196.64 175.33 196.64 177.53C196.64 181.72 195.64 184.96 193.66 187.26C189.16 192.81 184.27 197.36 178.99 200.91C173.7 204.47 167.71 206.25 161.02 206.25C151.81 206.25 144.98 202.07 140.54 193.69C136.09 185.32 133.87 174.49 133.87 161.2C133.87 148.44 135.52 133.89 138.81 117.57C142.11 101.25 146.97 87.2299 153.41 75.5099C159.84 63.7899 167.51 57.9299 176.4 57.9299C181.42 57.9299 185.37 60.2599 188.25 64.9099C191.13 69.5699 192.57 76.2399 192.57 84.9199C192.57 97.3699 189.12 111.81 182.21 128.24C175.3 144.67 165.94 160.94 154.12 177.05C154.85 181.34 156.06 184.4 157.73 186.23C159.4 188.06 161.6 188.98 164.32 188.98C168.61 188.98 172.38 187.75 175.62 185.29C178.86 182.83 183 178.62 188.02 172.66C189.28 171.2 190.69 170.46 192.26 170.46C193.61 170.46 194.68 171.09 195.46 172.35ZM164.78 86.4999C161.74 95.1899 159.08 105.96 156.78 118.83C154.48 131.7 153.22 144.05 153.01 155.87C160.44 143.63 166.35 131.36 170.74 119.07C175.13 106.78 177.33 95.5599 177.33 85.4099C177.33 77.4599 175.86 73.4799 172.94 73.4799C170.53 73.4699 167.82 77.8199 164.78 86.4999Z" fill="#0E0449"/>
<path d="M246.63 172.35C247.42 173.6 247.81 175.33 247.81 177.53C247.81 181.72 246.81 184.96 244.83 187.26C240.33 192.81 235.44 197.36 230.16 200.91C224.87 204.47 218.88 206.25 212.19 206.25C202.98 206.25 196.15 202.07 191.71 193.69C187.26 185.32 185.04 174.49 185.04 161.2C185.04 148.44 186.69 133.89 189.98 117.57C193.28 101.25 198.14 87.2299 204.58 75.5099C211.01 63.7899 218.68 57.9299 227.57 57.9299C232.59 57.9299 236.54 60.2599 239.42 64.9099C242.3 69.5699 243.74 76.2399 243.74 84.9199C243.74 97.3699 240.29 111.81 233.38 128.24C226.47 144.67 217.11 160.94 205.29 177.05C206.02 181.34 207.23 184.4 208.9 186.23C210.57 188.06 212.77 188.98 215.49 188.98C219.78 188.98 223.55 187.75 226.79 185.29C230.03 182.83 234.17 178.62 239.19 172.66C240.45 171.2 241.86 170.46 243.43 170.46C244.77 170.46 245.84 171.09 246.63 172.35ZM215.94 86.4999C212.9 95.1899 210.24 105.96 207.94 118.83C205.64 131.7 204.38 144.05 204.17 155.87C211.6 143.63 217.51 131.36 221.9 119.07C226.29 106.78 228.49 95.5599 228.49 85.4099C228.49 77.4599 227.02 73.4799 224.1 73.4799C221.7 73.4699 218.98 77.8199 215.94 86.4999Z" fill="#0E0449"/>
<path d="M239.56 199.03C236.47 194.22 234.93 187.84 234.93 179.88C234.93 175.17 235.53 169.13 236.73 161.75C237.93 154.37 239.48 147.5 241.36 141.11C242.3 137.76 243.56 135.46 245.13 134.2C246.7 132.95 249.21 132.32 252.66 132.32C258 132.32 260.66 134.1 260.66 137.66C260.66 140.28 259.66 146.35 257.68 155.87C255.17 167.38 253.91 175.17 253.91 179.25C253.91 182.39 254.33 184.8 255.17 186.47C256.01 188.14 257.42 188.98 259.41 188.98C261.29 188.98 263.65 187.67 266.47 185.06C269.29 182.45 273.06 178.31 277.77 172.66C279.02 171.2 280.44 170.46 282.01 170.46C283.37 170.46 284.44 171.09 285.23 172.34C286.02 173.59 286.41 175.32 286.41 177.52C286.41 181.71 285.41 184.95 283.43 187.25C273.07 199.91 263.39 206.24 254.4 206.24C247.59 206.25 242.65 203.84 239.56 199.03ZM245.76 118.91C243.56 116.87 242.46 114.02 242.46 110.36C242.46 106.7 243.9 103.64 246.78 101.18C249.66 98.72 253.24 97.49 257.53 97.49C261.4 97.49 264.54 98.43 266.95 100.31C269.36 102.19 270.56 104.86 270.56 108.31C270.56 112.5 269.2 115.82 266.48 118.27C263.76 120.73 260.15 121.96 255.65 121.96C251.25 121.97 247.96 120.95 245.76 118.91Z" fill="#0E0449"/>
<path d="M333.1 177.05C333.89 178.3 334.28 180.03 334.28 182.23C334.28 186 333.39 189.24 331.61 191.96C328.68 196.46 324.83 199.96 320.07 202.48C315.31 204.99 309.63 206.25 303.04 206.25C293 206.25 285.2 203.24 279.66 197.23C274.11 191.21 271.34 183.08 271.34 172.83C271.34 165.61 272.86 158.89 275.89 152.66C278.92 146.44 283.13 141.49 288.52 137.83C293.91 134.17 300 132.34 306.8 132.34C312.87 132.34 317.73 134.14 321.4 137.75C325.06 141.36 326.89 146.25 326.89 152.42C326.89 159.64 324.3 165.84 319.12 171.02C313.94 176.2 305.12 180.31 292.68 183.34C295.19 188.15 299.43 190.56 305.39 190.56C309.68 190.56 313.21 189.57 315.98 187.58C318.75 185.59 321.97 182.24 325.63 177.54C326.89 175.97 328.3 175.19 329.87 175.19C331.24 175.17 332.31 175.8 333.1 177.05ZM294.33 154.46C291.66 158.96 290.33 164.4 290.33 170.78V171.09C296.5 169.63 301.37 167.43 304.93 164.5C308.49 161.57 310.27 158.17 310.27 154.3C310.27 152.31 309.72 150.72 308.62 149.51C307.52 148.31 306.03 147.71 304.15 147.71C300.27 147.71 297 149.96 294.33 154.46Z" fill="#0E0449"/>
<path d="M499.3 172.35C500.09 173.6 500.48 175.33 500.48 177.53C500.48 181.72 499.48 184.96 497.5 187.26C493 192.81 488.11 197.36 482.83 200.91C477.55 204.47 471.55 206.25 464.86 206.25C457.74 206.25 452.04 203.66 447.75 198.48C443.46 193.3 440.53 186.27 438.96 177.37C435.4 178.31 431.64 178.78 427.66 178.78C424.21 178.78 420.39 178.52 416.2 177.99C417.66 184.58 418.87 191.96 419.81 200.12C420.75 208.28 421.22 214.98 421.22 220.21C421.22 231.51 419.39 240.14 415.73 246.1C412.07 252.06 407.26 255.05 401.29 255.05C393.76 255.05 388.39 249.71 385.2 239.04C382.01 228.37 380.41 212.25 380.41 190.7C380.41 170.61 382.58 150.24 386.92 129.57C391.26 108.91 397.22 91.7999 404.81 78.2499C412.39 64.6999 420.74 57.9299 429.84 57.9299C434.76 57.9299 438.6 60.1299 441.38 64.5199C444.15 68.9099 445.54 74.8299 445.54 82.2499C445.54 106.84 430.84 133.62 401.44 162.6C400.39 172.85 399.87 181.85 399.87 189.59C399.87 200.37 400.24 211.43 400.97 222.78C401.7 234.13 402.9 239.81 404.58 239.81C407.72 239.81 409.29 234.37 409.29 223.49C409.29 215.33 408.74 207.43 407.64 199.79C406.54 192.15 405.05 184.1 403.17 175.62C403.06 174.26 403.51 172.54 404.5 170.44C405.49 168.35 406.72 166.52 408.19 164.95C409.65 163.38 410.96 162.6 412.11 162.6C413.47 162.6 415.61 162.71 418.54 162.91C421.89 163.12 424.4 163.22 426.07 163.22C429.84 163.22 433.71 162.7 437.68 161.65V161.18C437.68 148.42 439.33 133.87 442.62 117.55C445.92 101.23 450.78 87.2099 457.22 75.4899C463.65 63.7699 471.32 57.9099 480.21 57.9099C485.23 57.9099 489.18 60.2399 492.06 64.8899C494.94 69.5499 496.38 76.2199 496.38 84.8999C496.38 93.3699 494.81 103 491.67 113.78C488.53 124.56 483.98 134.89 478.02 144.78C472.06 154.67 465.05 162.59 456.99 168.56C457.41 175.99 458.5 181.25 460.28 184.33C462.06 187.42 464.67 188.96 468.13 188.96C472.42 188.96 476.19 187.73 479.43 185.27C482.67 182.81 486.81 178.6 491.83 172.64C493.08 171.18 494.5 170.44 496.07 170.44C497.44 170.46 498.51 171.09 499.3 172.35ZM419.57 83.0499C416.8 89.4299 414.05 97.8799 411.33 108.4C408.61 118.91 406.25 130.03 404.27 141.75C412.64 132.23 419.07 122.32 423.57 112.01C428.07 101.71 430.37 92.0499 430.48 83.0499C430.48 76.6699 429.17 73.4799 426.56 73.4799C424.67 73.4699 422.34 76.6699 419.57 83.0499ZM469.16 85.1699C466.28 92.9699 463.69 102.83 461.39 114.75C459.09 126.68 457.68 138.34 457.15 149.75C462.38 144.41 466.83 137.9 470.49 130.21C474.15 122.52 476.85 114.73 478.57 106.83C480.3 98.9299 481.16 91.7899 481.16 85.4099C481.16 77.4599 479.69 73.4799 476.77 73.4799C474.58 73.4699 472.04 77.3699 469.16 85.1699Z" fill="#0E0449"/>
<path d="M570.94 159.32C571.67 160.68 572.04 162.41 572.04 164.5C572.04 169.52 570.52 172.5 567.49 173.45C561.21 175.65 554.31 176.9 546.77 177.22C544.78 186.01 540.86 193.05 535 198.33C529.14 203.61 522.5 206.26 515.07 206.26C508.79 206.26 503.43 204.74 498.98 201.71C494.53 198.68 491.16 194.65 488.86 189.63C486.56 184.61 485.41 179.17 485.41 173.31C485.41 165.36 486.93 158.27 489.96 152.04C492.99 145.82 497.18 140.95 502.52 137.44C507.86 133.94 513.77 132.18 520.25 132.18C528.2 132.18 534.61 134.93 539.47 140.42C544.34 145.91 547.18 152.69 548.02 160.74C552.94 160.43 558.8 159.38 565.6 157.6C566.44 157.39 567.17 157.29 567.8 157.29C569.16 157.28 570.21 157.96 570.94 159.32ZM525.03 185.53C527.49 182.81 529.14 178.89 529.97 173.76C526.72 171.56 524.24 168.69 522.51 165.13C520.78 161.57 519.92 157.81 519.92 153.83C519.92 152.16 520.08 150.48 520.39 148.81H519.61C515.42 148.81 511.94 150.83 509.17 154.85C506.4 158.88 505.01 164.56 505.01 171.88C505.01 177.64 506.13 182.03 508.38 185.06C510.63 188.1 513.27 189.61 516.31 189.61C519.67 189.61 522.57 188.25 525.03 185.53Z" fill="#0E0449"/>
<path d="M678.76 157.59C680.33 157.59 681.53 158.11 682.37 159.16C683.21 160.21 683.63 161.62 683.63 163.4C683.63 166.64 683 169.18 681.75 171.01C680.49 172.84 678.61 174.18 676.1 175.01C671.29 176.58 666.16 177.36 660.72 177.36C656.11 177.36 651.77 176.73 647.69 175.48C644.65 180.4 641.31 185.47 637.65 190.7C633.46 196.66 629.88 200.74 626.9 202.94C623.92 205.14 620.54 206.24 616.78 206.24C612.59 206.24 609.43 204.62 607.28 201.37C605.13 198.13 603.8 192.79 603.28 185.36L602.49 173.9C599.25 182.69 596.34 189.39 593.78 193.99C591.21 198.6 588.65 201.79 586.09 203.56C583.53 205.34 580.52 206.23 577.07 206.23C572.78 206.23 569.4 204.56 566.95 201.21C564.49 197.86 562.95 192.58 562.32 185.36C561.06 170.71 560.44 157.9 560.44 146.91V141.42C560.54 137.97 561.48 135.56 563.27 134.2C565.05 132.84 567.72 132.16 571.27 132.16C573.99 132.16 576 132.76 577.31 133.96C578.62 135.16 579.27 137.18 579.27 140C579.27 152.03 580 167.68 581.47 186.92C588.58 171.96 595.12 156.37 601.09 140.15C602.24 137.01 603.63 134.89 605.25 133.79C606.87 132.69 608.83 132.14 611.13 132.14C613.96 132.14 615.92 132.72 617.02 133.87C618.12 135.02 618.67 137.06 618.67 139.99C618.67 152.02 619.4 167.67 620.87 186.91C627.15 177.6 631.86 170.17 634.99 164.62C633.42 161.59 632.64 157.98 632.64 153.79C632.64 150.23 633.43 146.78 634.99 143.43C636.56 140.08 638.7 137.36 641.42 135.27C644.14 133.18 647.23 132.13 650.68 132.13C653.71 132.13 656.17 133.2 658.06 135.35C659.94 137.5 660.89 140.61 660.89 144.69C660.89 149.4 659.63 154.79 657.12 160.86C661.09 160.65 666.38 159.87 672.97 158.51L677.21 157.73C677.5 157.65 678.02 157.59 678.76 157.59Z" fill="#0E0449"/>
<path d="M743.18 172.35C743.97 173.6 744.36 175.33 744.36 177.53C744.36 181.72 743.36 184.96 741.38 187.26C737.51 191.97 732.04 196.31 724.98 200.29C717.92 204.27 710.36 206.25 702.3 206.25C691.31 206.25 682.79 203.27 676.72 197.3C670.65 191.34 667.62 183.18 667.62 172.82C667.62 165.6 669.14 158.88 672.17 152.65C675.2 146.43 679.41 141.48 684.8 137.82C690.19 134.16 696.28 132.33 703.08 132.33C709.15 132.33 714.01 134.13 717.68 137.74C721.34 141.35 723.17 146.24 723.17 152.41C723.17 159.63 720.58 165.83 715.4 171.01C710.22 176.19 701.46 180.3 689.11 183.33C691.72 188.14 696.69 190.55 704.02 190.55C708.73 190.55 714.09 188.9 720.11 185.61C726.13 182.32 731.33 178 735.73 172.66C736.98 171.2 738.4 170.46 739.97 170.46C741.32 170.46 742.39 171.09 743.18 172.35ZM690.6 154.46C687.93 158.96 686.6 164.4 686.6 170.78V171.09C692.77 169.63 697.64 167.43 701.2 164.5C704.76 161.57 706.54 158.17 706.54 154.3C706.54 152.31 705.99 150.72 704.89 149.51C703.79 148.31 702.3 147.71 700.42 147.71C696.54 147.71 693.27 149.96 690.6 154.46Z" fill="#0E0449"/>
<path d="M800.93 156.26C802.55 157.88 803.36 159.9 803.36 162.3C803.36 163.66 803.05 165.13 802.42 166.69C800.75 170.56 798.39 173.81 795.36 176.42C792.32 179.04 788.98 180.34 785.32 180.34C782.39 180.34 779.91 179.3 777.87 177.2C775.83 175.11 774.81 172.28 774.81 168.73C774.81 166.74 774.91 164.6 775.12 162.3C775.33 160.63 775.43 159.47 775.43 158.85C775.43 158.01 775.25 157.39 774.88 156.97C774.51 156.55 774.07 156.34 773.55 156.34C772.08 156.34 770.1 158.09 767.59 161.6C765.08 165.11 762.57 169.74 760.06 175.49C757.55 181.24 755.51 187.31 753.94 193.7C752.79 198.72 751.48 202.07 750.02 203.74C748.55 205.41 746.15 206.25 742.8 206.25C738.82 206.25 736.02 204.16 734.4 199.97C732.78 195.79 731.97 189.09 731.97 179.88C731.97 166.28 733.91 153.36 737.78 141.12C738.72 138.09 740.26 135.86 742.41 134.45C744.55 133.04 747.56 132.33 751.43 132.33C753.52 132.33 754.99 132.59 755.82 133.11C756.66 133.64 757.08 134.63 757.08 136.09C757.08 137.76 756.29 141.53 754.73 147.39C753.68 151.58 752.85 155.24 752.22 158.38C751.59 161.52 751.07 165.39 750.65 169.99C754.1 160.99 757.97 153.67 762.26 148.02C766.55 142.37 770.73 138.34 774.82 135.94C778.9 133.53 782.61 132.33 785.96 132.33C788.99 132.33 791.32 133.19 792.94 134.92C794.56 136.65 795.37 139.18 795.37 142.53C795.37 144.52 794.79 148.28 793.64 153.83H795.05C797.35 153.83 799.31 154.64 800.93 156.26Z" fill="#0E0449"/>
<path d="M822.12 205.93C819.24 203.42 817.8 200.59 817.8 197.46C817.8 194.74 818.79 192.39 820.78 190.4C822.77 188.41 825.7 187.42 829.57 187.42C830.93 187.42 832.53 187.55 834.36 187.81C836.19 188.07 837.58 188.26 838.52 188.36C838.41 185.64 837.81 183.08 836.72 180.67C835.62 178.26 834.23 175.94 832.56 173.69C830.88 171.44 829.31 169.48 827.85 167.8C824.61 173.97 821.39 179.1 818.2 183.18C815.01 187.26 811.53 191.13 807.76 194.79C805.88 196.67 803.89 197.62 801.8 197.62C800.13 197.62 798.76 197.02 797.72 195.81C796.68 194.61 796.15 193.12 796.15 191.34C796.15 189.25 796.88 187.31 798.35 185.53L800.39 183.02C806.14 175.91 810.49 170.05 813.42 165.44C815.3 162.41 817.21 158.8 819.15 154.61C821.08 150.43 823.62 144.72 826.76 137.5C828.75 132.9 832.88 130.59 839.16 130.59C842.09 130.59 844.13 130.85 845.28 131.38C846.43 131.9 847.01 132.74 847.01 133.89C847.01 134.52 846.8 135.51 846.38 136.87C845.96 138.23 845.38 139.59 844.65 140.95C842.77 144.72 841.82 147.91 841.82 150.52C841.82 152.09 842.37 153.82 843.47 155.7C844.57 157.58 846.27 159.94 848.57 162.76C851.92 167.15 854.45 170.9 856.18 173.98C857.91 177.07 858.77 180.44 858.77 184.1C858.77 188.49 857.75 192.65 855.71 196.58C853.67 200.51 850.82 203.67 847.16 206.08C843.5 208.49 839.31 209.69 834.61 209.69C829.16 209.7 825 208.44 822.12 205.93Z" fill="#0E0449"/>
<path d="M920.94 121.36C926.16 139.3 943.27 193.15 979.95 193.15C1016.61 192.02 1000.07 153.69 1000.07 153.69C993.17 138.57 973.42 127.15 960.79 121.53C960.79 121.53 989.63 107.71 989.63 60.36C989.63 21.31 979.95 0 955.5 0C955.5 0 887.9 7.92 920.94 121.36Z" fill="#F87A7B"/>
<path d="M904.92 132.79C906.67 155.68 910.44 192.97 927.37 189.95C944.8 184.42 920.19 133.19 914.51 120.28C908.84 107.36 882.74 48.55 862.84 54.45C849.76 62.9 862.92 100.19 904.92 132.79Z" fill="#F87A7B"/>
</svg>
