<svg xmlns="http://www.w3.org/2000/svg" xmlns:xlink="http://www.w3.org/1999/xlink" viewBox="0 0 32 32"><defs><linearGradient id="a" x1="21.25" x2="21.25" y1="28.84" y2="10.49" gradientUnits="userSpaceOnUse"><stop offset="0" stop-color="#ffc799"/><stop offset=".5" stop-color="#ff9176"/><stop offset="1" stop-color="#fb596e"/></linearGradient><linearGradient id="b" x1="9.27" x2="9.27" y1="38.37" y2="11.42" xlink:href="#a"/><linearGradient id="c" x1="8" x2="8" y1="12.14" y2="1.99" xlink:href="#a"/><linearGradient id="d" x1="3.75" x2="3.75" y1="16.14" y2="4.6" xlink:href="#a"/></defs><path fill="url(#a)" fill-rule="evenodd" d="M21.24,22.35,13,14a5.82,5.82,0,0,1,0-8.3,5.75,5.75,0,0,1,8.24,0,5.85,5.85,0,0,1,8.33,0,6,6,0,0,1,0,8.3l-8.33,8.31Z"/><path fill="#fff" d="M17.08,5.82a3.84,3.84,0,0,0-2.72,1.11,3.8,3.8,0,0,0-1.12,2.8c-.08,1.2,1.76,1.2,1.76,0a2.34,2.34,0,0,1,.64-1.52,1.93,1.93,0,0,1,1.44-.56.92.92,0,0,0,0-1.83Z" opacity=".25"/><path fill="url(#b)" fill-rule="evenodd" d="M9.24,28.5l-7-7a5.11,5.11,0,0,1,0-7.11,4.91,4.91,0,0,1,7.05,0,4.9,4.9,0,0,1,7,0,5,5,0,0,1,0,7.11l-7,7Z"/><path fill="#fff" d="M5.71,14.44a3.2,3.2,0,0,0-2.32,1,3.53,3.53,0,0,0-1,2.4c-.08,1,1.52,1,1.52,0a1.82,1.82,0,0,1,.48-1.28A2,2,0,0,1,5.71,16a.8.8,0,0,0,0-1.6Z" opacity=".25"/><path fill="url(#c)" fill-rule="evenodd" d="M8,9,5.55,6.54A1.79,1.79,0,0,1,5.55,4,1.84,1.84,0,0,1,8,4a1.85,1.85,0,0,1,2.49,0,2,2,0,0,1,0,2.56C9.64,7.33,8,9,8,9Z"/><path fill="#ff717a" d="M6.75,4.06a.93.93,0,0,0-.8.32,1.28,1.28,0,0,0-.4.88c0,.32.56.32.56,0a1.14,1.14,0,0,1,.16-.48,1.14,1.14,0,0,1,.48-.16c.32,0,.32-.56,0-.56Z"/><path fill="url(#d)" fill-rule="evenodd" d="M3.79,12.05,1.87,10.13a1.36,1.36,0,0,1,0-1.84,1.31,1.31,0,0,1,1.92,0,1.22,1.22,0,0,1,1.84,0,1.36,1.36,0,0,1,0,1.84c-.64.64-1.84,1.92-1.84,1.92Z"/><path fill="#ff717a" d="M2.83,8.29a.91.91,0,0,0-.64.24A.91.91,0,0,0,2,9.17a.2.2,0,0,0,.4,0c0-.16,0-.24.16-.32a.42.42,0,0,1,.32-.16.2.2,0,0,0,0-.4Z"/></svg>